<?xml version="1.0" encoding="UTF-8"?><svg xmlns="http://www.w3.org/2000/svg" viewBox="0 0 1366 347"><defs><style>.d{fill:#1a1a1a;}</style></defs><g id="a"/><g id="b"><g id="c"><path class="d" d="M0,0V302.02c10.48,5.34,24.08,10.48,41.42,13.96-.6,.34-.92,.52-.92,.52,.63-.11,1.25-.22,1.88-.33,1.88,.37,3.8,.72,5.76,1.05,0,0-1.01-.56-2.75-1.59,74.19-13.74,99.11-50.13,99.11-50.13,0,0,35,49,86,64,0,0-34.3-39-46.65-72.5,0,0,12.92,8.35,34.2,15.86-.36,.42-.55,.64-.55,.64,.42-.12,.84-.26,1.27-.39,18.64,6.51,43.55,12.31,71.73,11.39,0,0-23.16-10.33-45.32-22.93,9.08-5.16,17.32-11.07,24.57-17.03,14.53,1.25,30.27,1.3,45.75-1.04,0,0-13.43-3.56-31.34-11.99,12.32-12.19,19.34-22.01,19.34-22.01,0,0,23.42,34.22,92.47,48.82-10.9,7.03-18.53,11.25-18.53,11.25,104.61-17.43,139.48-68.4,139.48-68.4,0,0,46.94,65.72,115.34,85.83,0,0-46-52.3-62.56-97.23,0,0,18.8,12.14,49.47,22.52-2.43,2.98-3.96,4.71-3.96,4.71,3.02-.89,5.95-1.95,8.81-3.12,24.02,7.65,54.57,13.89,88.71,12.77,0,0-30.36-13.54-59.77-30.18,11.75-9.4,20.23-19.14,24.28-24.16,2.02,.22,4.06,.42,6.11,.61,7.75,8.19,29.48,26.51,73.77,34.12-14.55,8.58-27.61,14.46-27.61,14.46,38,3,79-10,79-10-20,24-58,45-58,45,78-13,104-51,104-51,0,0,35,49,86,64,0,0-33.99-38.65-46.48-72.05,.16-.02,.32-.03,.47-.05,3.72,2.29,23.51,13.9,52.58,21.19-10.5,14.58-19.57,24.9-19.57,24.9,15.44-4.54,29.41-12.2,41.4-20.68,9.91,1.36,20.5,2.04,31.6,1.68,0,0-8.83-3.94-20.81-9.92,13.83-11.36,24.02-22.85,29.42-29.45,2.85-.15,5.71-.36,8.56-.65,6.64,7.12,21.71,20.57,48.76,31.78-22.72,13.7-40.68,22.11-40.68,22.11,49.62,9.39,111.31-5.36,111.31-5.36-24.14,25.48-77.79,49.62-77.79,49.62,50.96,4.02,105.95-13.41,105.95-13.41-26.82,32.19-77.78,60.35-77.78,60.35,104.61-17.43,139.48-68.4,139.48-68.4,0,0,46.94,65.72,115.34,85.83,0,0-21.3-24.22-40.13-53.85,25.41,.82,47.27-5.62,61.72-11.53,.71,.14,1.44,.27,2.16,.41V0H0ZM77.5,244.5c-3.74,3.95-8.43,7.85-13.52,11.56-3.67-2.13-7.65-4.55-11.76-7.22,14.88-1.86,25.27-4.34,25.27-4.34Zm-30.53,22.63c-4.56,2.69-8.97,5.11-12.88,7.16-5.19-3.52-10.1-7.35-13.78-11.24,0,0,11.55,2.76,26.66,4.07Zm-3.24,47.52c-8.61-5.19-27.81-17.58-39.22-31.28,0,0,30.85,9.78,59.43,7.52,0,0-8.44-3.8-18.4-9.5,28.58-2.16,52.95-9.89,52.95-9.89-16.49,19.79-45.19,37.52-54.77,43.14ZM241.5,175.5c-2.28,4.56-7.9,9.8-15.2,15.17-2.58-2.79-5.07-5.7-7.44-8.75,13.87-3.29,22.64-6.42,22.64-6.42Zm-8.58,78.75c-12.53-7.89-23.07-16.05-26.42-22.75,0,0,14.65,5.23,36.04,9.27-3.29,4.85-6.57,9.41-9.62,13.48Zm24.28-37.77c-3.21-2.11-6.43-4.36-9.62-6.75,10.56-4.85,16.57-8.73,16.57-8.73-1.88,5.09-4.26,10.3-6.95,15.48Zm169.86-43.48c-1.06,1.12-2.18,2.23-3.35,3.35-1.05-.63-2.12-1.28-3.2-1.94,4.17-.84,6.54-1.4,6.54-1.4Zm-25.29,20.52c-4.71,3.17-9.54,6.19-14.28,9.01-6.41-4.43-12.42-9.2-17-14.03,0,0,13.26,3.17,31.27,5.02Zm-52.27,21.98s3.46,1.1,9.3,2.58c-1.86,.92-3.51,1.72-4.88,2.37-1.55-1.63-3.03-3.29-4.42-4.95Zm50.19,40.39c-10.38-6.36-29.05-18.68-43.23-32.84,8.17,.33,16.37,.17,24.36-.34,14.05,2.36,31.15,4.09,47.69,2.78,0,0-5.76-2.59-13.88-6.84,23.73-4.09,40.61-9.44,40.61-9.44-15.3,18.37-38.46,35.42-55.54,46.68Zm207.09-91.52c-3.01-3.08-5.33-6.04-6.71-8.81,0,0,5.16,1.84,14.03,4.36-2.36,1.5-4.82,2.99-7.32,4.45Zm30.62,22.89c-6.12-3.8-11.91-7.65-17.08-11.46,9.35-3.01,16.91-6.39,22.09-8.99,1.84,.38,3.72,.75,5.64,1.11-2.91,6.52-6.69,13.14-10.65,19.34Zm83.4-7.18c-1.99-1.93-3.88-3.92-5.61-5.94,.63-.01,1.25-.02,1.88-.04,2.16,.61,5.59,1.52,9.93,2.5-2.18,1.25-4.26,2.4-6.21,3.47Zm9.51-27.04s11.78,2.81,27.11,4.11c-3.95,2.85-7.93,5.57-11.83,8.12-5.74-3.79-11.24-7.97-15.27-12.23Zm27.15,53.78c-2.72-1.55-13.23-7.68-24.1-16.01,28.43-.18,54.14-6.33,54.14-6.33-7.63,8.06-19.22,15.93-30.04,22.33Zm159.88-33.88c-.31-.49-.6-.98-.84-1.46,0,0,.73,.26,2.1,.71-.42,.25-.84,.5-1.27,.75Zm40.33,30.01c-8.12-4.54-16.22-9.43-23.14-14.27,7.61-2.46,14.31-5.1,19.94-7.57,4.52,.82,9.31,1.58,14.32,2.23-3.27,6.64-7.12,13.29-11.12,19.61Zm55.79-23.4l.05-.07s.03,.04,.08,.11l-.13-.05Zm68.38,27.02c-8.06-6.37-16.08-13.58-22.33-21.08,0,0,17.55,5.56,40.32,8.57-5.98,4.42-12.05,8.61-18,12.51Zm32.26-23.68c-11.76-6.73-25.11-15.45-33.59-24.4,0,0,24.98,5.97,52.94,6.31-5.87,6.26-12.43,12.32-19.35,18.09Zm165.6,66.87s5.53,3.57,15.48,8.5c-4.82,1.86-8.5,3.03-10.42,3.6-1.88-4.06-3.59-8.11-5.06-12.1Zm22.42,43.35c-6.24-9.82-12.21-20.24-17.04-30.56,7.29,.98,14.63,1.28,21.76,1.12,8.58,3.74,18.98,7.74,30.85,11.34-16.61,9.58-34.52,17.63-35.57,18.1Zm30.98-55.3c-11.07-7.86-19.69-15.59-23.02-22.25,0,0,14.69,5.24,37.22,10.17-4.51,4.49-9.32,8.51-14.19,12.08Zm29.95,18.69c-.95-.54-1.9-1.08-2.84-1.62,3.24-.97,5.06-1.62,5.06-1.62-.52,1.04-1.27,2.12-2.22,3.24Z"/></g></g></svg>