<?xml version="1.0" encoding="UTF-8"?><svg xmlns="http://www.w3.org/2000/svg" viewBox="0 0 204.43 1284"><defs><style>.d{fill:#1a1a1a;}</style></defs><g id="a"/><g id="b"><g id="c"><path class="d" d="M87.19,0s11.38,311.89,38.7,743.31c27.32,431.41,18.21,451.9,36.43,468.98,18.21,17.07,42.12,42.12,42.12,42.12,0,0-36.43,1.14-51.22-20.49l-7.4,39.53s-19.92-30.42-31.3-30.42c-11.38,0-35.29,40.98-35.29,40.98,0,0,13.66-42.17,0-37.59-13.66,4.58-54.64,10.27-54.64,10.27,0,0,38.13-18.78,38.13-129.2,0-110.41-40.06-1035.85-62.72-1127.48H87.19Z"/></g></g></svg>