<?xml version="1.0" encoding="UTF-8"?><svg xmlns="http://www.w3.org/2000/svg" viewBox="0 0 1366 360.77"><defs><style>.d{fill:#333;}</style></defs><g id="a"/><g id="b"><g id="c"><path class="d" d="M0,0V317.31c6.94-3.99,12.05-7.95,15.61-11.16,4.19,.08,8.32,.03,12.37-.12,9.04,10.37,28.24,29.35,52.96,36.62,0,0-16.9-19.23-27.15-39.03,4.13-.62,8.15-1.33,12.06-2.11,13.09,5.36,32.91,11.2,55.94,10.45-17.07,26.86-36.37,48.82-36.37,48.82,62-18.23,104.55-77.8,104.55-77.8,0,0,31.61,46.19,126.43,62,0,0-46.19-25.53-70.51-54.7,0,0,49.84,15.8,96.04,12.16,0,0-48.63-21.88-70.51-44.98,0,0,55.92,13.37,100.9,4.86,0,0-16.28-7.62-36.88-20.04,24.52-10.16,38.18-22.36,44.2-28.81,2.59,.26,5.18,.45,7.76,.59,4.9,5.98,14.13,16.4,26.67,26.7-10.85,5.42-18.86,8.99-18.86,8.99,10.07,.33,19.67-.29,28.65-1.52,10.86,7.68,23.53,14.62,37.52,18.74,0,0-8.23-9.36-17.74-22.58,26.35-6.61,44.28-17.14,47.66-19.21,.14,.02,.28,.03,.42,.05-11.32,30.27-42.13,65.31-42.13,65.31,46.23-13.6,77.95-58.01,77.95-58.01,0,0,23.57,34.44,94.27,46.23,0,0-34.44-19.04-52.57-40.79,0,0,37.16,11.78,71.61,9.06,0,0-11.84-5.33-25.03-13.11,40.16-6.9,59.85-23.51,66.87-30.92,1.87-.17,3.72-.35,5.55-.55,3.67,4.55,11.36,13.38,22.01,21.9-26.66,15.08-54.18,27.36-54.18,27.36,30.95,1.01,58.64-4.64,80.41-11.58,2.59,1.06,5.25,2.03,7.99,2.83,0,0-1.38-1.58-3.59-4.27,27.8-9.4,44.84-20.41,44.84-20.41-15.01,40.72-56.71,88.13-56.71,88.13,62-18.23,104.55-77.8,104.55-77.8,0,0,31.61,46.19,126.43,62,0,0-6.91-3.82-16.8-10.19,62.59-13.24,83.82-44.25,83.82-44.25,0,0,6.36,8.9,17.53,19.95-16.23,7.64-28.41,10.86-28.41,10.86,14.04,2.12,28.31,2.07,41.47,.94,6.57,5.4,14.04,10.76,22.27,15.44-20.09,11.42-41.08,20.79-41.08,20.79,25.55,.84,48.12-4.42,65.02-10.32,.38,.12,.76,.24,1.15,.35,0,0-.19-.21-.5-.58,19.29-6.81,31-14.38,31-14.38-11.2,30.37-42.29,65.72-42.29,65.72,46.23-13.6,77.95-58.01,77.95-58.01,0,0,22.58,32.99,89.84,45.44-1.58,.93-2.49,1.44-2.49,1.44,1.78-.3,3.51-.62,5.22-.95,.57,.1,1.13,.2,1.71,.3,0,0-.3-.16-.85-.48,48.46-9.74,64.84-33.65,64.84-33.65,0,0,14.19,19.84,36.61,33.63v-19.98c-3.87-6.33-7.42-13.04-9.78-19.45,0,0,3.53,2.28,9.78,5.24V0H0ZM18.62,303.25c2.54-2.61,3.67-4.25,3.67-4.25,0,0,.49,.69,1.41,1.86-1.9,.9-3.61,1.7-5.08,2.39Zm47.96-24.5c-.85-1.01-1.54-2-2.01-2.94,0,0,1.66,.59,4.59,1.47-.86,.49-1.72,.98-2.58,1.47Zm48.01-37.11c-3.02,6.03-10.83,13.04-20.87,20.17-4.42-3.24-8.78-6.88-12.87-10.95,20.42-4.46,33.73-9.22,33.73-9.22Zm7.21,70.3c-.95-.43-17.19-7.73-32.24-16.41,10.77-3.27,20.19-6.9,27.98-10.29,6.46,.15,13.11-.13,19.72-1.02-4.38,9.36-9.79,18.81-15.45,27.72Zm15.74-28.33c-1.75-.52-5.08-1.58-9.45-3.27,9.02-4.46,14.04-7.7,14.04-7.7-1.33,3.62-2.88,7.28-4.59,10.97Zm137.16-87.97c25.34-.31,47.98-5.72,47.98-5.72-7.68,8.11-19.79,16.02-30.45,22.12-6.27-5.23-12.22-10.72-17.54-16.39Zm46.78,37.86c-5.39-3.54-10.89-7.33-16.31-11.34,20.64-2.73,36.55-7.77,36.55-7.77-5.67,6.8-12.93,13.34-20.24,19.11Zm61.86-24.45c.05-.07,.07-.1,.07-.1l.04,.06-.12,.04Zm50.69,21.17c-3.63-5.73-7.11-11.75-10.08-17.78,4.54-.59,8.88-1.28,12.97-2.02,5.1,2.24,11.18,4.63,18.08,6.86-6.26,4.39-13.61,8.82-20.97,12.94Zm36.55-27.2c-.38-.23-.77-.45-1.15-.68,1.24-.41,1.91-.64,1.91-.64-.22,.43-.48,.88-.76,1.32Zm144.92,30.71c-9.81-5.8-20.31-12.94-27.23-20.24,0,0,23.3,5.57,49.07,5.73-9.85,7.55-19.37,13.1-21.84,14.51Zm10.77-37.66c-3.54-2.31-7.15-4.77-10.73-7.36,13.9-1.18,24.57-3.73,24.57-3.73-3.66,3.86-8.64,7.65-13.84,11.09Zm22.46,13.43c-1.77-.97-3.65-2.02-5.63-3.15,3.93-.88,7.04-1.71,9-2.26,.57,.01,1.14,.02,1.71,.03-1.57,1.83-3.28,3.63-5.08,5.38Zm75.59,6.51c-3.59-5.61-7.01-11.62-9.65-17.53,1.74-.33,3.45-.67,5.11-1.01,4.7,2.36,11.55,5.42,20.02,8.15-4.68,3.45-9.94,6.94-15.48,10.38Zm27.75-20.75c-2.27-1.32-4.5-2.67-6.63-4.03,8.05-2.29,12.72-3.95,12.72-3.95-1.26,2.51-3.35,5.2-6.09,7.98Zm214.18,21.87c-4.15,4.38-9.6,8.71-15.41,12.72-4.29-2.55-8.67-5.29-12.94-8.16,16.32-1.68,28.35-4.55,28.35-4.55Zm-45.34-12.77c-.98,.6-1.94,1.19-2.9,1.76-1.06-1.01-2.07-2.02-3.03-3.03,0,0,2.15,.51,5.93,1.27Zm18.88,73.86c-15.47-10.21-36.47-25.66-50.34-42.31,0,0,15.31,4.85,36.81,8.56-7.36,3.85-12.59,6.2-12.59,6.2,14.99,1.18,30.49-.38,43.22-2.52,7.25,.46,14.68,.61,22.08,.31-12.86,12.83-29.78,24-39.19,29.77Zm41.49-32.12c-1.25-.6-2.73-1.32-4.42-2.15,5.29-1.34,8.43-2.34,8.43-2.34-1.26,1.51-2.61,3.01-4.01,4.49Zm87.67-3.6c-2.44-4.7-4.6-9.42-6.3-14.03,0,0,5.44,3.52,15.02,7.91-2.89,2.17-5.81,4.21-8.72,6.12Zm34.75-31.33c-2.15,2.76-4.41,5.4-6.75,7.93-6.62-4.87-11.71-9.61-13.78-13.75,0,0,7.95,2.84,20.52,5.82Zm-12.74,65.57c-2.77-3.7-5.74-7.82-8.72-12.22,19.39-3.66,32.67-8.4,32.67-8.4-3.04,6.07-12.59,13.47-23.95,20.62Zm192.72,7.98c-3.34,3.52-7.79,6.99-12.49,10.18-3.54-1.86-7.53-4.05-11.67-6.49,13.7-1.19,24.16-3.69,24.16-3.69Zm-28.93-12.88c-3.72,2.42-7.33,4.61-10.65,6.54-4.61-3.36-8.86-6.9-12.26-10.48,0,0,9.42,2.25,22.91,3.93Zm7.7,59.65c-8.68-5.1-34.7-21.17-49.65-39.11,0,0,22.1,7,48.01,8.96-9.03,5.17-16.68,8.61-16.68,8.61,25.91,2.05,53.87-6.82,53.87-6.82-10.35,12.42-27.75,23.65-35.55,28.35Z"/></g></g></svg>