<?xml version="1.0" encoding="UTF-8"?><svg xmlns="http://www.w3.org/2000/svg" viewBox="0 0 1366 511.37"><defs><style>.d{fill:#1a1a1a;}</style></defs><g id="a"/><g id="b"><g id="c"><g><path class="d" d="M722.39,155.31l3.47-.06V76.59c-1.16,.08-2.31,.15-3.47,.23v14.14c-13.2,44.72-26.2,88.76-39.18,132.76,1.38-7.4,2.75-14.8,4.13-22.21-1.3-.3-2.6-.6-3.9-.9-3.7,18.79-7.4,37.58-11.1,56.37,1.51,.27,3.02,.54,4.53,.8,1.84-9.92,3.69-19.83,5.53-29.75l4.82,1.34c5.59-40.73,29.57-76.48,35.17-117.68v43.61Z"/><path class="d" d="M716.38,327.21v-65.83c-1.04-.05-2.08-.1-3.11-.15v65.88l3.11,.1Z"/><path class="d" d="M715.15,56.5l-7.91,65.16,4.64,.59c2.88-21.87,5.77-43.74,8.65-65.61-1.79-.04-3.59-.09-5.38-.13Z"/><path class="d" d="M698.39,5.01c-.67,.08-1.35,.16-2.02,.24v58.81c.67-.06,1.35-.11,2.02-.17V5.01Z"/><path class="d" d="M691.88,168.52l23.3-135.31,2.96,.35c1.31,3.13,2.63,6.26,3.94,9.38l3.91-.8c-.78-13.94-1.56-27.89-2.34-41.83l-3.94,.16V17.77c-2.65-6.98-4.32-11.4-6.48-17.09-8.65,57.04-17.01,112.13-25.37,167.22,1.34,.21,2.68,.41,4.03,.62Z"/><path class="d" d="M692.72,48.89c-2.2-13.75-4.4-27.51-6.6-41.26-1.92,.33-3.83,.67-5.75,1,2.35,13.73,4.71,27.46,7.06,41.19,1.76-.31,3.53-.62,5.29-.93Z"/><path class="d" d="M745.92,189.78c.73-1.28,1.93-2.5,2.11-3.86,6.51-48.67,12.9-97.36,19.4-146.04,.59-4.43,.39-10.05,2.99-12.92,8.86-9.79,2.72-17.74-2.53-26.29-8.48,62.94-16.96,125.89-25.45,188.83,1.16,.09,2.31,.19,3.47,.28Z"/><path class="d" d="M754.6,1.31c-1.11,.02-2.23,.05-3.34,.07V87.73c1.11,.05,2.23,.1,3.34,.15V1.31Z"/><path class="d" d="M743.07,.86c-.89,.02-1.78,.04-2.67,.06V67.15c.89-.02,1.78-.03,2.67-.05V.86Z"/><path class="d" d="M724.54,243.19c1.89-51.4,26.85-99.19,22.02-151.65-5.49,24.82-11.66,49.41-16.24,74.29-4.67,25.37-7.79,51.04-11.59,76.57,1.94,.26,3.87,.52,5.81,.79Z"/><path class="d" d="M734.35,56.79c-.98,.05-1.97,.11-2.95,.16v79.22l2.95-.16V56.79Z"/><path class="d" d="M619.48,198.72c-3.6,21.8-7.2,43.6-10.81,65.4,1.38,.42,2.76,.84,4.14,1.26,3.64-21.98,7.29-43.96,10.93-65.94-1.42-.24-2.85-.48-4.27-.71Z"/><path class="d" d="M602.58,247.89c-1.63-.21-3.25-.42-4.88-.64l-5.36,76.79c1.74,.14,3.48,.28,5.21,.42,1.68-25.53,3.35-51.05,5.03-76.58Z"/><path class="d" d="M675.66,31.48V113.5l4.21-.02c4.01-27.58,4.35-55.01-4.21-81.99Z"/><path class="d" d="M636.25,209.83c-1.34-.34-2.68-.69-4.02-1.03-13.75,53.85-27.5,107.71-41.25,161.56,1.6,.43,3.2,.87,4.8,1.3,13.49-53.94,26.98-107.89,40.47-161.83Z"/><path class="d" d="M770.5,81.69l-8.18,63.01c.88,.18,1.76,.36,2.65,.55,3.44-12.54,6.88-25.08,10.32-37.62-.04,.14-.11,.4-.14,.45-.6-8.74-1.17-17.54-1.74-26.35l-2.91-.05Z"/><path class="d" d="M626.88,122.16c1.36,.37,2.72,.74,4.08,1.11,2.82-20.7,5.64-41.4,8.46-62.09l-4.29-.59c-2.75,20.52-5.5,41.05-8.25,61.57Z"/><path class="d" d="M598.48,181.76c-4.04,24.72-8.08,49.43-12.13,74.15,1.59,.25,3.18,.51,4.77,.76,4-24.97,8-49.94,12-74.91-1.55,0-3.09,0-4.64,0Z"/><path class="d" d="M639.27,247.03c4.25-45.2,8.51-90.4,12.76-135.59-1.48-.15-2.97-.29-4.46-.43-4.24,45.19-8.47,90.37-12.71,135.56l4.41,.47Z"/><path class="d" d="M663.85,192.01c-.03,1.01-.24,2.8,.13,2.94,15.03,5.72,2.3,15.52,3.19,23.23,.48,4.13-1.59,8.55-2.98,15.06,11.27-13.71,18.9-60.19,14.47-81.32-1.35,3.32-2.55,6.23-4.25,10.4v-50.45c-.69-.09-1.39-.18-2.08-.27-2.74,25.78-5.49,51.55-8.23,77.33-.11,1.02-.23,2.04-.26,3.07Z"/><path class="d" d="M671.58,94.64c-1.38-26.54-2.75-53.07-4.13-79.61-1.7,0-3.4,.02-5.1,.02,1.37,26.61,2.74,53.23,4.11,79.84,1.71-.09,3.41-.17,5.12-.26Z"/><path class="d" d="M658.1,3.52l-3.42-.08V99.49c1.14,.03,2.28,.07,3.42,.1V3.52Z"/><path class="d" d="M604.48,230.85c1.42-4.83,2.77-9.69,4.27-14.5,5.33-17.12,7.72-36.04,16.74-50.93,14.21-23.45,13.04-48.84,17.27-73.58-13.95,45.97-27.91,91.95-41.86,137.92,1.19,.36,2.39,.73,3.58,1.09Z"/><path class="d" d="M831.67,322.39c6.92-26.03,15.92-51.5,23.08-77.47,2.03-7.34,8.54-16.24-2.06-23.4-1.42-.96-.2-5.85-.2-8.92-.71-.04-1.42-.07-2.14-.11-3.98,28.68-7.96,57.36-11.94,86.05-1.18-.07-2.36-.14-3.53-.21-1.19-1.92-2.38-3.85-4.9-7.93-3.6,27.95-6.84,53.04-10.07,78.13l3.73,.49c2.59-15.56,3.99-31.44,8.03-46.62Z"/><path class="d" d="M865.88,284.77l5.05-.05c1.36-25.05,2.72-50.1,4.08-75.14-1.39-.06-2.78-.12-4.17-.18-1.65,25.12-3.31,50.25-4.96,75.37Z"/><path class="d" d="M800.52,247.32l3.02,.41c7-22.34,14-44.68,21-67.02,1.03,.19,2.06,.39,3.08,.58-.72,10.83-1.43,21.65-2.15,32.48,1.24,.17,2.48,.33,3.72,.5,4.43-31.34,8.86-62.68,13.9-98.39-13.31,19.16-8.4,38.52-20.51,55.78-14.29,20.35-15.3,50.03-22.07,75.67Z"/><path class="d" d="M818.02,216.22c-3.46,21.37-6.93,42.73-10.39,64.1,1.51,.35,3.01,.7,4.52,1.06,3.5-21.47,7.01-42.94,10.51-64.41l-4.63-.75Z"/><path class="d" d="M824.6,144.82c1.48,.22,2.96,.44,4.44,.67,3.05-20.85,6.1-41.69,9.15-62.54-1.66-.38-3.32-.76-4.98-1.13-2.87,21-5.74,42-8.6,63.01Z"/><path class="d" d="M796.16,264.44c-1.6,25.12-3.21,50.23-4.81,75.35,1.93,.1,3.87,.2,5.8,.29,1.39-25.14,2.78-50.29,4.18-75.43-1.72-.07-3.45-.14-5.17-.22Z"/><path class="d" d="M868.62,28.66c-2.56,14.44,14.44,22.36,11.31,37.79-2.43,11.98-.48,24.85-.48,37.32,3.48-29.61,13.43-60.24-11.59-89.72,.43,7.1,1.4,10.99,.76,14.6Z"/><path class="d" d="M891.21,8.25c-1.01-.07-2.02-.13-3.02-.2V84.89c1.01-.04,2.02-.07,3.02-.11V8.25Z"/><path class="d" d="M795.31,385.2c13.1-51.88,26.2-103.76,39.3-155.64-1.48-.37-2.96-.74-4.43-1.11-13.42,51.93-26.83,103.86-40.25,155.79,1.8,.32,3.59,.65,5.39,.97Z"/><path class="d" d="M818.89,114.82c-3.2,25.34-9.86,50.25-14.99,75.35l4.17,.98c.96-2.13,2.42-4.17,2.8-6.4,6.38-37.89,12.63-75.81,18.9-113.72,.42-2.54-.11-5.71,1.23-7.55,12.59-17.31-.74-32.57-1.31-48.79-2.01,.16-4.02,.31-6.04,.47,.28,5.09,1.06,10.22,.77,15.28-1.57,28.16-2.01,56.47-5.53,84.39Z"/><path class="d" d="M851.51,194.9c-.48,1.74,.26,3.82,.44,5.74l3.19,.39c4.23-28.36,8.45-56.71,12.68-85.07,1.55,2.64,1.37,5.17,1.6,7.65,.25,2.72,.89,5.4,1.55,9.25,10.39-37.93,1.76-72.53-12.52-106.61l4.79,62.64c.92,.01,1.84,.03,2.77,.04,.83-3.12,1.66-6.23,2.49-9.35,1.22,.32,2.44,.65,3.66,.97-4.28,17.06-8.55,34.11-12.83,51.17-.53,.02-1.06,.03-1.6,.05-1.85-36.02-3.69-72.04-5.54-108.06-2.6,25.54-3.7,50.96-2.32,76.24,1.73,31.65,10.52,63.09,1.63,94.94Z"/><path class="d" d="M803.69,63.75c.23,3.35,.45,6.7,.68,10.04,1.66-.11,3.33-.23,4.99-.34-.98-15.05-1.97-30.09-2.95-45.14-.91-.04-1.81-.08-2.72-.12V.09c-1.61,.02-3.22,.04-4.83,.06V79.31l4.83,.09v-15.65Z"/><path class="d" d="M749.98,281.41c3.53-21.69,7.06-43.38,10.59-65.06l-4.8-.78c-3.47,21.51-6.94,43.01-10.41,64.52,1.54,.44,3.08,.88,4.62,1.33Z"/><path class="d" d="M734.7,198.38c-3.87,24.68-7.74,49.36-11.61,74.04,1.75,.25,3.51,.51,5.26,.76l11.19-74.1c-1.61-.23-3.23-.47-4.84-.7Z"/><path class="d" d="M758.34,165.86c-6.26,27.01-12.53,54.02-18.79,81.03,1.17,.26,2.34,.53,3.51,.79,6.71-26.92,13.41-53.83,20.12-80.75-1.61-.36-3.23-.71-4.84-1.07Z"/><path class="d" d="M775.29,107.64l.03-.1-.03,.1Z"/><path class="d" d="M768.47,178.97c3.89-21.33,7.94-42.63,11.41-64.03,.32-1.98-2.98-4.55-4.64-6.86-3.55,23.39-7.1,46.78-10.65,70.17,1.29,.24,2.59,.48,3.88,.71Z"/><path class="d" d="M732.95,385.14c12.93-50.55,25.87-101.11,38.8-151.66,.75,.14,1.51,.28,2.26,.42-.71,10.41-1.42,20.82-2.13,31.24,1.35,.1,2.7,.2,4.05,.3,4.15-44.27,8.31-88.53,12.46-132.8-1.89-.22-3.79-.44-5.68-.65,.71,88.12-42,166.71-49.77,253.17Z"/><path class="d" d="M791.63,169.72c-1.23,3.88-1.54,8.1-1.86,12.19-.31,3.99-.07,8.02-.07,12.04,1.31,.05,2.62,.1,3.93,.15,4.18-32.16,8.35-64.32,12.53-96.49-1.5-.22-2.99-.45-4.49-.67-1.39,8.54-2.78,17.07-4.17,25.61-.5-.07-1-.14-1.5-.22-1.68-40.56-3.35-81.11-5.03-121.67-1.13-.01-2.26-.02-3.39-.03-.72,4.73-2.16,9.48-2.05,14.19,.64,28.17,1.96,56.32,2.41,84.49,.37,23.52,11.27,46.45,3.68,70.41Z"/><path class="d" d="M775.24,108.08l.08-.54-.13,.48s.03,.04,.05,.06Z"/><path class="d" d="M739.12,264.04l-5.09-.17c-1.53,25.03-3.05,50.06-4.58,75.1,1.89,.09,3.78,.19,5.67,.28,1.33-25.07,2.67-50.14,4-75.21Z"/><path class="d" d="M815.99,15.86l-2.25,.2V88.54c.75-.2,1.5-.4,2.25-.6V15.86Z"/><path class="d" d="M838.11,271.06c4.07-43.16,8.14-86.33,12.2-129.49-1.6-.15-3.2-.3-4.8-.46-4.19,43.02-8.37,86.04-12.56,129.06,1.72,.3,3.44,.59,5.16,.89Z"/><path class="d" d="M433.07,216.22c-3.46,21.37-6.93,42.73-10.39,64.1,1.51,.35,3.01,.7,4.52,1.06,3.5-21.47,7.01-42.94,10.51-64.41-1.54-.25-3.09-.5-4.63-.75Z"/><path class="d" d="M446.72,322.39c6.92-26.03,15.92-51.5,23.08-77.47,2.03-7.34,8.54-16.24-2.06-23.4-1.42-.96-.2-5.85-.2-8.92-.71-.04-1.42-.07-2.14-.11-3.98,28.68-7.96,57.36-11.94,86.05-1.18-.07-2.36-.14-3.53-.21-1.19-1.92-2.38-3.85-4.9-7.93-3.6,27.95-6.84,53.04-10.07,78.13l3.73,.49c2.59-15.56,3.99-31.44,8.03-46.62Z"/><path class="d" d="M453.16,271.06c4.07-43.16,8.14-86.33,12.2-129.49-1.6-.15-3.2-.3-4.8-.46-4.19,43.02-8.37,86.04-12.56,129.06,1.72,.3,3.44,.59,5.16,.89Z"/><path class="d" d="M439.65,144.82c1.48,.22,2.96,.44,4.44,.67,3.05-20.85,6.1-41.69,9.15-62.54-1.66-.38-3.32-.76-4.98-1.13-2.87,21-5.74,42-8.6,63.01Z"/><path class="d" d="M415.56,247.32c1.01,.14,2.01,.27,3.02,.41,7-22.34,14-44.68,21-67.02,1.03,.19,2.06,.39,3.08,.58-.72,10.83-1.43,21.65-2.15,32.48,1.24,.17,2.48,.33,3.72,.5,4.43-31.34,8.86-62.68,13.9-98.39-13.31,19.16-8.4,38.52-20.51,55.78-14.29,20.35-15.3,50.03-22.07,75.67Z"/><path class="d" d="M433.93,114.82c-3.2,25.34-9.86,50.25-14.99,75.35l4.17,.98c.96-2.13,2.42-4.17,2.8-6.4,6.38-37.89,12.63-75.81,18.9-113.72,.42-2.54-.11-5.71,1.23-7.55,12.59-17.31-.74-32.57-1.31-48.79-2.01,.16-4.02,.31-6.04,.47,.28,5.09,1.06,10.22,.77,15.28-1.57,28.16-2.01,56.47-5.53,84.39Z"/><path class="d" d="M480.92,284.77l5.05-.05c1.36-25.05,2.72-50.1,4.08-75.14-1.39-.06-2.78-.12-4.17-.18-1.65,25.12-3.31,50.25-4.96,75.37Z"/><path class="d" d="M506.26,8.25c-1.01-.07-2.02-.13-3.02-.2V84.89c1.01-.04,2.02-.07,3.02-.11V8.25Z"/><path class="d" d="M410.35,385.2c13.1-51.88,26.2-103.76,39.3-155.64-1.48-.37-2.96-.74-4.43-1.11-13.42,51.93-26.83,103.86-40.25,155.79,1.8,.32,3.59,.65,5.39,.97Z"/><path class="d" d="M466.55,194.9c-.48,1.74,.26,3.82,.44,5.74l3.19,.39c4.23-28.36,8.45-56.71,12.68-85.07,1.55,2.64,1.37,5.17,1.6,7.65,.25,2.72,.89,5.4,1.55,9.25,10.39-37.93,1.76-72.53-12.52-106.61l4.79,62.64c.92,.01,1.84,.03,2.77,.04,.83-3.12,1.66-6.23,2.49-9.35,1.22,.32,2.44,.65,3.66,.97-4.28,17.06-8.55,34.11-12.83,51.17-.53,.02-1.06,.03-1.6,.05-1.85-36.02-3.69-72.04-5.54-108.06-2.6,25.54-3.7,50.96-2.32,76.24,1.73,31.65,10.52,63.09,1.63,94.94Z"/><path class="d" d="M411.2,264.44c-1.6,25.12-3.21,50.23-4.81,75.35,1.93,.1,3.87,.2,5.8,.29,1.39-25.14,2.78-50.29,4.18-75.43-1.72-.07-3.45-.14-5.17-.22Z"/><path class="d" d="M483.66,28.66c-2.56,14.44,14.44,22.36,11.31,37.79-2.43,11.98-.48,24.85-.48,37.32,3.48-29.61,13.43-60.24-11.59-89.72,.43,7.1,1.4,10.99,.76,14.6Z"/><path class="d" d="M365.03,281.41c3.53-21.69,7.06-43.38,10.59-65.06l-4.8-.78c-3.47,21.51-6.94,43.01-10.41,64.52,1.54,.44,3.08,.88,4.62,1.33Z"/><path class="d" d="M373.39,165.86c-6.26,27.01-12.53,54.02-18.79,81.03,1.17,.26,2.34,.53,3.51,.79,6.71-26.92,13.41-53.83,20.12-80.75-1.61-.36-3.23-.71-4.84-1.07Z"/><path class="d" d="M383.52,178.97c3.89-21.33,7.94-42.63,11.41-64.03,.32-1.98-2.98-4.55-4.64-6.86-3.55,23.39-7.1,46.78-10.65,70.17,1.29,.24,2.59,.48,3.88,.71Z"/><path class="d" d="M349.75,198.38c-3.87,24.68-7.74,49.36-11.61,74.04,1.75,.25,3.51,.51,5.26,.76l11.19-74.1c-1.61-.23-3.23-.47-4.84-.7Z"/><path class="d" d="M390.34,107.64l.03-.1-.03,.1Z"/><path class="d" d="M418.74,63.75c.23,3.35,.45,6.7,.68,10.04,1.66-.11,3.33-.23,4.99-.34-.98-15.05-1.97-30.09-2.95-45.14-.91-.04-1.81-.08-2.72-.12V.09c-1.61,.02-3.22,.04-4.83,.06V79.31l4.83,.09v-15.65Z"/><path class="d" d="M406.68,169.72c-1.23,3.88-1.54,8.1-1.86,12.19-.31,3.99-.07,8.02-.07,12.04,1.31,.05,2.62,.1,3.93,.15,4.18-32.16,8.35-64.32,12.53-96.49-1.5-.22-2.99-.45-4.49-.67-1.39,8.54-2.78,17.07-4.17,25.61-.5-.07-1-.14-1.5-.22-1.68-40.56-3.35-81.11-5.03-121.67-1.13-.01-2.26-.02-3.39-.03-.72,4.73-2.16,9.48-2.05,14.19,.64,28.17,1.96,56.32,2.41,84.49,.37,23.52,11.27,46.45,3.68,70.41Z"/><path class="d" d="M431.03,15.86l-2.25,.2V88.54c.75-.2,1.5-.4,2.25-.6V15.86Z"/><path class="d" d="M347.99,385.14c12.93-50.55,25.87-101.11,38.8-151.66,.75,.14,1.51,.28,2.26,.42-.71,10.41-1.42,20.82-2.13,31.24,1.35,.1,2.7,.2,4.05,.3,4.15-44.27,8.31-88.53,12.46-132.8-1.89-.22-3.79-.44-5.68-.65,.71,88.12-42,166.71-49.77,253.17Z"/><path class="d" d="M354.16,264.04l-5.1-.17-4.58,75.1c1.89,.09,3.78,.19,5.67,.28,1.33-25.07,2.67-50.14,4-75.21Z"/><path class="d" d="M566.37,221.73c-1.33-.24-2.66-.48-3.99-.72-3.23,16.14-6.46,32.27-9.69,48.41,1.71,.31,3.42,.62,5.13,.93,2.85-16.21,5.7-32.42,8.54-48.62Z"/><path class="d" d="M555.17,295.31c1.56,.65,3.12,1.3,4.68,1.96l14.01-40.88c1.79,.22,3.58,.45,5.38,.67-3.2,24.06-6.4,48.12-10.03,75.44,15.59-30.02,12.66-58.94,12.09-92.18-18.72,17.39-16.18,38.91-26.14,54.99Z"/><path class="d" d="M538.89,238.44c-3.63,26.12-6.98,50.21-10.33,74.29,.68,.1,1.37,.2,2.05,.31l38.19-140.29c-1.18-.31-2.36-.62-3.54-.93,2.59-15.64,5.19-31.28,7.78-46.92l-3.79-.63c-3.25,16.08-6.5,32.17-9.75,48.25l4.47,.7c-6.51,23.99-13.03,48-19.86,73.15-2.17-3.29-3.41-5.18-5.22-7.93Z"/><path class="d" d="M580.88,89.21c-.96-.01-1.92-.02-2.88-.03v69.7c.96-.03,1.92-.06,2.88-.09V89.21Z"/><path class="d" d="M612.52,161.63c6.27-39.42,12.43-78.86,18.63-118.29,.56-3.55,1.12-7.11,1.79-10.64,1.79-9.4,3.64-18.78,5.47-28.17-1.72-.18-3.44-.37-5.16-.55-8.8,55.09-17.59,110.18-26.39,165.27,3.93-2.12,5.21-4.8,5.66-7.62Z"/><path class="d" d="M610.71,74.99c-5.69,23.76-13.42,51.66-18.83,80.01-4.39,23.02-5.97,46.58-8.8,69.9,1.32,.19,2.65,.38,3.97,.57,4.27-52.31,27.11-101.58,23.65-150.48Z"/><path class="d" d="M560.85,118.65c1.52,.23,3.04,.47,4.55,.7,2.95-20.32,5.9-40.64,8.85-60.96-1.43-.18-2.85-.36-4.28-.54-3.04,20.26-6.08,40.53-9.13,60.79Z"/><path class="d" d="M593.93,134.25c-1.66-26.56-3.33-53.11-4.99-79.67l-4.45,.53c1.58,26.5,3.15,52.99,4.73,79.49l4.71-.35Z"/><path class="d" d="M611.86,50.17l-7.29-46.98c-1.6,.27-3.2,.55-4.8,.82,2.41,15.66,4.82,31.32,7.24,46.98l4.86-.82Z"/><path class="d" d="M618.27,2.64c-.62,.05-1.23,.1-1.85,.15v61.66c.62-.05,1.23-.1,1.85-.14V2.64Z"/><path class="d" d="M494.81,188.35c8.97-48.69,17.95-97.38,26.92-146.07-1.59-.29-3.19-.59-4.78-.88-9.16,48.66-18.33,97.33-27.49,145.99,1.78,.32,3.57,.64,5.35,.96Z"/><path class="d" d="M599.02,35.1l-3.45,.41V115.49c1.15-.02,2.3-.04,3.45-.06V35.1Z"/><path class="d" d="M493.91,218.94c1.63,.27,3.26,.54,4.89,.82,3.95-24.11,7.9-48.23,11.86-72.34l-4.63-.78c-4.04,24.1-8.07,48.2-12.11,72.3Z"/><path class="d" d="M571.84,8.91h-2.94V42.99c.98-.03,1.96-.07,2.94-.1V8.91Z"/><path class="d" d="M510.16,211.98l-5.06-.49c-1.64,24.14-3.28,48.28-4.93,72.42l5.28,.41c1.57-24.11,3.14-48.22,4.71-72.33Z"/><path class="d" d="M525.74,2l-2.42-.03V37.04l2.42,.03V2Z"/><path class="d" d="M517.83,137.98c7.95-43.04,15.91-86.09,24.53-132.76,3.49,6.46,5.21,9.63,8.75,16.19V.66c-5.34-.26-9.76-.48-13.58-.66-8.04,46.31-15.9,91.62-23.76,136.92,1.35,.35,2.7,.71,4.05,1.06Z"/><path class="d" d="M520.41,228.55c3.59-21.32,7.19-42.65,10.78-63.97-1.46-.24-2.92-.48-4.39-.72-3.58,21.2-7.17,42.39-10.75,63.58,1.45,.37,2.9,.74,4.35,1.1Z"/><path class="d" d="M542.12,32.04c-2.74,19.91-5.48,39.81-8.22,59.72,1.49,.31,2.97,.61,4.46,.92,2.71-20.01,5.41-40.01,8.12-60.02-1.45-.21-2.9-.41-4.35-.62Z"/><path class="d" d="M566.7,79.41c-1.55-25.83-3.11-51.66-4.66-77.49-1.38,.05-2.76,.11-4.14,.16-3.07,26.05,2.66,51.71,4.22,77.55,1.53-.07,3.05-.15,4.58-.22Z"/><path class="d" d="M503.62,329.47c12.7-48.63,25.4-97.26,38.1-145.88l2.75,.41v27.02c.87-.06,1.73-.12,2.6-.18,4.01-42.91,8.02-85.82,12.02-128.73-1.76-.3-3.52-.59-5.29-.89,1.49,86.82-42.31,163.42-50.19,248.26Z"/><path class="d" d="M509.08,194.19l4.02,1.08c6.65-45.65,39.28-83.78,36.82-130.57-7.23,20.73-15.2,41.95-22.01,63.53-6.88,21.8-12.6,43.96-18.83,65.96Z"/><path class="d" d="M1258.32,28.66c-2.56,14.44,14.44,22.36,11.31,37.79-2.43,11.98-.48,24.85-.48,37.32,3.48-29.61,13.43-60.24-11.59-89.72,.43,7.1,1.4,10.99,.76,14.6Z"/><path class="d" d="M1227.82,271.06l12.21-129.49c-1.6-.15-3.2-.3-4.8-.46-4.19,43.02-8.37,86.04-12.56,129.06,1.72,.3,3.44,.59,5.16,.89Z"/><path class="d" d="M1190.22,247.32c1.01,.14,2.01,.27,3.02,.41,7-22.34,14-44.68,21-67.02,1.03,.19,2.06,.39,3.08,.58-.72,10.83-1.43,21.65-2.15,32.48,1.24,.17,2.48,.33,3.72,.5,4.43-31.34,8.86-62.68,13.9-98.39-13.31,19.16-8.4,38.52-20.51,55.78-14.29,20.35-15.3,50.03-22.07,75.67Z"/><path class="d" d="M1221.38,322.39c6.92-26.03,15.92-51.5,23.08-77.47,2.03-7.34,8.54-16.24-2.06-23.4-1.42-.96-.2-5.85-.2-8.92-.71-.04-1.42-.07-2.14-.11-3.98,28.68-7.96,57.36-11.94,86.05-1.18-.07-2.36-.14-3.53-.21-1.19-1.92-2.38-3.85-4.9-7.93-3.6,27.95-6.84,53.04-10.07,78.13l3.73,.49c2.59-15.56,3.99-31.44,8.03-46.62Z"/><path class="d" d="M1208.59,114.82c-3.2,25.34-9.86,50.25-14.99,75.35,1.39,.33,2.78,.65,4.17,.98,.96-2.13,2.42-4.17,2.8-6.4,6.38-37.89,12.63-75.81,18.9-113.72,.42-2.54-.11-5.71,1.23-7.55,12.59-17.31-.74-32.57-1.31-48.79-2.01,.16-4.02,.31-6.04,.47,.28,5.09,1.06,10.22,.77,15.28-1.57,28.16-2.01,56.47-5.53,84.39Z"/><path class="d" d="M1214.31,144.82c1.48,.22,2.96,.44,4.44,.67,3.05-20.85,6.1-41.69,9.15-62.54-1.66-.38-3.32-.76-4.98-1.13-2.87,21-5.74,42-8.6,63.01Z"/><path class="d" d="M1185.86,264.44l-4.81,75.35c1.93,.1,3.87,.2,5.8,.29,1.39-25.14,2.78-50.29,4.18-75.43-1.72-.07-3.45-.14-5.17-.22Z"/><path class="d" d="M1160.21,81.69l-8.18,63.01c.88,.18,1.76,.36,2.65,.55l10.32-37.62c-.04,.14-.11,.4-.14,.45-.6-8.74-1.17-17.54-1.74-26.35l-2.91-.05Z"/><path class="d" d="M1207.73,216.22c-3.46,21.37-6.93,42.73-10.39,64.1,1.51,.35,3.01,.7,4.52,1.06,3.5-21.47,7.01-42.94,10.51-64.41-1.54-.25-3.09-.5-4.63-.75Z"/><path class="d" d="M390.28,108.08l.08-.54-.13,.48s.03,.04,.05,.06Z"/><path class="d" d="M1205.69,15.86l-2.25,.2V88.54c.75-.2,1.5-.4,2.25-.6V15.86Z"/><path class="d" d="M1185.01,385.2c13.1-51.88,26.2-103.76,39.3-155.64-1.48-.37-2.96-.74-4.43-1.11l-40.25,155.79c1.8,.32,3.59,.65,5.39,.97Z"/><path class="d" d="M1128.82,264.04l-5.09-.17c-1.53,25.03-3.05,50.06-4.58,75.1,1.89,.09,3.78,.19,5.67,.28,1.33-25.07,2.67-50.14,4-75.21Z"/><path class="d" d="M1139.69,281.41c3.53-21.69,7.06-43.38,10.59-65.06l-4.8-.78c-3.47,21.51-6.94,43.01-10.41,64.52l4.62,1.33Z"/><path class="d" d="M1165,107.64l.03-.1-.03,.1Z"/><path class="d" d="M1148.05,165.86c-6.26,27.01-12.53,54.02-18.79,81.03,1.17,.26,2.34,.53,3.51,.79,6.71-26.92,13.41-53.83,20.12-80.75-1.61-.36-3.23-.71-4.84-1.07Z"/><path class="d" d="M1158.18,178.97c3.89-21.33,7.94-42.63,11.41-64.03,.32-1.98-2.98-4.55-4.64-6.86-3.55,23.39-7.1,46.78-10.65,70.17,1.29,.24,2.59,.48,3.88,.71Z"/><path class="d" d="M1164.94,108.08c.03-.18,.05-.36,.08-.54l-.13,.48s.03,.04,.05,.06Z"/><path class="d" d="M1181.34,169.72c-1.23,3.88-1.54,8.1-1.86,12.19-.31,3.99-.07,8.02-.07,12.04,1.31,.05,2.62,.1,3.93,.15,4.18-32.16,8.35-64.32,12.53-96.49-1.5-.22-2.99-.45-4.49-.67-1.39,8.54-2.78,17.07-4.17,25.61-.5-.07-1-.14-1.5-.22-1.68-40.56-3.35-81.11-5.03-121.67-1.13-.01-2.26-.02-3.39-.03-.72,4.73-2.16,9.48-2.05,14.19,.64,28.17,1.96,56.32,2.41,84.49,.37,23.52,11.27,46.45,3.68,70.41Z"/><path class="d" d="M1122.66,385.14c12.93-50.55,25.87-101.11,38.8-151.66,.75,.14,1.51,.28,2.26,.42-.71,10.41-1.42,20.82-2.13,31.24,1.35,.1,2.7,.2,4.05,.3,4.15-44.27,8.31-88.53,12.46-132.8-1.89-.22-3.79-.44-5.68-.65,.71,88.12-42,166.71-49.77,253.17Z"/><path class="d" d="M1124.41,198.38c-3.87,24.68-7.74,49.36-11.61,74.04,1.75,.25,3.51,.51,5.26,.76l11.19-74.1c-1.61-.23-3.23-.47-4.84-.7Z"/><path class="d" d="M1193.4,63.75l.68,10.04c1.66-.11,3.33-.23,4.99-.34-.98-15.05-1.97-30.09-2.95-45.14-.91-.04-1.81-.08-2.72-.12V.09c-1.61,.02-3.22,.04-4.83,.06V79.31l4.83,.09v-15.65Z"/><path class="d" d="M1280.92,8.25c-1.01-.07-2.02-.13-3.02-.2V84.89c1.01-.04,2.02-.07,3.02-.11V8.25Z"/><path class="d" d="M1241.21,194.9c-.48,1.74,.26,3.82,.44,5.74,1.06,.13,2.13,.26,3.19,.39,4.23-28.36,8.45-56.71,12.68-85.07,1.55,2.64,1.37,5.17,1.6,7.65,.25,2.72,.89,5.4,1.55,9.25,10.39-37.93,1.76-72.53-12.52-106.61,1.6,20.88,3.2,41.76,4.79,62.64,.92,.01,1.84,.03,2.77,.04,.83-3.12,1.66-6.23,2.49-9.35,1.22,.32,2.44,.65,3.66,.97-4.28,17.06-8.55,34.11-12.83,51.17-.53,.02-1.06,.03-1.6,.05l-5.54-108.06c-2.6,25.54-3.7,50.96-2.32,76.24,1.73,31.65,10.52,63.09,1.63,94.94Z"/><path class="d" d="M1329.83,295.31c1.56,.65,3.12,1.3,4.68,1.96,4.67-13.63,9.34-27.25,14.01-40.88,1.79,.22,3.58,.45,5.38,.67-3.2,24.06-6.4,48.12-10.03,75.44,15.59-30.02,12.66-58.94,12.09-92.18-18.72,17.39-16.18,38.91-26.14,54.99Z"/><path class="d" d="M1341.03,221.73c-1.33-.24-2.66-.48-3.99-.72-3.23,16.14-6.46,32.27-9.69,48.41,1.71,.31,3.42,.62,5.13,.93,2.85-16.21,5.7-32.42,8.54-48.62Z"/><path class="d" d="M1313.55,238.44c-3.63,26.12-6.98,50.21-10.33,74.29,.68,.1,1.37,.2,2.05,.31l38.19-140.29c-1.18-.31-2.36-.62-3.54-.93,2.59-15.64,5.19-31.28,7.78-46.92-1.26-.21-2.52-.42-3.79-.63-3.25,16.08-6.5,32.17-9.75,48.25l4.47,.7c-6.51,23.99-13.03,48-19.86,73.15-2.17-3.29-3.41-5.18-5.22-7.93Z"/><path class="d" d="M1255.58,284.77l5.05-.05c1.36-25.05,2.72-50.1,4.08-75.14-1.39-.06-2.78-.12-4.17-.18-1.65,25.12-3.31,50.25-4.96,75.37Z"/><path class="d" d="M1355.54,89.21c-.96-.01-1.92-.02-2.88-.03v69.7c.96-.03,1.92-.06,2.88-.09V89.21Z"/><path class="d" d="M1365.78,256.67l.22-1.34v-29.88c-1.66,10.16-3.32,20.31-4.98,30.47,1.59,.25,3.18,.51,4.77,.76Z"/><path class="d" d="M1366,370.45v-1.48c-.12,.46-.24,.92-.35,1.38,.12,.03,.24,.06,.35,.1Z"/><path class="d" d="M1366,195.27v-37.27c-3.97,22.07-5.54,44.59-8.25,66.9,1.32,.19,2.65,.38,3.97,.57,.83-10.18,2.37-20.23,4.27-30.2Z"/><path class="d" d="M1346.5,8.91h-2.94V42.99c.98-.03,1.96-.07,2.94-.1V8.91Z"/><path class="d" d="M1366,134.44v-41.65c-.8-12.74-1.6-25.47-2.39-38.21l-4.45,.53c1.58,26.5,3.15,52.99,4.73,79.49,.7-.05,1.41-.1,2.11-.16Z"/><path class="d" d="M1366,402.9c-.44,1.46-.87,2.92-1.3,4.37,.44,.19,.87,.38,1.3,.57v-4.94Z"/><path class="d" d="M1335.51,118.65c1.52,.23,3.04,.47,4.55,.7,2.95-20.32,5.9-40.64,8.85-60.96-1.43-.18-2.85-.36-4.28-.54-3.04,20.26-6.08,40.53-9.13,60.79Z"/><path class="d" d="M1268.57,218.94c1.63,.27,3.26,.54,4.89,.82,3.95-24.11,7.9-48.23,11.86-72.34-1.55-.26-3.09-.52-4.64-.78-4.04,24.1-8.07,48.2-12.11,72.3Z"/><path class="d" d="M1292.49,137.98c7.95-43.04,15.91-86.09,24.53-132.76,3.49,6.46,5.21,9.63,8.75,16.19V.66c-5.34-.26-9.76-.48-13.58-.66-8.04,46.31-15.9,91.62-23.76,136.92,1.35,.35,2.7,.71,4.05,1.06Z"/><path class="d" d="M1341.36,79.41c-1.55-25.83-3.11-51.66-4.66-77.49-1.38,.05-2.76,.11-4.14,.16-3.07,26.05,2.66,51.71,4.22,77.55,1.53-.07,3.05-.15,4.58-.22Z"/><path class="d" d="M1269.47,188.35c8.97-48.69,17.95-97.38,26.92-146.07-1.59-.29-3.19-.59-4.78-.88-9.16,48.66-18.33,97.33-27.49,145.99,1.78,.32,3.57,.64,5.35,.96Z"/><path class="d" d="M1300.4,2l-2.42-.03V37.04l2.42,.03V2Z"/><path class="d" d="M1284.82,211.98l-5.06-.49c-1.64,24.14-3.28,48.28-4.93,72.42l5.28,.41c1.57-24.11,3.14-48.22,4.71-72.33Z"/><path class="d" d="M1283.74,194.19c1.34,.36,2.68,.72,4.02,1.08,6.65-45.65,39.28-83.78,36.82-130.57-7.23,20.73-15.2,41.95-22.01,63.53-6.88,21.8-12.6,43.96-18.83,65.96Z"/><path class="d" d="M1295.07,228.55c3.59-21.32,7.19-42.65,10.78-63.97-1.46-.24-2.92-.48-4.39-.72-3.58,21.2-7.17,42.39-10.75,63.58,1.45,.37,2.9,.74,4.35,1.1Z"/><path class="d" d="M1278.28,329.47c12.7-48.63,25.4-97.26,38.1-145.88,.92,.14,1.83,.27,2.75,.41v27.02c.87-.06,1.73-.12,2.6-.18,4.01-42.91,8.02-85.82,12.02-128.73-1.76-.3-3.52-.59-5.29-.89,1.49,86.82-42.31,163.42-50.19,248.26Z"/><path class="d" d="M1316.78,32.04c-2.74,19.91-5.48,39.81-8.22,59.72,1.49,.31,2.97,.61,4.46,.92,2.71-20.01,5.41-40.01,8.12-60.02-1.45-.21-2.9-.41-4.35-.62Z"/><path class="d" d="M1124.06,56.79c-.98,.05-1.97,.11-2.95,.16v79.22l2.95-.16V56.79Z"/><path class="d" d="M923.84,238.44c-3.63,26.12-6.98,50.21-10.33,74.29,.68,.1,1.37,.2,2.05,.31l38.19-140.29c-1.18-.31-2.36-.62-3.54-.93,2.59-15.64,5.19-31.28,7.78-46.92-1.26-.21-2.52-.42-3.79-.63-3.25,16.08-6.5,32.17-9.75,48.25l4.47,.7c-6.51,23.99-13.03,48-19.86,73.15-2.17-3.29-3.41-5.18-5.22-7.93Z"/><path class="d" d="M940.12,295.31c1.56,.65,3.12,1.3,4.68,1.96l14.01-40.88c1.79,.22,3.58,.45,5.38,.67-3.2,24.06-6.4,48.12-10.03,75.44,15.59-30.02,12.66-58.94,12.09-92.18-18.72,17.39-16.18,38.91-26.14,54.99Z"/><path class="d" d="M965.83,89.21c-.96-.01-1.92-.02-2.88-.03v69.7c.96-.03,1.92-.06,2.88-.09V89.21Z"/><path class="d" d="M951.33,221.73c-1.33-.24-2.66-.48-3.99-.72-3.23,16.14-6.46,32.27-9.69,48.41l5.13,.93c2.85-16.21,5.7-32.42,8.54-48.62Z"/><path class="d" d="M995.67,74.99c-5.69,23.76-13.42,51.66-18.83,80.01-4.39,23.02-5.97,46.58-8.8,69.9,1.32,.19,2.65,.38,3.97,.57,4.27-52.31,27.11-101.58,23.65-150.48Z"/><path class="d" d="M1003.22,2.64c-.62,.05-1.23,.1-1.85,.15v61.66c.62-.05,1.23-.1,1.85-.14V2.64Z"/><path class="d" d="M945.81,118.65c1.52,.23,3.04,.47,4.55,.7,2.95-20.32,5.9-40.64,8.85-60.96-1.43-.18-2.85-.36-4.28-.54-3.04,20.26-6.08,40.53-9.13,60.79Z"/><path class="d" d="M997.48,161.63c6.27-39.42,12.43-78.86,18.63-118.29,.56-3.55,1.12-7.11,1.79-10.64,1.79-9.4,3.64-18.78,5.47-28.17-1.72-.18-3.44-.37-5.16-.55-8.8,55.09-17.59,110.18-26.39,165.27,3.93-2.12,5.21-4.8,5.66-7.62Z"/><path class="d" d="M978.89,134.25c-1.66-26.56-3.33-53.11-4.99-79.67l-4.45,.53c1.58,26.5,3.15,52.99,4.73,79.49l4.71-.35Z"/><path class="d" d="M983.98,35.1c-1.15,.14-2.3,.27-3.45,.41V115.49c1.15-.02,2.3-.04,3.45-.06V35.1Z"/><path class="d" d="M996.81,50.17l-7.29-46.98c-1.6,.27-3.2,.55-4.8,.82,2.41,15.66,4.82,31.32,7.24,46.98,1.62-.27,3.24-.55,4.86-.82Z"/><path class="d" d="M895.12,211.98l-5.06-.49c-1.64,24.14-3.28,48.28-4.93,72.42,1.76,.14,3.52,.27,5.28,.41,1.57-24.11,3.14-48.22,4.71-72.33Z"/><path class="d" d="M905.37,228.55c3.59-21.32,7.19-42.65,10.78-63.97-1.46-.24-2.92-.48-4.39-.72-3.58,21.2-7.17,42.39-10.75,63.58,1.45,.37,2.9,.74,4.35,1.1Z"/><path class="d" d="M1011.84,122.16l4.08,1.11c2.82-20.7,5.64-41.4,8.46-62.09-1.43-.2-2.86-.4-4.29-.59-2.75,20.52-5.5,41.05-8.25,61.57Z"/><path class="d" d="M878.87,218.94c1.63,.27,3.26,.54,4.89,.82,3.95-24.11,7.9-48.23,11.86-72.34l-4.63-.78c-4.04,24.1-8.07,48.2-12.11,72.3Z"/><path class="d" d="M910.69,2l-2.42-.03V37.04l2.42,.03V2Z"/><path class="d" d="M902.78,137.98c7.95-43.04,15.91-86.09,24.53-132.76,3.49,6.46,5.21,9.63,8.75,16.19V.66c-5.34-.26-9.76-.48-13.58-.66-8.04,46.31-15.9,91.62-23.76,136.92,1.35,.35,2.7,.71,4.05,1.06Z"/><path class="d" d="M927.07,32.04c-2.74,19.91-5.48,39.81-8.22,59.72,1.49,.31,2.97,.61,4.46,.92,2.71-20.01,5.41-40.01,8.12-60.02-1.45-.21-2.9-.41-4.35-.62Z"/><path class="d" d="M951.65,79.41c-1.55-25.83-3.11-51.66-4.66-77.49-1.38,.05-2.76,.11-4.14,.16-3.07,26.05,2.66,51.71,4.22,77.55,1.53-.07,3.05-.15,4.58-.22Z"/><path class="d" d="M888.58,329.47c12.7-48.63,25.4-97.26,38.1-145.88l2.75,.41v27.02c.87-.06,1.73-.12,2.6-.18,4.01-42.91,8.02-85.82,12.02-128.73-1.76-.3-3.52-.59-5.29-.89,1.49,86.82-42.31,163.42-50.19,248.26Z"/><path class="d" d="M894.03,194.19l4.02,1.08c6.65-45.65,39.28-83.78,36.82-130.57-7.23,20.73-15.2,41.95-22.01,63.53-6.88,21.8-12.6,43.96-18.83,65.96Z"/><path class="d" d="M956.8,8.91h-2.94V42.99c.98-.03,1.96-.07,2.94-.1V8.91Z"/><path class="d" d="M1135.63,189.78c.73-1.28,1.93-2.5,2.11-3.86,6.51-48.67,12.9-97.36,19.4-146.04,.59-4.43,.39-10.05,2.99-12.92,8.86-9.79,2.72-17.74-2.53-26.29-8.48,62.94-16.96,125.89-25.45,188.83,1.16,.09,2.31,.19,3.47,.28Z"/><path class="d" d="M1057.29,256.98c1.51,.27,3.02,.54,4.53,.8,3.49-18.76,6.98-37.52,10.47-56.28-1.3-.3-2.6-.6-3.9-.9l-11.1,56.37Z"/><path class="d" d="M1106.08,327.21v-65.83c-1.04-.05-2.08-.1-3.11-.15v65.88l3.11,.1Z"/><path class="d" d="M1081.59,168.52c7.77-45.1,15.53-90.21,23.3-135.31,.99,.12,1.97,.24,2.96,.35,1.31,3.13,2.63,6.26,3.94,9.38l3.91-.8c-.78-13.94-1.56-27.89-2.34-41.83l-3.94,.16V17.77c-2.65-6.98-4.32-11.4-6.48-17.09-8.65,57.04-17.01,112.13-25.37,167.22,1.34,.21,2.68,.41,4.03,.62Z"/><path class="d" d="M1104.86,56.5l-7.91,65.16c1.55,.2,3.09,.39,4.64,.59,2.88-21.87,5.77-43.74,8.65-65.61-1.79-.04-3.59-.09-5.38-.13Z"/><path class="d" d="M1112.1,155.31l3.47-.06V76.59c-1.16,.08-2.31,.15-3.47,.23v14.14c-13.62,46.15-27.02,91.56-40.43,136.97l5.26,1.46c5.59-40.73,29.57-76.48,35.17-117.68v43.61Z"/><path class="d" d="M1132.78,.86c-.89,.02-1.78,.04-2.67,.06V67.15c.89-.02,1.78-.03,2.67-.05V.86Z"/><path class="d" d="M1144.3,1.31c-1.11,.02-2.23,.05-3.34,.07V87.73c1.11,.05,2.23,.1,3.34,.15V1.31Z"/><path class="d" d="M1114.25,243.19c1.89-51.4,26.85-99.19,22.02-151.65-5.49,24.82-11.66,49.41-16.24,74.29-4.67,25.37-7.79,51.04-11.59,76.57,1.94,.26,3.87,.52,5.81,.79Z"/><path class="d" d="M1088.1,5.01c-.67,.08-1.35,.16-2.02,.24v58.81c.68-.06,1.35-.11,2.02-.17V5.01Z"/><path class="d" d="M879.77,188.35c8.97-48.69,17.95-97.38,26.92-146.07-1.59-.29-3.19-.59-4.78-.88-9.16,48.66-18.33,97.33-27.49,145.99,1.78,.32,3.57,.64,5.35,.96Z"/><path class="d" d="M1056.53,94.64c-1.38-26.54-2.75-53.07-4.13-79.61-1.7,0-3.4,.02-5.1,.02,1.37,26.61,2.74,53.23,4.11,79.84,1.71-.09,3.41-.17,5.12-.26Z"/><path class="d" d="M1024.22,247.03c4.25-45.2,8.51-90.4,12.76-135.59-1.48-.15-2.97-.29-4.45-.43-4.24,45.19-8.47,90.37-12.71,135.56l4.41,.47Z"/><path class="d" d="M983.44,181.76c-4.04,24.72-8.08,49.43-12.13,74.15,1.59,.25,3.18,.51,4.77,.76,4-24.97,8-49.94,12-74.91-1.55,0-3.09,0-4.64,0Z"/><path class="d" d="M987.53,247.89c-1.63-.21-3.25-.42-4.88-.64-1.79,25.6-3.57,51.2-5.36,76.79,1.74,.14,3.48,.28,5.21,.42,1.68-25.53,3.35-51.05,5.03-76.58Z"/><path class="d" d="M1021.21,209.83c-1.34-.34-2.68-.69-4.02-1.03-13.75,53.85-27.5,107.71-41.25,161.56,1.6,.43,3.2,.87,4.8,1.3,13.49-53.94,26.98-107.89,40.47-161.83Z"/><path class="d" d="M1004.43,198.72c-3.6,21.8-7.2,43.6-10.81,65.4,1.38,.42,2.76,.84,4.15,1.26,3.64-21.98,7.29-43.96,10.93-65.94l-4.27-.71Z"/><path class="d" d="M1065.37,31.48V113.5l4.21-.02c4.01-27.58,4.35-55.01-4.21-81.99Z"/><path class="d" d="M1048.8,192.01c-.03,1.01-.24,2.8,.13,2.94,15.03,5.72,2.3,15.52,3.19,23.23,.48,4.13-1.59,8.55-2.98,15.06,11.27-13.71,18.9-60.19,14.47-81.32-1.35,3.32-2.55,6.23-4.25,10.4v-50.45c-.69-.09-1.39-.18-2.08-.27-2.74,25.78-5.49,51.55-8.23,77.33-.11,1.02-.23,2.04-.26,3.07Z"/><path class="d" d="M1082.43,48.89c-2.2-13.75-4.4-27.51-6.6-41.26-1.92,.33-3.83,.67-5.75,1,2.35,13.73,4.71,27.46,7.06,41.19,1.76-.31,3.53-.62,5.29-.93Z"/><path class="d" d="M1043.06,3.52l-3.42-.08V99.49c1.14,.03,2.28,.07,3.42,.1V3.52Z"/><path class="d" d="M989.43,230.85c1.42-4.83,2.77-9.69,4.27-14.5,5.32-17.12,7.72-36.04,16.74-50.93,14.21-23.45,13.04-48.84,17.27-73.58-13.95,45.97-27.91,91.95-41.86,137.92,1.19,.36,2.39,.73,3.58,1.09Z"/><path class="d" d="M360.96,189.78c.73-1.28,1.93-2.5,2.11-3.86,6.51-48.67,12.9-97.36,19.4-146.04,.59-4.43,.39-10.05,2.99-12.92,8.86-9.79,2.72-17.74-2.53-26.29-8.48,62.94-16.96,125.89-25.45,188.83,1.16,.09,2.31,.19,3.47,.28Z"/><path class="d" d="M850.5,400.18c-11.03,32.66-22.06,65.33-33.09,97.99,1.42,.45,2.84,.89,4.26,1.34,10.98-32.7,21.96-65.41,32.93-98.11-1.37-.41-2.73-.81-4.1-1.21Z"/><path class="d" d="M629.09,381.53c1.84,.48,3.68,.95,5.52,1.43l19.81-79.08c-1.48-.36-2.96-.73-4.44-1.09-6.96,26.25-13.93,52.49-20.89,78.74Z"/><path class="d" d="M690.51,266.25c-11.16,34.28-22.32,68.57-33.48,102.85,1.32,.41,2.64,.82,3.96,1.23,11.14-34.23,22.27-68.46,33.41-102.68-1.3-.46-2.59-.93-3.89-1.39Z"/><path class="d" d="M690.23,262.71c1.56,.11,3.13,.22,4.69,.33,3.47-22.2,6.95-44.39,10.42-66.59-1.66-.24-3.31-.48-4.97-.71-3.38,22.33-6.77,44.65-10.15,66.98Z"/><path class="d" d="M674.29,355.45c1.44,.51,2.89,1.01,4.33,1.52,6.79-22.8,13.58-45.61,20.37-68.41-1.25-.36-2.49-.72-3.74-1.07-6.99,22.66-13.97,45.31-20.96,67.97Z"/><path class="d" d="M722.93,349.01c-5.07,23.03-10.14,46.06-15.21,69.1,1.8,.16,3.6,.31,5.41,.47,4.76-22.87,9.51-45.74,14.27-68.61-1.49-.32-2.98-.64-4.47-.95Z"/><path class="d" d="M657.63,205.11c-6.91,25.95-13.83,51.89-21.06,79.02-2.23-3.14-3.54-5-5.27-7.44-3.68,26.91-7.13,52.22-10.59,77.52,.66,.08,1.33,.16,1.99,.24,13-49.41,25.99-98.83,38.99-148.24-1.36-.37-2.71-.74-4.07-1.11Z"/><path class="d" d="M588.07,296.31c-5.83,26.3-11.66,52.61-17.03,76.82,20.23-20.47,13.62-49.85,17.03-76.82Z"/><path class="d" d="M556.56,426.12l5.1,1.5,14.47-44.83c-1.41-.44-2.82-.88-4.22-1.32-5.12,14.88-10.23,29.77-15.35,44.65Z"/><path class="d" d="M304.37,271.01c-11.16,34.28-22.32,68.57-33.48,102.85,1.32,.41,2.64,.82,3.96,1.23,11.14-34.23,22.27-68.46,33.41-102.68-1.3-.46-2.59-.93-3.89-1.39Z"/><path class="d" d="M590.03,407.28c1.55,.67,3.1,1.35,4.66,2.02,7.21-24.33,14.41-48.66,21.62-72.99-1.56-.47-3.12-.93-4.69-1.4-7.2,24.12-14.39,48.25-21.59,72.37Z"/><path class="d" d="M789.37,510.11c2.04,.42,4.09,.84,6.13,1.26,6.5-25.29,13.01-50.58,19.51-75.87-1.48-.4-2.96-.79-4.43-1.19-7.07,25.27-14.14,50.53-21.21,75.8Z"/><path class="d" d="M789.37,419.7c1.55,.86,3.11,1.73,4.66,2.59,7.2-24.04,14.41-48.09,21.61-72.13-1.64-.49-3.28-.97-4.91-1.46-7.12,23.67-14.24,47.33-21.36,71Z"/><path class="d" d="M813.68,394.84c-1.67-.46-3.34-.93-5-1.39-7.06,24.65-14.12,49.3-21.18,73.95,1.53,.42,3.06,.85,4.59,1.27,7.2-24.61,14.4-49.22,21.6-73.83Z"/><path class="d" d="M563.77,362.3c-6.83,21.68-13.66,43.37-20.49,65.05,1.42,.43,2.84,.85,4.26,1.28,6.76-21.71,13.53-43.42,20.29-65.12-1.35-.4-2.71-.8-4.06-1.21Z"/><path class="d" d="M820.4,477.53c6.66-20.83,13.32-41.66,19.97-62.49-1.52-1.07-3.05-2.15-4.57-3.22-1.02,2.27-2.05,4.54-3.07,6.81,2.87-57.92,19.71-113.39,32.61-169.56l-3.91-.75c-14.88,56.61-29.75,113.21-44.63,169.82,.97,.31,1.94,.62,2.91,.93,3.75-9.49,7.5-18.97,11.25-28.46,.71,.3,1.41,.59,2.12,.89-4.96,17.77-9.93,35.55-14.89,53.32,.94,.3,1.88,.6,2.82,.9,3.27-6.73,6.55-13.47,9.82-20.2-4.83,16.92-9.66,33.84-14.49,50.76,1.35,.42,2.7,.84,4.05,1.26Z"/><path class="d" d="M727.69,509.78c1.99,.46,3.99,.92,5.98,1.39,6.43-25.28,12.87-50.55,19.3-75.83-1.51-.39-3.02-.77-4.53-1.16-6.92,25.2-13.84,50.4-20.75,75.6Z"/><path class="d" d="M849.89,368.08c4.99-23.1,9.99-46.19,14.98-69.29-1.51-.34-3.03-.68-4.54-1.02l-15.6,69.16c1.72,.38,3.44,.77,5.15,1.15Z"/><path class="d" d="M727.13,420.31c1.69,.49,3.37,.98,5.06,1.46,7.2-24.13,14.39-48.27,21.59-72.4-1.65-.48-3.3-.95-4.95-1.43-7.23,24.12-14.46,48.25-21.69,72.37Z"/><path class="d" d="M751.36,394.05c-1.55-.41-3.1-.82-4.65-1.23-7.01,24.69-14.01,49.39-21.02,74.08l4.88,1.06c6.93-24.64,13.86-49.27,20.79-73.91Z"/><path class="d" d="M775.42,411.82c-1.52,2.24-3.03,4.49-4.55,6.73-.74,1.86-1.48,3.73-2.22,5.59-4.66,16.85-9.32,33.7-13.99,50.56,.58,.26,1.15,.53,1.73,.79,2.89-4.23,5.79-8.47,8.68-12.7l-.55,.71c4.27-16.96,8.55-33.91,12.82-50.87-.64-.27-1.28-.54-1.92-.81Z"/><path class="d" d="M797.65,225.82c.11-.41,.22-.82,.32-1.23l-.13-.03,3.68-24.5c-1.5-.23-3-.46-4.51-.68-1.39,8.44-2.77,16.87-4.16,25.31-.75,1.11-1.64,2.44-3.07,4.55,.42-8.8,.75-15.81,1.08-22.82-1.08-.24-2.15-.48-3.23-.72-.6,2.82-1.84,5.67-1.69,8.44,.58,10.34,3.83,21.08,1.99,30.9-3.34,17.8-9.61,35.04-14.88,53.33-1.55-2.93-2.55-4.8-4.84-9.12-3.76,28.45-7.12,53.84-10.48,79.23,.78,.12,1.56,.24,2.34,.36,8.41-32,16.82-64,25.23-96,1.72,.28,3.44,.56,5.16,.84,2.4-15.95,4.79-31.9,7.19-47.85Z"/><path class="d" d="M679.66,282.69c-1.13-.41-2.26-.83-3.39-1.24-1.53,3.12-3.05,6.25-4.58,9.37-.54,1.51-1.09,3.01-1.63,4.52-4.58,16.8-9.17,33.6-13.75,50.4,1.25,.36,2.51,.71,3.76,1.07,6.53-21.37,13.06-42.74,19.59-64.12Z"/><path class="d" d="M412.69,225.82c.11-.41,.22-.82,.32-1.23l-.13-.03,3.68-24.5c-1.5-.23-3-.46-4.51-.68-1.39,8.44-2.77,16.87-4.16,25.31-.75,1.11-1.64,2.44-3.07,4.55,.42-8.8,.75-15.81,1.08-22.82-1.08-.24-2.15-.48-3.23-.72-.6,2.82-1.84,5.67-1.68,8.44,.58,10.34,3.83,21.08,1.99,30.9-3.34,17.8-9.61,35.04-14.88,53.33-1.55-2.93-2.55-4.8-4.84-9.12-3.76,28.45-7.12,53.84-10.48,79.23,.78,.12,1.56,.24,2.34,.36,8.41-32,16.82-64,25.23-96,1.72,.28,3.44,.56,5.16,.84,2.4-15.95,4.79-31.9,7.19-47.85Z"/><path class="d" d="M342.18,420.31c1.69,.49,3.37,.98,5.06,1.46,7.2-24.13,14.39-48.27,21.59-72.4-1.65-.48-3.3-.95-4.95-1.43-7.23,24.12-14.46,48.25-21.69,72.37Z"/><path class="d" d="M390.46,411.82c-1.52,2.24-3.03,4.49-4.55,6.73-.74,1.86-1.48,3.73-2.22,5.59-4.66,16.85-9.32,33.7-13.99,50.56,.58,.26,1.15,.53,1.73,.79,2.89-4.23,5.79-8.47,8.68-12.7l-.55,.71c4.27-16.96,8.55-33.91,12.82-50.87-.64-.27-1.28-.54-1.92-.81Z"/><path class="d" d="M428.73,394.84c-1.67-.46-3.34-.93-5-1.39-7.06,24.65-14.12,49.3-21.18,73.95,1.53,.42,3.06,.85,4.59,1.27l21.6-73.83Z"/><path class="d" d="M404.41,510.11c2.04,.42,4.09,.84,6.13,1.26,6.5-25.29,13.01-50.58,19.51-75.87-1.48-.4-2.96-.79-4.43-1.19-7.07,25.27-14.14,50.53-21.21,75.8Z"/><path class="d" d="M305.27,262.71c1.56,.11,3.13,.22,4.69,.33l10.42-66.59c-1.66-.24-3.31-.48-4.97-.71-3.38,22.33-6.77,44.65-10.15,66.98Z"/><path class="d" d="M288.14,360.21c1.44,.51,2.89,1.01,4.33,1.52,6.79-22.8,13.58-45.61,20.37-68.41-1.25-.36-2.49-.72-3.74-1.07-6.99,22.66-13.97,45.31-20.96,67.97Z"/><path class="d" d="M559.09,342.16c-11.07,32.6-22.13,65.19-33.2,97.79,1.4,.52,2.81,1.05,4.21,1.57,10.97-32.7,21.93-65.4,32.9-98.09-1.3-.42-2.61-.84-3.91-1.26Z"/><path class="d" d="M337.98,349.01c-5.07,23.03-10.14,46.06-15.21,69.1,1.8,.16,3.6,.31,5.41,.47,4.76-22.87,9.51-45.74,14.27-68.61-1.49-.32-2.98-.64-4.47-.95Z"/><path class="d" d="M366.41,394.05c-1.55-.41-3.1-.82-4.65-1.23-7.01,24.69-14.01,49.39-21.02,74.08l4.88,1.06c6.93-24.64,13.86-49.27,20.79-73.91Z"/><path class="d" d="M342.74,509.78c1.99,.46,3.99,.92,5.98,1.39,6.43-25.28,12.87-50.55,19.3-75.83-1.51-.39-3.02-.77-4.53-1.16-6.92,25.2-13.84,50.4-20.75,75.6Z"/><path class="d" d="M404.42,419.7c1.55,.86,3.11,1.73,4.66,2.59,7.2-24.04,14.41-48.09,21.61-72.13-1.64-.49-3.28-.97-4.91-1.46-7.12,23.67-14.24,47.33-21.36,71Z"/><path class="d" d="M497.9,363.63c1.59,.49,3.18,.98,4.78,1.47,7.11-23.02,14.23-46.05,21.34-69.07-1.6-.49-3.21-.99-4.81-1.48-7.1,23.03-14.2,46.06-21.31,69.08Z"/><path class="d" d="M497.95,451.55c1.97,.51,3.93,1.03,5.9,1.54,6.52-25.21,13.05-50.42,19.57-75.63-1.47-.4-2.94-.8-4.41-1.2-7.02,25.09-14.04,50.19-21.06,75.28Z"/><path class="d" d="M540.53,361.95c.11-.11,.21-.23,.32-.34l.04-.14s-.36,.48-.36,.48Z"/><path class="d" d="M548.05,358.67c-1.13-.38-2.26-.76-3.38-1.14-1.27,1.36-2.54,2.72-3.81,4.08-5.21,18.93-10.42,37.89-15.63,56.84,1.18,.36,2.35,.72,3.53,1.08,6.43-20.29,12.87-40.57,19.3-60.86Z"/><path class="d" d="M521.76,339.19c-1.56-.45-3.13-.9-4.69-1.35-6.93,23.81-13.87,47.61-20.8,71.42,1.57,.51,3.13,1.03,4.7,1.54,6.93-23.87,13.86-47.74,20.8-71.61Z"/><path class="d" d="M494.84,242.52c-4.06,25.6-9.32,53.89-12.81,82.4-2.48,20.28-2.59,40.84-3.76,61.28,13.12-32.34,21.69-130.48,16.57-143.68Z"/><path class="d" d="M464.94,368.08c4.99-23.1,9.99-46.19,14.98-69.29-1.51-.34-3.03-.68-4.54-1.02-5.2,23.05-10.4,46.1-15.6,69.16,1.72,.38,3.44,.77,5.15,1.15Z"/><path class="d" d="M465.55,400.18l-33.09,97.99c1.42,.45,2.84,.89,4.26,1.34,10.98-32.7,21.96-65.41,32.93-98.11-1.37-.41-2.73-.81-4.1-1.21Z"/><path class="d" d="M435.44,477.53c6.66-20.83,13.32-41.66,19.97-62.49-1.52-1.07-3.05-2.15-4.57-3.22-1.02,2.27-2.05,4.54-3.07,6.81,2.87-57.92,19.71-113.39,32.61-169.56l-3.91-.75c-14.88,56.61-29.75,113.21-44.63,169.82,.97,.31,1.94,.62,2.91,.93,3.75-9.49,7.5-18.97,11.25-28.46,.71,.3,1.41,.59,2.12,.89-4.96,17.77-9.93,35.55-14.89,53.32,.94,.3,1.88,.6,2.82,.9,3.27-6.73,6.55-13.47,9.82-20.2-4.83,16.92-9.66,33.84-14.49,50.76,1.35,.42,2.7,.84,4.05,1.26Z"/><path class="d" d="M449.94,485.23c1.45,.43,2.91,.86,4.36,1.29,6.81-21.91,13.63-43.83,20.44-65.74-1.39-.41-2.79-.81-4.18-1.22-6.87,21.89-13.75,43.78-20.62,65.67Z"/><path class="d" d="M588.56,455.23c1.44,.38,2.89,.76,4.34,1.14,7.01-24.92,14.01-49.85,21.02-74.77-1.53-.4-3.06-.8-4.59-1.19-6.92,24.94-13.84,49.88-20.76,74.83Z"/><path class="d" d="M1296.43,339.19c-1.56-.45-3.13-.9-4.69-1.35-6.93,23.81-13.87,47.61-20.8,71.42,1.57,.51,3.13,1.03,4.7,1.54,6.93-23.87,13.86-47.74,20.8-71.61Z"/><path class="d" d="M1240.21,400.18l-33.09,97.99c1.42,.45,2.84,.89,4.26,1.34,10.98-32.7,21.96-65.41,32.93-98.11-1.37-.41-2.73-.81-4.1-1.21Z"/><path class="d" d="M1224.6,485.23c1.45,.43,2.91,.86,4.36,1.29,6.81-21.91,13.63-43.83,20.44-65.74-1.39-.41-2.79-.81-4.18-1.22-6.87,21.89-13.75,43.78-20.62,65.67Z"/><path class="d" d="M1269.51,242.52c-4.06,25.6-9.32,53.89-12.81,82.4-2.48,20.28-2.59,40.84-3.76,61.28,13.12-32.34,21.69-130.48,16.56-143.68Z"/><path class="d" d="M1210.11,477.53c6.66-20.83,13.32-41.66,19.97-62.49-1.52-1.07-3.05-2.15-4.57-3.22-1.02,2.27-2.05,4.54-3.07,6.81,2.87-57.92,19.71-113.39,32.61-169.56l-3.91-.75-44.63,169.82c.97,.31,1.94,.62,2.91,.93,3.75-9.49,7.5-18.97,11.25-28.46,.71,.3,1.41,.59,2.12,.89-4.96,17.77-9.93,35.55-14.89,53.32,.94,.3,1.88,.6,2.82,.9l9.82-20.2c-4.83,16.92-9.66,33.84-14.49,50.76,1.35,.42,2.7,.84,4.05,1.26Z"/><path class="d" d="M1239.6,368.08c4.99-23.1,9.99-46.19,14.98-69.29-1.51-.34-3.03-.68-4.54-1.02l-15.6,69.16,5.15,1.15Z"/><path class="d" d="M1165.12,411.82c-1.52,2.24-3.03,4.49-4.55,6.73-.74,1.86-1.48,3.73-2.22,5.59-4.66,16.85-9.32,33.7-13.99,50.56,.58,.26,1.15,.53,1.73,.79,2.89-4.23,5.79-8.47,8.68-12.7l-.55,.71c4.27-16.96,8.55-33.91,12.82-50.87-.64-.27-1.28-.54-1.92-.81Z"/><path class="d" d="M1187.35,225.82c.11-.41,.22-.82,.32-1.23l-.13-.03,3.68-24.5c-1.5-.23-3-.46-4.51-.68-1.39,8.44-2.77,16.87-4.16,25.31-.75,1.11-1.64,2.44-3.07,4.55,.42-8.8,.75-15.81,1.08-22.82-1.08-.24-2.15-.48-3.23-.72-.6,2.82-1.84,5.67-1.69,8.44,.58,10.34,3.83,21.08,1.99,30.9-3.34,17.8-9.61,35.04-14.88,53.33-1.55-2.93-2.55-4.8-4.84-9.12-3.76,28.45-7.12,53.84-10.48,79.23,.78,.12,1.56,.24,2.34,.36,8.41-32,16.82-64,25.23-96,1.72,.28,3.44,.56,5.16,.84,2.4-15.95,4.79-31.9,7.19-47.85Z"/><path class="d" d="M834.89,485.23c1.45,.43,2.91,.86,4.36,1.29,6.81-21.91,13.63-43.83,20.44-65.74-1.39-.41-2.79-.81-4.18-1.22-6.87,21.89-13.75,43.78-20.62,65.67Z"/><path class="d" d="M1203.39,394.84c-1.67-.46-3.34-.93-5-1.39-7.06,24.65-14.12,49.3-21.18,73.95,1.53,.42,3.06,.85,4.59,1.27,7.2-24.61,14.4-49.22,21.6-73.83Z"/><path class="d" d="M1179.08,419.7c1.55,.86,3.11,1.73,4.66,2.59,7.2-24.04,14.41-48.09,21.61-72.13-1.64-.49-3.28-.97-4.91-1.46-7.12,23.67-14.24,47.33-21.36,71Z"/><path class="d" d="M1366,494.85c-.49,1.83-.97,3.66-1.46,5.49,.49,.13,.97,.25,1.46,.38v-5.87Z"/><path class="d" d="M1331.22,426.12c1.7,.5,3.4,1,5.1,1.5,4.82-14.94,9.65-29.89,14.47-44.83l-4.22-1.32-15.35,44.65Z"/><path class="d" d="M1338.43,362.3c-6.83,21.68-13.66,43.37-20.49,65.05,1.42,.43,2.84,.85,4.26,1.28,6.76-21.71,13.53-43.42,20.29-65.12-1.35-.4-2.71-.8-4.06-1.21Z"/><path class="d" d="M1362.73,296.31c-5.83,26.3-11.66,52.61-17.03,76.82,20.23-20.47,13.62-49.85,17.03-76.82Z"/><path class="d" d="M1116.84,420.31c1.69,.49,3.37,.98,5.06,1.46,7.2-24.13,14.39-48.27,21.59-72.4-1.65-.48-3.3-.95-4.95-1.43-7.23,24.12-14.46,48.25-21.69,72.37Z"/><path class="d" d="M1366,445.24c-.92,3.33-1.85,6.66-2.77,10,.92,.24,1.85,.49,2.77,.73v-10.73Z"/><path class="d" d="M1272.56,363.63c1.59,.49,3.18,.98,4.78,1.47,7.11-23.02,14.23-46.05,21.34-69.07-1.6-.49-3.21-.99-4.81-1.48-7.1,23.03-14.2,46.06-21.31,69.08Z"/><path class="d" d="M1272.61,451.55c1.97,.51,3.94,1.03,5.9,1.54,6.52-25.21,13.05-50.42,19.57-75.63-1.47-.4-2.94-.8-4.41-1.2-7.02,25.09-14.04,50.19-21.06,75.28Z"/><path class="d" d="M1315.19,361.95c.11-.11,.21-.23,.32-.34,.01-.05,.03-.09,.04-.14,0,.02-.36,.48-.36,.48Z"/><path class="d" d="M1322.71,358.67c-1.13-.38-2.26-.76-3.38-1.14-1.27,1.36-2.54,2.72-3.81,4.08-5.21,18.93-10.42,37.89-15.63,56.84,1.18,.36,2.35,.72,3.53,1.08,6.43-20.29,12.87-40.57,19.3-60.86Z"/><path class="d" d="M1333.75,342.16c-11.07,32.6-22.13,65.19-33.2,97.79,1.4,.52,2.81,1.05,4.21,1.57,10.97-32.7,21.93-65.4,32.9-98.09-1.3-.42-2.61-.84-3.91-1.26Z"/><path class="d" d="M1179.07,510.11c2.04,.42,4.09,.84,6.13,1.26,6.5-25.29,13.01-50.58,19.51-75.87-1.48-.4-2.96-.79-4.43-1.19l-21.21,75.8Z"/><path class="d" d="M925.49,361.95l.32-.34,.04-.14s-.36,.48-.36,.48Z"/><path class="d" d="M944.05,342.16c-11.07,32.6-22.13,65.19-33.2,97.79,1.4,.52,2.81,1.05,4.21,1.57,10.97-32.7,21.93-65.4,32.9-98.09-1.3-.42-2.61-.84-3.91-1.26Z"/><path class="d" d="M933,358.67c-1.13-.38-2.26-.76-3.38-1.14-1.27,1.36-2.54,2.72-3.81,4.08-5.21,18.93-10.42,37.89-15.63,56.84,1.18,.36,2.35,.72,3.53,1.08,6.43-20.29,12.87-40.57,19.3-60.86Z"/><path class="d" d="M948.72,362.3c-6.83,21.68-13.66,43.37-20.49,65.05,1.42,.43,2.84,.85,4.26,1.28,6.76-21.71,13.53-43.42,20.29-65.12-1.35-.4-2.71-.8-4.06-1.21Z"/><path class="d" d="M973.02,296.31c-5.83,26.3-11.66,52.61-17.03,76.82,20.23-20.47,13.62-49.85,17.03-76.82Z"/><path class="d" d="M1141.07,394.05c-1.55-.41-3.1-.82-4.65-1.23-7.01,24.69-14.01,49.39-21.02,74.08,1.63,.35,3.25,.71,4.88,1.06,6.93-24.64,13.86-49.27,20.79-73.91Z"/><path class="d" d="M385.55,81.69c-2.73,21-5.45,42.01-8.18,63.01,.88,.18,1.76,.36,2.65,.55,3.44-12.54,6.88-25.08,10.32-37.62-.04,.14-.11,.4-.14,.45-.6-8.74-1.17-17.54-1.74-26.35l-2.91-.05Z"/><path class="d" d="M906.72,339.19c-1.56-.45-3.13-.9-4.69-1.35l-20.8,71.42c1.57,.51,3.13,1.03,4.7,1.54,6.93-23.87,13.86-47.74,20.8-71.61Z"/><path class="d" d="M882.86,363.63c1.59,.49,3.18,.98,4.78,1.47,7.11-23.02,14.23-46.05,21.34-69.07-1.6-.49-3.21-.99-4.81-1.48-7.1,23.03-14.2,46.06-21.31,69.08Z"/><path class="d" d="M882.91,451.55c1.97,.51,3.93,1.03,5.9,1.54l19.57-75.63c-1.47-.4-2.94-.8-4.41-1.2-7.02,25.09-14.04,50.19-21.06,75.28Z"/><path class="d" d="M941.51,426.12c1.7,.5,3.4,1,5.1,1.5,4.82-14.94,9.65-29.89,14.47-44.83-1.41-.44-2.82-.88-4.22-1.32l-15.35,44.65Z"/><path class="d" d="M1061.62,360.21c1.44,.51,2.89,1.01,4.33,1.52,6.79-22.8,13.58-45.61,20.37-68.41-1.25-.36-2.49-.72-3.74-1.07-6.99,22.66-13.97,45.31-20.96,67.97Z"/><path class="d" d="M1079.93,262.71c1.56,.11,3.13,.22,4.69,.33,3.47-22.2,6.95-44.39,10.42-66.59-1.66-.24-3.31-.48-4.97-.71-3.38,22.33-6.77,44.65-10.15,66.98Z"/><path class="d" d="M1077.84,271.01c-11.16,34.28-22.32,68.57-33.48,102.85,1.32,.41,2.64,.82,3.96,1.23l33.41-102.68c-1.3-.46-2.59-.93-3.89-1.39Z"/><path class="d" d="M1112.64,349.01c-5.07,23.03-10.14,46.06-15.21,69.1,1.8,.16,3.6,.31,5.41,.47,4.76-22.87,9.51-45.74,14.27-68.61-1.49-.32-2.98-.64-4.47-.95Z"/><path class="d" d="M973.52,455.23c1.45,.38,2.89,.76,4.34,1.14,7.01-24.92,14.01-49.85,21.02-74.77-1.53-.4-3.06-.8-4.59-1.19-6.92,24.94-13.84,49.88-20.76,74.83Z"/><path class="d" d="M1117.4,509.78c1.99,.46,3.99,.92,5.98,1.39,6.43-25.28,12.87-50.55,19.3-75.83-1.51-.39-3.02-.77-4.53-1.16-6.92,25.2-13.84,50.4-20.75,75.6Z"/><path class="d" d="M974.99,407.28c1.55,.67,3.1,1.35,4.66,2.02,7.21-24.33,14.41-48.66,21.62-72.99-1.56-.47-3.12-.93-4.69-1.4-7.2,24.12-14.39,48.25-21.59,72.37Z"/><path class="d" d="M1042.58,205.11c-6.91,25.95-13.83,51.89-21.06,79.02-2.23-3.14-3.54-5-5.27-7.44-3.68,26.91-7.13,52.22-10.59,77.52,.66,.08,1.33,.16,1.99,.24,13-49.41,25.99-98.83,38.99-148.24-1.36-.37-2.71-.74-4.07-1.11Z"/><path class="d" d="M1016.42,386.28c1.84,.48,3.68,.95,5.52,1.43,6.6-26.36,13.21-52.72,19.81-79.08-1.48-.36-2.96-.73-4.44-1.09-6.96,26.25-13.93,52.49-20.89,78.74Z"/><path class="d" d="M1066.99,287.44c-1.13-.41-2.26-.83-3.39-1.24-1.53,3.12-3.05,6.25-4.58,9.37-.54,1.51-1.09,3.01-1.63,4.52-4.58,16.8-9.17,33.6-13.75,50.4l3.76,1.07c6.53-21.37,13.06-42.74,19.59-64.12Z"/><path class="d" d="M879.8,242.52c-4.06,25.6-9.32,53.89-12.81,82.4-2.48,20.28-2.59,40.84-3.76,61.28,13.12-32.34,21.69-130.48,16.57-143.68Z"/><path class="d" d="M149.18,238.44c-3.63,26.12-6.98,50.21-10.33,74.29,.68,.1,1.37,.2,2.05,.31l38.19-140.29c-1.18-.31-2.36-.62-3.54-.93,2.59-15.64,5.19-31.28,7.78-46.92-1.26-.21-2.52-.42-3.79-.63-3.25,16.08-6.5,32.17-9.75,48.25l4.47,.7c-6.51,23.99-13.03,48-19.86,73.15-2.17-3.29-3.41-5.18-5.22-7.93Z"/><path class="d" d="M165.46,295.31c1.56,.65,3.12,1.3,4.68,1.96l14.01-40.88c1.79,.22,3.58,.45,5.38,.67-3.2,24.06-6.4,48.12-10.03,75.44,15.59-30.02,12.66-58.94,12.09-92.18-18.72,17.39-16.18,38.91-26.14,54.99Z"/><path class="d" d="M191.17,89.21c-.96-.01-1.92-.02-2.88-.03v69.7c.96-.03,1.92-.06,2.88-.09V89.21Z"/><path class="d" d="M176.66,221.73c-1.33-.24-2.66-.48-3.99-.72-3.23,16.14-6.46,32.27-9.69,48.41,1.71,.31,3.42,.62,5.13,.93,2.85-16.21,5.7-32.42,8.54-48.62Z"/><path class="d" d="M221.01,74.99c-5.69,23.76-13.42,51.66-18.83,80.01-4.39,23.02-5.97,46.58-8.8,69.9,1.32,.19,2.65,.38,3.97,.57,4.27-52.31,27.11-101.58,23.65-150.48Z"/><path class="d" d="M228.56,2.64c-.62,.05-1.23,.1-1.85,.15v61.66c.62-.05,1.23-.1,1.85-.14V2.64Z"/><path class="d" d="M204.23,134.25c-1.66-26.56-3.33-53.11-4.99-79.67l-4.45,.53c1.58,26.5,3.15,52.99,4.73,79.49l4.71-.35Z"/><path class="d" d="M171.14,118.65c1.52,.23,3.04,.47,4.55,.7,2.95-20.32,5.9-40.64,8.85-60.96-1.43-.18-2.85-.36-4.28-.54-3.04,20.26-6.08,40.53-9.13,60.79Z"/><path class="d" d="M222.82,161.63c6.27-39.42,12.43-78.86,18.63-118.29,.56-3.55,1.12-7.11,1.79-10.64,1.79-9.4,3.64-18.78,5.47-28.17-1.72-.18-3.44-.37-5.16-.55-8.8,55.09-17.59,110.18-26.39,165.27,3.93-2.12,5.21-4.8,5.66-7.62Z"/><path class="d" d="M209.32,35.1l-3.45,.41V115.49c1.15-.02,2.3-.04,3.45-.06V35.1Z"/><path class="d" d="M222.15,50.17l-7.29-46.98c-1.6,.27-3.2,.55-4.8,.82,2.41,15.66,4.82,31.32,7.24,46.98l4.86-.82Z"/><path class="d" d="M113.92,329.47c12.7-48.63,25.4-97.26,38.1-145.88l2.75,.41v27.02c.87-.06,1.73-.12,2.6-.18,4.01-42.91,8.02-85.82,12.02-128.73-1.76-.3-3.52-.59-5.29-.89,1.49,86.82-42.31,163.42-50.19,248.26Z"/><path class="d" d="M130.71,228.55c3.59-21.32,7.19-42.65,10.78-63.97-1.46-.24-2.92-.48-4.39-.72-3.58,21.2-7.17,42.39-10.75,63.58,1.45,.37,2.9,.74,4.35,1.1Z"/><path class="d" d="M120.45,211.98l-5.06-.49c-1.64,24.14-3.28,48.28-4.93,72.42l5.28,.41c1.57-24.11,3.14-48.22,4.71-72.33Z"/><path class="d" d="M104.2,218.94c1.63,.27,3.26,.54,4.89,.82,3.95-24.11,7.9-48.23,11.86-72.34l-4.63-.78c-4.04,24.1-8.07,48.2-12.11,72.3Z"/><path class="d" d="M136.03,2l-2.42-.03V37.04l2.42,.03V2Z"/><path class="d" d="M128.12,137.98c7.95-43.04,15.91-86.09,24.53-132.76,3.49,6.46,5.21,9.63,8.75,16.19V.66c-5.34-.26-9.76-.48-13.58-.66-8.04,46.31-15.9,91.62-23.76,136.92,1.35,.35,2.7,.71,4.05,1.06Z"/><path class="d" d="M182.14,8.91h-2.94V42.99c.98-.03,1.96-.07,2.94-.1V8.91Z"/><path class="d" d="M237.18,122.16c1.36,.37,2.72,.74,4.08,1.11,2.82-20.7,5.64-41.4,8.46-62.09l-4.29-.59c-2.75,20.52-5.5,41.05-8.25,61.57Z"/><path class="d" d="M176.99,79.41c-1.55-25.83-3.11-51.66-4.66-77.49-1.38,.05-2.76,.11-4.14,.16-3.07,26.05,2.66,51.71,4.22,77.55,1.53-.07,3.05-.15,4.58-.22Z"/><path class="d" d="M119.37,194.19l4.02,1.08c6.65-45.65,39.28-83.78,36.82-130.57-7.23,20.73-15.2,41.95-22.01,63.53-6.88,21.8-12.6,43.96-18.83,65.96Z"/><path class="d" d="M152.41,32.04c-2.74,19.91-5.48,39.81-8.22,59.72,1.49,.31,2.97,.61,4.46,.92,2.71-20.01,5.41-40.01,8.12-60.02-1.45-.21-2.9-.41-4.35-.62Z"/><path class="d" d="M331.42,327.21v-65.83c-1.04-.05-2.08-.1-3.11-.15v65.88l3.11,.1Z"/><path class="d" d="M337.44,155.31l3.47-.06V76.59c-1.16,.08-2.31,.15-3.47,.23v14.14c-13.62,46.15-27.02,91.56-40.43,136.97l5.26,1.46c5.59-40.73,29.57-76.48,35.17-117.69v43.61Z"/><path class="d" d="M282.63,256.98c1.51,.27,3.02,.54,4.53,.8,3.49-18.76,6.98-37.52,10.47-56.28-1.3-.3-2.6-.6-3.9-.9-3.7,18.79-7.4,37.58-11.1,56.37Z"/><path class="d" d="M105.1,188.35c8.97-48.69,17.95-97.38,26.92-146.07-1.59-.29-3.19-.59-4.78-.88-9.16,48.66-18.33,97.33-27.49,145.99,1.78,.32,3.57,.64,5.35,.96Z"/><path class="d" d="M330.2,56.5c-2.64,21.72-5.27,43.44-7.91,65.16,1.55,.2,3.09,.39,4.64,.59,2.88-21.87,5.77-43.74,8.65-65.61-1.79-.04-3.59-.09-5.38-.13Z"/><path class="d" d="M306.93,168.52c7.77-45.1,15.53-90.21,23.3-135.31l2.96,.35c1.31,3.13,2.63,6.26,3.94,9.38,1.3-.27,2.61-.53,3.91-.8-.78-13.94-1.56-27.89-2.34-41.83l-3.94,.16V17.77c-2.65-6.98-4.32-11.4-6.48-17.09-8.65,57.04-17.01,112.13-25.37,167.22,1.34,.21,2.68,.41,4.03,.62Z"/><path class="d" d="M358.12,.86c-.89,.02-1.78,.04-2.67,.06V67.15c.89-.02,1.78-.03,2.67-.05V.86Z"/><path class="d" d="M369.64,1.31c-1.11,.02-2.23,.05-3.34,.07V87.73c1.11,.05,2.23,.1,3.34,.15V1.31Z"/><path class="d" d="M214.77,230.85c1.42-4.83,2.77-9.69,4.27-14.5,5.33-17.12,7.72-36.04,16.74-50.93,14.21-23.45,13.04-48.84,17.27-73.58-13.95,45.97-27.91,91.95-41.86,137.92,1.19,.36,2.39,.73,3.58,1.09Z"/><path class="d" d="M339.59,243.19c1.89-51.4,26.85-99.19,22.02-151.65-5.49,24.82-11.66,49.41-16.24,74.29-4.67,25.37-7.79,51.04-11.59,76.57l5.81,.79Z"/><path class="d" d="M349.4,56.79c-.98,.05-1.97,.11-2.95,.16v79.22l2.95-.16V56.79Z"/><path class="d" d="M313.44,5.01c-.67,.08-1.35,.16-2.02,.24v58.81c.67-.06,1.35-.11,2.02-.17V5.01Z"/><path class="d" d="M212.87,247.89c-1.63-.21-3.25-.42-4.88-.64l-5.36,76.79c1.74,.14,3.48,.28,5.21,.42,1.68-25.53,3.35-51.05,5.03-76.58Z"/><path class="d" d="M208.78,181.76c-4.04,24.72-8.08,49.43-12.13,74.15,1.59,.25,3.18,.51,4.77,.76,4-24.97,8-49.94,12-74.91-1.55,0-3.09,0-4.64,0Z"/><path class="d" d="M229.77,198.72c-3.6,21.8-7.2,43.6-10.81,65.4,1.38,.42,2.76,.84,4.14,1.26,3.64-21.98,7.29-43.96,10.93-65.94-1.42-.24-2.85-.48-4.27-.71Z"/><path class="d" d="M246.55,209.83c-1.34-.34-2.68-.69-4.02-1.03-13.75,53.85-27.5,107.71-41.25,161.56,1.6,.43,3.2,.87,4.8,1.3,13.49-53.94,26.98-107.89,40.47-161.83Z"/><path class="d" d="M249.56,247.03c4.25-45.2,8.51-90.4,12.76-135.59-1.48-.15-2.97-.29-4.46-.43-4.24,45.19-8.47,90.37-12.71,135.56,1.47,.16,2.94,.31,4.41,.47Z"/><path class="d" d="M274.14,192.01c-.03,1.01-.24,2.8,.13,2.94,15.03,5.72,2.3,15.52,3.19,23.23,.48,4.13-1.59,8.55-2.98,15.06,11.27-13.71,18.9-60.19,14.47-81.32-1.35,3.32-2.55,6.23-4.25,10.4v-50.45c-.69-.09-1.39-.18-2.08-.27-2.74,25.78-5.49,51.55-8.23,77.33-.11,1.02-.23,2.04-.26,3.07Z"/><path class="d" d="M290.71,31.48V113.5l4.21-.02c4.01-27.58,4.35-55.01-4.21-81.99Z"/><path class="d" d="M268.4,3.52l-3.42-.08V99.49c1.14,.03,2.28,.07,3.42,.1V3.52Z"/><path class="d" d="M307.76,48.89c-2.2-13.75-4.4-27.51-6.6-41.26-1.92,.33-3.83,.67-5.75,1,2.35,13.73,4.71,27.46,7.06,41.19,1.76-.31,3.53-.62,5.29-.93Z"/><path class="d" d="M281.87,94.64c-1.38-26.54-2.75-53.07-4.13-79.61-1.7,0-3.4,.02-5.1,.02,1.37,26.61,2.74,53.23,4.11,79.84,1.71-.09,3.41-.17,5.12-.26Z"/><path class="d" d="M22.99,225.82c.11-.41,.22-.82,.32-1.23l-.13-.03,3.68-24.5c-1.5-.23-3-.46-4.51-.68-1.39,8.44-2.77,16.87-4.16,25.31-.75,1.11-1.64,2.44-3.07,4.55,.42-8.8,.75-15.81,1.08-22.82-1.08-.24-2.15-.48-3.23-.72-.6,2.82-1.84,5.67-1.68,8.44,.58,10.34,3.83,21.08,1.99,30.9-3,16.02-8.38,31.59-13.27,47.88v20.39l10.63-40.46c1.72,.28,3.44,.56,5.16,.84,2.4-15.95,4.79-31.9,7.19-47.85Z"/><path class="d" d="M105.14,242.52c-4.06,25.6-9.32,53.89-12.81,82.4-2.48,20.28-2.59,40.84-3.76,61.28,13.12-32.34,21.69-130.48,16.57-143.68Z"/><path class="d" d="M60.23,485.23c1.45,.43,2.91,.86,4.36,1.29,6.81-21.91,13.63-43.83,20.44-65.74-1.39-.41-2.79-.81-4.18-1.22-6.87,21.89-13.75,43.78-20.62,65.67Z"/><path class="d" d="M132.06,339.19c-1.56-.45-3.13-.9-4.69-1.35-6.93,23.81-13.87,47.61-20.8,71.42,1.57,.51,3.13,1.03,4.7,1.54,6.93-23.87,13.86-47.74,20.8-71.61Z"/><path class="d" d="M108.24,451.55c1.97,.51,3.93,1.03,5.9,1.54,6.52-25.21,13.05-50.42,19.57-75.63-1.47-.4-2.94-.8-4.41-1.2-7.02,25.09-14.04,50.19-21.06,75.28Z"/><path class="d" d="M75.84,400.18l-33.09,97.99c1.42,.45,2.84,.89,4.26,1.34,10.98-32.7,21.96-65.41,32.93-98.11-1.37-.41-2.73-.81-4.1-1.21Z"/><path class="d" d="M45.74,477.53c6.66-20.83,13.32-41.66,19.97-62.49-1.52-1.07-3.05-2.15-4.57-3.22-1.02,2.27-2.05,4.54-3.07,6.81,2.87-57.92,19.71-113.39,32.61-169.56l-3.91-.75c-14.88,56.61-29.75,113.21-44.63,169.82,.97,.31,1.94,.62,2.91,.93,3.75-9.49,7.5-18.97,11.25-28.46,.71,.3,1.41,.59,2.12,.89-4.96,17.77-9.93,35.55-14.89,53.32,.94,.3,1.88,.6,2.82,.9,3.27-6.73,6.55-13.47,9.82-20.2-4.83,16.92-9.66,33.84-14.49,50.76,1.35,.42,2.7,.84,4.05,1.26Z"/><path class="d" d="M39.02,394.84c-1.67-.46-3.34-.93-5-1.39-7.06,24.65-14.12,49.3-21.18,73.95,1.53,.42,3.06,.85,4.59,1.27l21.6-73.83Z"/><path class="d" d="M14.7,510.11c2.04,.42,4.09,.84,6.13,1.26,6.5-25.29,13.01-50.58,19.51-75.87-1.48-.4-2.96-.79-4.43-1.19-7.07,25.27-14.14,50.53-21.21,75.8Z"/><path class="d" d="M108.2,363.63c1.59,.49,3.18,.98,4.78,1.47,7.11-23.02,14.23-46.05,21.34-69.07-1.6-.49-3.21-.99-4.81-1.48-7.1,23.03-14.2,46.06-21.31,69.08Z"/><path class="d" d="M293.51,287.44c-1.13-.41-2.26-.83-3.39-1.24-1.53,3.12-3.05,6.25-4.58,9.37-.54,1.51-1.09,3.01-1.63,4.52-4.58,16.8-9.17,33.6-13.75,50.4l3.76,1.07c6.53-21.37,13.06-42.74,19.59-64.12Z"/><path class="d" d="M14.71,419.7c1.55,.86,3.11,1.73,4.66,2.59,7.2-24.04,14.41-48.09,21.61-72.13-1.64-.49-3.28-.97-4.91-1.46-7.12,23.67-14.24,47.33-21.36,71Z"/><path class="d" d="M75.23,368.08c4.99-23.1,9.99-46.19,14.98-69.29-1.51-.34-3.03-.68-4.54-1.02-5.2,23.05-10.4,46.1-15.6,69.16,1.72,.38,3.44,.77,5.15,1.15Z"/><path class="d" d="M198.36,296.31c-5.83,26.3-11.66,52.61-17.03,76.82,20.23-20.47,13.62-49.85,17.03-76.82Z"/><path class="d" d="M200.33,407.28c1.55,.67,3.1,1.35,4.66,2.02,7.21-24.33,14.41-48.66,21.62-72.99-1.56-.47-3.12-.93-4.69-1.4-7.2,24.12-14.39,48.25-21.59,72.37Z"/><path class="d" d="M198.86,455.23c1.44,.38,2.89,.76,4.33,1.14,7.01-24.92,14.01-49.85,21.02-74.77-1.53-.4-3.06-.8-4.59-1.19-6.92,24.94-13.84,49.88-20.76,74.83Z"/><path class="d" d="M150.82,361.95c.11-.11,.21-.23,.32-.34l.04-.14s-.36,.48-.36,.48Z"/><path class="d" d="M267.92,205.11c-6.91,25.95-13.83,51.89-21.06,79.02-2.23-3.14-3.54-5-5.27-7.44-3.68,26.91-7.13,52.22-10.59,77.52,.66,.08,1.33,.16,1.99,.24,13-49.41,25.99-98.83,38.99-148.24-1.36-.37-2.71-.74-4.07-1.11Z"/><path class="d" d="M242.95,386.28c1.84,.48,3.68,.95,5.52,1.43,6.6-26.36,13.21-52.72,19.81-79.08-1.48-.36-2.96-.73-4.44-1.09-6.96,26.25-13.93,52.49-20.89,78.74Z"/><path class="d" d="M169.39,342.16c-11.07,32.6-22.13,65.19-33.2,97.79,1.4,.52,2.81,1.05,4.21,1.57,10.97-32.7,21.93-65.4,32.9-98.09-1.3-.42-2.61-.84-3.91-1.26Z"/><path class="d" d="M166.85,426.12l5.1,1.5,14.47-44.83c-1.41-.44-2.82-.88-4.22-1.32-5.12,14.88-10.23,29.77-15.35,44.65Z"/><path class="d" d="M158.34,358.67c-1.13-.38-2.26-.76-3.38-1.14-1.27,1.36-2.54,2.72-3.81,4.08-5.21,18.93-10.42,37.89-15.63,56.84,1.18,.36,2.35,.72,3.53,1.08,6.43-20.29,12.87-40.57,19.3-60.86Z"/><path class="d" d="M91.21,284.77l5.05-.05c1.36-25.05,2.72-50.1,4.08-75.14-1.39-.06-2.78-.12-4.17-.18-1.65,25.12-3.31,50.25-4.96,75.37Z"/><path class="d" d="M174.06,362.3c-6.83,21.68-13.66,43.37-20.49,65.05,1.42,.43,2.84,.85,4.26,1.28,6.76-21.71,13.53-43.42,20.29-65.12-1.35-.4-2.71-.8-4.06-1.21Z"/><path class="d" d="M43.36,216.22c-3.46,21.37-6.93,42.73-10.39,64.1,1.51,.35,3.01,.7,4.52,1.06,3.5-21.47,7.01-42.94,10.51-64.41-1.54-.25-3.09-.5-4.63-.75Z"/><path class="d" d="M57.01,322.39c6.92-26.03,15.92-51.5,23.08-77.47,2.03-7.34,8.54-16.24-2.06-23.4-1.42-.96-.2-5.85-.2-8.92-.71-.04-1.42-.07-2.14-.11-3.98,28.68-7.96,57.36-11.94,86.05-1.18-.07-2.36-.14-3.53-.21-1.19-1.92-2.38-3.85-4.9-7.93-3.6,27.95-6.84,53.04-10.07,78.13l3.73,.49c2.59-15.56,3.99-31.44,8.03-46.62Z"/><path class="d" d="M63.45,271.06c4.07-43.16,8.14-86.33,12.2-129.49-1.6-.15-3.2-.3-4.8-.46-4.19,43.02-8.37,86.04-12.56,129.06,1.72,.3,3.44,.59,5.16,.89Z"/><path class="d" d="M21.49,264.44c-1.6,25.12-3.21,50.23-4.81,75.35,1.93,.1,3.87,.2,5.8,.29l4.18-75.43c-1.72-.07-3.45-.14-5.17-.22Z"/><path class="d" d="M25.85,247.32c1.01,.14,2.01,.27,3.02,.41,7-22.34,14-44.68,21-67.02,1.03,.19,2.06,.39,3.08,.58-.72,10.83-1.43,21.65-2.15,32.48,1.24,.17,2.48,.33,3.72,.5,4.43-31.34,8.86-62.68,13.9-98.39-13.31,19.16-8.4,38.52-20.51,55.78-14.29,20.35-15.3,50.03-22.07,75.67Z"/><path class="d" d="M76.84,194.9c-.48,1.74,.26,3.82,.44,5.74l3.19,.39c4.23-28.36,8.45-56.71,12.68-85.07,1.55,2.64,1.37,5.17,1.6,7.65,.25,2.72,.89,5.4,1.55,9.25,10.39-37.93,1.76-72.53-12.52-106.61l4.79,62.64c.92,.01,1.84,.03,2.77,.04,.83-3.12,1.66-6.23,2.49-9.35,1.22,.32,2.44,.65,3.66,.97-4.28,17.06-8.55,34.11-12.83,51.17-.53,.02-1.06,.03-1.6,.05-1.85-36.02-3.69-72.04-5.54-108.06-2.6,25.54-3.7,50.96-2.32,76.24,1.73,31.65,10.52,63.09,1.63,94.94Z"/><path class="d" d="M116.55,8.25c-1.01-.07-2.02-.13-3.02-.2V84.89c1.01-.04,2.02-.07,3.02-.11V8.25Z"/><path class="d" d="M20.64,385.2c13.1-51.88,26.2-103.76,39.3-155.64-1.48-.37-2.96-.74-4.43-1.11-13.42,51.93-26.83,103.86-40.25,155.79,1.8,.32,3.59,.65,5.39,.97Z"/><path class="d" d="M93.96,28.66c-2.56,14.44,14.44,22.36,11.31,37.79-2.43,11.98-.48,24.85-.48,37.32,3.48-29.61,13.43-60.24-11.59-89.72,.43,7.1,1.4,10.99,.76,14.6Z"/><path class="d" d="M0,412.94v10.32c.89-3.54,1.79-7.08,2.68-10.63-.64-.27-1.28-.54-1.92-.81-.25,.37-.5,.75-.76,1.12Z"/><path class="d" d="M49.94,144.82c1.48,.22,2.96,.44,4.44,.67,3.05-20.85,6.1-41.69,9.15-62.54-1.66-.38-3.32-.76-4.98-1.13-2.87,21-5.74,42-8.6,63.01Z"/><path class="d" d="M.66,107.54l-.03,.1,.03-.1Z"/><path class="d" d="M0,100.76v9.17c.21-.77,.42-1.53,.63-2.3-.04,.14-.11,.4-.14,.45-.17-2.43-.33-4.88-.49-7.32Z"/><path class="d" d="M.57,108.08c-.19,1.26-.38,2.52-.57,3.79v33.26c1.81-10.05,3.58-20.11,5.22-30.19,.32-1.98-2.98-4.55-4.64-6.86Z"/><path class="d" d="M13.74,132.63c-1.89-.22-3.79-.44-5.68-.65,.2,24.94-3.08,49.11-8.05,72.92v60.44l1.28,.09c4.15-44.27,8.31-88.53,12.46-132.8Z"/><path class="d" d="M.53,108.02s.03,.04,.05,.06l.08-.54-.13,.48Z"/><path class="d" d="M0,14.33v4.88c.33-1.66,.3-3.28,0-4.88Z"/><path class="d" d="M44.23,114.82c-3.2,25.34-9.86,50.25-14.99,75.35l4.17,.98c.96-2.13,2.42-4.17,2.8-6.4,6.38-37.89,12.63-75.81,18.9-113.72,.42-2.54-.11-5.71,1.23-7.55,12.59-17.31-.74-32.57-1.31-48.79-2.01,.16-4.02,.31-6.04,.47,.28,5.09,1.06,10.22,.77,15.28-1.57,28.16-2.01,56.47-5.53,84.39Z"/><path class="d" d="M41.32,15.86l-2.25,.2V88.54c.75-.2,1.5-.4,2.25-.6V15.86Z"/><path class="d" d="M29.03,63.75c.23,3.35,.45,6.7,.68,10.04,1.66-.11,3.33-.23,4.99-.34-.98-15.05-1.97-30.09-2.95-45.14-.91-.04-1.81-.08-2.72-.12V.09c-1.61,.02-3.22,.04-4.83,.06V79.31l4.83,.09v-15.65Z"/><path class="d" d="M16.97,169.72c-1.23,3.88-1.54,8.1-1.86,12.19-.31,3.99-.07,8.02-.07,12.04,1.31,.05,2.62,.1,3.93,.15,4.18-32.16,8.35-64.32,12.53-96.49-1.5-.22-2.99-.45-4.49-.67-1.39,8.54-2.78,17.07-4.17,25.61-.5-.07-1-.14-1.5-.22-1.68-40.56-3.35-81.11-5.03-121.67-1.13-.01-2.26-.02-3.39-.03-.72,4.73-2.16,9.48-2.05,14.19,.64,28.17,1.96,56.32,2.41,84.49,.37,23.52,11.27,46.45,3.68,70.41Z"/></g></g></g></svg>