<svg id="SVG" xmlns="http://www.w3.org/2000/svg" viewBox="0 0 159.42 9"><defs><style>.cls-1{fill:#231f20;}</style></defs><path class="cls-1" d="M0,8.78V.22H2.72V8.78Z"/><path class="cls-1" d="M9.58,5.84H8.42V3.77h3.66V7.85a5.27,5.27,0,0,1-1.71.85,6.9,6.9,0,0,1-2,.3A4.39,4.39,0,0,1,5.06,7.85a4.5,4.5,0,0,1-1.14-3.3A4.67,4.67,0,0,1,5.06,1.2,4.13,4.13,0,0,1,8.22,0a4.13,4.13,0,0,1,2.59.76A3.11,3.11,0,0,1,12,2.9l-2.73.23a1.22,1.22,0,0,0-.36-.65,1.16,1.16,0,0,0-.72-.2,1.25,1.25,0,0,0-1.13.52,3.06,3.06,0,0,0-.35,1.66A2.89,2.89,0,0,0,7.13,6.2a1.6,1.6,0,0,0,1.35.52,2.65,2.65,0,0,0,1.1-.19Z"/><path class="cls-1" d="M18.71,8.78,16,4.43V8.78H13.4V.22h2.34l2.74,4.33V.22H21V8.78Z"/><path class="cls-1" d="M26.51,9a4.19,4.19,0,0,1-3.16-1.16,4.57,4.57,0,0,1-1.13-3.3,5.38,5.38,0,0,1,.51-2.43A3.49,3.49,0,0,1,24.21.55,4.72,4.72,0,0,1,26.58,0a4.21,4.21,0,0,1,3.16,1.16,4.56,4.56,0,0,1,1.12,3.29,4.68,4.68,0,0,1-1.14,3.36A4.28,4.28,0,0,1,26.51,9Zm0-2.34Q28,6.66,28,4.5t-1.5-2.16Q25,2.34,25,4.5T26.54,6.66Z"/><path class="cls-1" d="M37,8.78,35.58,6h-1V8.78H32.06V.22h3.68a4.06,4.06,0,0,1,2.59.7A2.55,2.55,0,0,1,39.22,3,2.76,2.76,0,0,1,38,5.5l1.77,3.28ZM35.53,4.06a1.41,1.41,0,0,0,.86-.22.84.84,0,0,0,.27-.7.82.82,0,0,0-.27-.69,1.34,1.34,0,0,0-.86-.22h-.91V4.06Z"/><path class="cls-1" d="M46.37,8.78,46,7.4H43.27L42.9,8.78H40.21L43,.22h3.35l2.77,8.56ZM44.63,2.44l-.78,2.84h1.56Z"/><path class="cls-1" d="M55.38,8.78,52.62,4.43V8.78H50.08V.22h2.34l2.73,4.33V.22h2.54V8.78Z"/><path class="cls-1" d="M67,5.51a3.49,3.49,0,0,1-1.12,2.57A4.14,4.14,0,0,1,63.08,9,4.09,4.09,0,0,1,60,7.86,4.56,4.56,0,0,1,58.9,4.6,4.78,4.78,0,0,1,60,1.2,4.12,4.12,0,0,1,63.18,0a3.86,3.86,0,0,1,2.55.77A3.69,3.69,0,0,1,66.9,3.1l-2.71.3a1.54,1.54,0,0,0-.39-.81,1,1,0,0,0-.73-.25,1.06,1.06,0,0,0-1,.52,3.23,3.23,0,0,0-.32,1.62,3.18,3.18,0,0,0,.34,1.65,1.15,1.15,0,0,0,1,.53c.67,0,1.06-.38,1.16-1.15Z"/><path class="cls-1" d="M68,8.78V.22h6.37v2.1H70.67V3.41h3.45v2.1H70.67V6.68H74.6l-.2,2.1Z"/><path class="cls-1" d="M78.14,8.78V.22h2.73V8.78Z"/><path class="cls-1" d="M84.93,5.44a4.44,4.44,0,0,1-2.16-.93,2.19,2.19,0,0,1-.69-1.7A2.46,2.46,0,0,1,83,.74,4.36,4.36,0,0,1,85.74,0a4.26,4.26,0,0,1,2.57.69,2.62,2.62,0,0,1,1,2l-2.65.24a1.11,1.11,0,0,0-.34-.63,1.19,1.19,0,0,0-.72-.18,1.32,1.32,0,0,0-.69.14.47.47,0,0,0-.23.41.42.42,0,0,0,.18.35,1.63,1.63,0,0,0,.6.21l1.15.24a4.77,4.77,0,0,1,2.2.94,2.22,2.22,0,0,1,.67,1.71,2.57,2.57,0,0,1-1,2.17A4.56,4.56,0,0,1,85.73,9,4.36,4.36,0,0,1,83,8.23,3,3,0,0,1,81.9,5.94h2.69a1,1,0,0,0,.39.74,1.47,1.47,0,0,0,.91.24c.65,0,1-.21,1-.63a.49.49,0,0,0-.18-.4,1.46,1.46,0,0,0-.59-.23Z"/><path class="cls-1" d="M95.75,5.44a4.43,4.43,0,0,1-2.17-.93,2.19,2.19,0,0,1-.69-1.7,2.46,2.46,0,0,1,1-2.07A4.36,4.36,0,0,1,96.55,0a4.26,4.26,0,0,1,2.57.69,2.62,2.62,0,0,1,1,2l-2.65.24a1.05,1.05,0,0,0-.34-.63,1.16,1.16,0,0,0-.71-.18,1.27,1.27,0,0,0-.69.14.45.45,0,0,0-.24.41.42.42,0,0,0,.18.35,1.63,1.63,0,0,0,.6.21l1.15.24a4.77,4.77,0,0,1,2.2.94,2.22,2.22,0,0,1,.67,1.71,2.55,2.55,0,0,1-1,2.17A4.56,4.56,0,0,1,96.54,9a4.38,4.38,0,0,1-2.76-.77,3,3,0,0,1-1.07-2.29H95.4a1.07,1.07,0,0,0,.39.74,1.51,1.51,0,0,0,.92.24c.64,0,1-.21,1-.63a.49.49,0,0,0-.18-.4,1.46,1.46,0,0,0-.59-.23Z"/><path class="cls-1" d="M103.38,8.78V2.56H101V.22h7.5V2.56H106.1V8.78Z"/><path class="cls-1" d="M114.39,8.78,113,6h-1V8.78h-2.56V.22h3.67a4.09,4.09,0,0,1,2.6.7,2.55,2.55,0,0,1,.88,2.1A2.76,2.76,0,0,1,115.4,5.5l1.78,3.28ZM113,4.06a1.41,1.41,0,0,0,.86-.22.84.84,0,0,0,.27-.7.82.82,0,0,0-.27-.69,1.34,1.34,0,0,0-.86-.22h-.91V4.06Z"/><path class="cls-1" d="M118,8.78V.22h6.37v2.1h-3.7V3.41h3.46v2.1h-3.46V6.68h3.94l-.2,2.1Z"/><path class="cls-1" d="M130.89,8.78l-2.76-4.35V8.78h-2.54V.22h2.34l2.74,4.33V.22h2.54V8.78Z"/><path class="cls-1" d="M140.06,5.84h-1.15V3.77h3.66V7.85a5.48,5.48,0,0,1-1.71.85,6.92,6.92,0,0,1-2.05.3,4.38,4.38,0,0,1-3.26-1.15,4.5,4.5,0,0,1-1.14-3.3,4.72,4.72,0,0,1,1.13-3.35A4.79,4.79,0,0,1,141.3.76a3.19,3.19,0,0,1,1.2,2.14l-2.74.23a1.1,1.1,0,0,0-.36-.65,1.16,1.16,0,0,0-.72-.2,1.26,1.26,0,0,0-1.13.52,3.07,3.07,0,0,0-.34,1.66,2.9,2.9,0,0,0,.4,1.74,1.63,1.63,0,0,0,1.36.52,2.6,2.6,0,0,0,1.09-.19Z"/><path class="cls-1" d="M145.56,8.78V2.56h-2.39V.22h7.5V2.56h-2.39V8.78Z"/><path class="cls-1" d="M156.69,8.78V5.57h-2.28V8.78h-2.72V.22h2.72V3.17h2.28V.22h2.73V8.78Z"/></svg>