<svg id="SVG" xmlns="http://www.w3.org/2000/svg" viewBox="0 0 134.21 9"><defs><style>.cls-1{fill:#231f20;}</style></defs><path class="cls-1" d="M2.66,5.92V8.78H0V.22H6.07V2.36H2.66V3.77H5.88V5.92Z"/><path class="cls-1" d="M12.1,8.78,10.73,6h-1V8.78H7.21V.22h3.67a4.09,4.09,0,0,1,2.6.7A2.55,2.55,0,0,1,14.36,3,2.76,2.76,0,0,1,13.1,5.5l1.78,3.28ZM10.68,4.06a1.41,1.41,0,0,0,.86-.22.84.84,0,0,0,.27-.7.82.82,0,0,0-.27-.69,1.34,1.34,0,0,0-.86-.22H9.77V4.06Z"/><path class="cls-1" d="M15.66,8.78V.22H22v2.1H18.34V3.41h3.45v2.1H18.34V6.68h3.93l-.2,2.1Z"/><path class="cls-1" d="M23.29,8.78V.22h6.37v2.1H26V3.41h3.45v2.1H26V6.68H29.9l-.2,2.1Z"/><path class="cls-1" d="M30.92,8.78V.22h3.52a4.67,4.67,0,0,1,3.34,1.07A4.16,4.16,0,0,1,38.9,4.44a4.33,4.33,0,0,1-1.15,3.23,4.55,4.55,0,0,1-3.31,1.11ZM34.54,6.5A1.44,1.44,0,0,0,35.75,6a2.47,2.47,0,0,0,.39-1.52A2.37,2.37,0,0,0,35.75,3a1.47,1.47,0,0,0-1.21-.49h-.95v4Z"/><path class="cls-1" d="M44.15,9A4.19,4.19,0,0,1,41,7.84a4.57,4.57,0,0,1-1.13-3.3,5.38,5.38,0,0,1,.51-2.43A3.49,3.49,0,0,1,41.85.55,4.72,4.72,0,0,1,44.22,0a4.21,4.21,0,0,1,3.16,1.16A4.56,4.56,0,0,1,48.5,4.45a4.68,4.68,0,0,1-1.14,3.36A4.28,4.28,0,0,1,44.15,9Zm0-2.34q1.5,0,1.5-2.16t-1.5-2.16q-1.5,0-1.5,2.16T44.18,6.66Z"/><path class="cls-1" d="M56.6,8.78V4.54L55.33,8.78H53.41L52.14,4.54V8.78H49.7V.22h3.12l1.59,5.2L56,.22H59.1V8.78Z"/><path class="cls-1" d="M63.06,8.78V.22h2.72V8.78Z"/><path class="cls-1" d="M69.85,5.44a4.44,4.44,0,0,1-2.16-.93A2.16,2.16,0,0,1,67,2.81,2.43,2.43,0,0,1,68,.74,4.31,4.31,0,0,1,70.65,0a4.24,4.24,0,0,1,2.57.69,2.6,2.6,0,0,1,1.06,2l-2.65.24a1.17,1.17,0,0,0-.34-.63,1.19,1.19,0,0,0-.72-.18,1.32,1.32,0,0,0-.69.14.47.47,0,0,0-.23.41.42.42,0,0,0,.18.35,1.63,1.63,0,0,0,.6.21l1.15.24a4.72,4.72,0,0,1,2.19.94,2.23,2.23,0,0,1,.68,1.71,2.57,2.57,0,0,1-1,2.17A4.57,4.57,0,0,1,70.64,9a4.33,4.33,0,0,1-2.75-.77,3,3,0,0,1-1.08-2.29H69.5a1.07,1.07,0,0,0,.39.74,1.51,1.51,0,0,0,.92.24c.65,0,1-.21,1-.63a.51.51,0,0,0-.17-.4A1.6,1.6,0,0,0,71,5.66Z"/><path class="cls-1" d="M80.66,5.44a4.44,4.44,0,0,1-2.16-.93,2.19,2.19,0,0,1-.69-1.7,2.46,2.46,0,0,1,1-2.07A4.36,4.36,0,0,1,81.47,0,4.28,4.28,0,0,1,84,.69a2.62,2.62,0,0,1,1,2l-2.65.24a1.11,1.11,0,0,0-.34-.63,1.19,1.19,0,0,0-.72-.18,1.32,1.32,0,0,0-.69.14.47.47,0,0,0-.23.41.42.42,0,0,0,.18.35,1.63,1.63,0,0,0,.6.21l1.15.24a4.77,4.77,0,0,1,2.2.94,2.26,2.26,0,0,1,.67,1.71,2.57,2.57,0,0,1-1,2.17A4.56,4.56,0,0,1,81.46,9a4.34,4.34,0,0,1-2.76-.77,3,3,0,0,1-1.07-2.29h2.68a1,1,0,0,0,.4.74,1.47,1.47,0,0,0,.91.24c.65,0,1-.21,1-.63a.48.48,0,0,0-.17-.4,1.53,1.53,0,0,0-.59-.23Z"/><path class="cls-1" d="M86.33,8.78V.22h2.72V6.44h3.59l-.23,2.34Z"/><path class="cls-1" d="M99.49,8.78,99.11,7.4H96.39L96,8.78H93.33L96.12.22h3.36l2.76,8.56ZM97.75,2.44,97,5.28h1.56Z"/><path class="cls-1" d="M104,8.78,101.4.22h2.93l1.4,5.67,1.4-5.67H110l-2.6,8.56Z"/><path class="cls-1" d="M111,8.78V.22h6.38v2.1h-3.7V3.41h3.46v2.1h-3.46V6.68h3.94l-.21,2.1Z"/><path class="cls-1" d="M123.49,8.78,122.12,6h-1V8.78h-2.55V.22h3.67a4.11,4.11,0,0,1,2.6.7,2.58,2.58,0,0,1,.88,2.1A2.76,2.76,0,0,1,124.5,5.5l1.77,3.28Zm-1.42-4.72a1.39,1.39,0,0,0,.86-.22.84.84,0,0,0,.27-.7.82.82,0,0,0-.27-.69,1.32,1.32,0,0,0-.86-.22h-.91V4.06Z"/><path class="cls-1" d="M128.66,8.78V5.6L125.85.22h2.9l1.31,3.12L131.37.22h2.84L131.4,5.6V8.78Z"/></svg>