<svg id="SVG" xmlns="http://www.w3.org/2000/svg" viewBox="0 0 111.57 9"><defs><style>.cls-1{fill:#231f20;}</style></defs><path class="cls-1" d="M2.39,8.78V2.56H0V.22H7.5V2.56H5.11V8.78Z"/><path class="cls-1" d="M13.52,8.78V5.57H11.24V8.78H8.52V.22h2.72V3.17h2.28V.22h2.73V8.78Z"/><path class="cls-1" d="M17.69,8.78V.22h2.72V8.78Z"/><path class="cls-1" d="M24.48,5.44a4.48,4.48,0,0,1-2.17-.93,2.19,2.19,0,0,1-.69-1.7,2.46,2.46,0,0,1,1-2.07A4.36,4.36,0,0,1,25.28,0a4.24,4.24,0,0,1,2.57.69,2.6,2.6,0,0,1,1.06,2l-2.65.24a1.11,1.11,0,0,0-.35-.63,1.14,1.14,0,0,0-.71-.18,1.32,1.32,0,0,0-.69.14.45.45,0,0,0-.23.41.42.42,0,0,0,.18.35,1.63,1.63,0,0,0,.6.21l1.15.24a4.72,4.72,0,0,1,2.19.94,2.23,2.23,0,0,1,.68,1.71,2.57,2.57,0,0,1-1,2.17A4.59,4.59,0,0,1,25.27,9a4.33,4.33,0,0,1-2.75-.77,3,3,0,0,1-1.08-2.29h2.69a1.07,1.07,0,0,0,.39.74,1.51,1.51,0,0,0,.92.24c.65,0,1-.21,1-.63a.51.51,0,0,0-.17-.4,1.59,1.59,0,0,0-.6-.23Z"/><path class="cls-1" d="M32.66,8.78V.22h2.73V8.78Z"/><path class="cls-1" d="M39.46,5.44a4.43,4.43,0,0,1-2.17-.93,2.19,2.19,0,0,1-.69-1.7,2.46,2.46,0,0,1,1-2.07A4.36,4.36,0,0,1,40.26,0a4.26,4.26,0,0,1,2.57.69,2.62,2.62,0,0,1,1.05,2l-2.65.24a1.05,1.05,0,0,0-.34-.63,1.16,1.16,0,0,0-.71-.18,1.27,1.27,0,0,0-.69.14.45.45,0,0,0-.24.41.42.42,0,0,0,.18.35,1.63,1.63,0,0,0,.6.21l1.15.24a4.77,4.77,0,0,1,2.2.94,2.22,2.22,0,0,1,.67,1.71,2.55,2.55,0,0,1-1,2.17A4.56,4.56,0,0,1,40.25,9a4.38,4.38,0,0,1-2.76-.77,3,3,0,0,1-1.07-2.29h2.69a1.07,1.07,0,0,0,.39.74,1.51,1.51,0,0,0,.92.24c.64,0,1-.21,1-.63a.49.49,0,0,0-.18-.4,1.46,1.46,0,0,0-.59-.23Z"/><path class="cls-1" d="M49.85,8.78V5.6L47,.22h2.89l1.31,3.12L52.56.22h2.83L52.58,5.6V8.78Z"/><path class="cls-1" d="M59.38,9a4.23,4.23,0,0,1-3.17-1.16,4.61,4.61,0,0,1-1.12-3.3,5.38,5.38,0,0,1,.51-2.43A3.49,3.49,0,0,1,57.08.55,4.72,4.72,0,0,1,59.45,0a4.21,4.21,0,0,1,3.16,1.16,4.56,4.56,0,0,1,1.12,3.29,4.68,4.68,0,0,1-1.14,3.36A4.28,4.28,0,0,1,59.38,9Zm0-2.34q1.5,0,1.5-2.16t-1.5-2.16q-1.5,0-1.5,2.16T59.41,6.66Z"/><path class="cls-1" d="M69.68.22h2.73v5a3.85,3.85,0,0,1-1,2.83A3.83,3.83,0,0,1,68.6,9q-3.73,0-3.73-3.8v-5h2.72v5.1a1.69,1.69,0,0,0,.25,1,1,1,0,0,0,.8.32,1,1,0,0,0,.8-.32,1.7,1.7,0,0,0,.24-1Z"/><path class="cls-1" d="M78.67,8.78,77.3,6h-1V8.78H73.79V.22h3.67a4.11,4.11,0,0,1,2.6.7A2.55,2.55,0,0,1,80.94,3,2.76,2.76,0,0,1,79.68,5.5l1.78,3.28ZM77.25,4.06a1.39,1.39,0,0,0,.86-.22.84.84,0,0,0,.27-.7.82.82,0,0,0-.27-.69,1.32,1.32,0,0,0-.86-.22h-.91V4.06Z"/><path class="cls-1" d="M90.17,5.84H89V3.77h3.66V7.85A5.27,5.27,0,0,1,91,8.7a6.9,6.9,0,0,1-2,.3,4.39,4.39,0,0,1-3.27-1.15,4.5,4.5,0,0,1-1.14-3.3A4.67,4.67,0,0,1,85.65,1.2,4.77,4.77,0,0,1,91.4.76,3.11,3.11,0,0,1,92.6,2.9l-2.73.23a1.22,1.22,0,0,0-.36-.65,1.16,1.16,0,0,0-.72-.2,1.25,1.25,0,0,0-1.13.52,3.06,3.06,0,0,0-.35,1.66,2.89,2.89,0,0,0,.41,1.74,1.6,1.6,0,0,0,1.35.52,2.65,2.65,0,0,0,1.1-.19Z"/><path class="cls-1" d="M98,9a4.19,4.19,0,0,1-3.16-1.16,4.57,4.57,0,0,1-1.13-3.3,5.38,5.38,0,0,1,.51-2.43A3.49,3.49,0,0,1,95.74.55,4.72,4.72,0,0,1,98.11,0a4.21,4.21,0,0,1,3.16,1.16,4.56,4.56,0,0,1,1.12,3.29,4.68,4.68,0,0,1-1.14,3.36A4.28,4.28,0,0,1,98,9Zm0-2.34q1.5,0,1.5-2.16t-1.5-2.16q-1.5,0-1.5,2.16T98.07,6.66Z"/><path class="cls-1" d="M103.59,8.78V.22h3.52a4.67,4.67,0,0,1,3.34,1.07,4.16,4.16,0,0,1,1.12,3.15,4.33,4.33,0,0,1-1.15,3.23,4.55,4.55,0,0,1-3.31,1.11Zm3.62-2.28a1.44,1.44,0,0,0,1.21-.5,2.47,2.47,0,0,0,.39-1.52A2.37,2.37,0,0,0,108.42,3a1.47,1.47,0,0,0-1.21-.49h-.95v4Z"/></svg>