<svg id="SVG" xmlns="http://www.w3.org/2000/svg" viewBox="0 0 70.43 9"><defs><style>.cls-1{fill:#231f20;}</style></defs><path class="cls-1" d="M5.3,8.78,2.54,4.43V8.78H0V.22H2.34L5.08,4.55V.22H7.62V8.78Z"/><path class="cls-1" d="M9.06,8.78V.22h6.37v2.1H11.74V3.41h3.45v2.1H11.74V6.68h3.93l-.2,2.1Z"/><path class="cls-1" d="M23.09,8.78,22.14,4l-.94,4.8H18.36L16.21.22h2.86l.87,5.3L21,.28h2.4l1,5.24.88-5.3h2.8L25.93,8.78Z"/><path class="cls-1" d="M31.43,5.44a4.43,4.43,0,0,1-2.17-.93,2.19,2.19,0,0,1-.69-1.7,2.46,2.46,0,0,1,1-2.07A4.36,4.36,0,0,1,32.23,0,4.24,4.24,0,0,1,34.8.69a2.63,2.63,0,0,1,1.06,2l-2.66.24a1.05,1.05,0,0,0-.34-.63,1.14,1.14,0,0,0-.71-.18,1.27,1.27,0,0,0-.69.14.45.45,0,0,0-.24.41A.42.42,0,0,0,31.4,3a1.63,1.63,0,0,0,.6.21l1.16.24a4.77,4.77,0,0,1,2.19.94A2.22,2.22,0,0,1,36,6.08a2.56,2.56,0,0,1-1,2.17A4.61,4.61,0,0,1,32.22,9a4.33,4.33,0,0,1-2.75-.77,3,3,0,0,1-1.08-2.29h2.69a1.07,1.07,0,0,0,.39.74,1.51,1.51,0,0,0,.92.24c.65,0,1-.21,1-.63a.51.51,0,0,0-.17-.4,1.59,1.59,0,0,0-.6-.23Z"/><path class="cls-1" d="M37.09,8.78V.22h3.33A4,4,0,0,1,43.07,1a2.79,2.79,0,0,1,.87,2.24q0,3-3.51,3h-.72V8.78ZM40.44,4.1a1.23,1.23,0,0,0,.81-.2.85.85,0,0,0,.25-.68.88.88,0,0,0-.25-.69,1.3,1.3,0,0,0-.81-.2h-.73V4.1Z"/><path class="cls-1" d="M45.08,8.78V.22h6.38v2.1h-3.7V3.41h3.46v2.1H47.76V6.68H51.7l-.21,2.1Z"/><path class="cls-1" d="M58.57,8.78,58.19,7.4H55.48L55.1,8.78H52.42L55.2.22h3.36l2.76,8.56ZM56.83,2.44l-.78,2.84h1.56Z"/><path class="cls-1" d="M67.46,8.78,65.69,5.39,65,6.22V8.78H62.28V.22H65V3.06L67.26.22h2.86L67.45,3.4l3,5.38Z"/></svg>