<svg id="SVG" xmlns="http://www.w3.org/2000/svg" viewBox="0 0 105.03 9"><defs><style>.cls-1{fill:#231f20;}</style></defs><path class="cls-1" d="M5.3,8.78,2.54,4.43V8.78H0V.22H2.34L5.08,4.55V.22H7.62V8.78Z"/><path class="cls-1" d="M13.1,9A4.21,4.21,0,0,1,9.94,7.84a4.57,4.57,0,0,1-1.12-3.3,5.52,5.52,0,0,1,.5-2.43A3.51,3.51,0,0,1,10.81.55,4.72,4.72,0,0,1,13.18,0a4.21,4.21,0,0,1,3.16,1.16,4.56,4.56,0,0,1,1.12,3.29,4.64,4.64,0,0,1-1.15,3.36A4.25,4.25,0,0,1,13.1,9Zm0-2.34q1.5,0,1.5-2.16t-1.5-2.16q-1.5,0-1.5,2.16T13.14,6.66Z"/><path class="cls-1" d="M21.18,8.78V.22H23.9V8.78Z"/><path class="cls-1" d="M32.24,8.78V4.54L31,8.78H29.05L27.78,4.54V8.78H25.34V.22h3.12l1.59,5.2L31.63.22h3.11V8.78Z"/><path class="cls-1" d="M41.86,8.78,41.47,7.4H38.76l-.37,1.38H35.7L38.48.22h3.36L44.6,8.78ZM40.12,2.44l-.78,2.84H40.9Z"/><path class="cls-1" d="M50.38,5.84H49.22V3.77h3.66V7.85a5.27,5.27,0,0,1-1.71.85,6.9,6.9,0,0,1-2,.3,4.39,4.39,0,0,1-3.27-1.15,4.5,4.5,0,0,1-1.14-3.3A4.67,4.67,0,0,1,45.86,1.2,4.77,4.77,0,0,1,51.61.76a3.19,3.19,0,0,1,1.2,2.14l-2.73.23a1.22,1.22,0,0,0-.36-.65,1.16,1.16,0,0,0-.72-.2,1.25,1.25,0,0,0-1.13.52,3.06,3.06,0,0,0-.35,1.66,2.89,2.89,0,0,0,.41,1.74,1.6,1.6,0,0,0,1.35.52,2.65,2.65,0,0,0,1.1-.19Z"/><path class="cls-1" d="M54.2,8.78V.22h2.73V8.78Z"/><path class="cls-1" d="M63.67,8.78,60.91,4.43V8.78H58.37V.22h2.34l2.73,4.33V.22H66V8.78Z"/><path class="cls-1" d="M73.1,8.78,72.72,7.4H70l-.37,1.38H67L69.73.22h3.36l2.76,8.56ZM71.36,2.44l-.78,2.84h1.56Z"/><path class="cls-1" d="M77.52,8.78V2.56H75.13V.22h7.5V2.56H80.24V8.78Z"/><path class="cls-1" d="M83.65,8.78V.22h2.72V8.78Z"/><path class="cls-1" d="M91.86,9A4.19,4.19,0,0,1,88.7,7.84a4.57,4.57,0,0,1-1.13-3.3,5.38,5.38,0,0,1,.51-2.43A3.49,3.49,0,0,1,89.56.55,4.72,4.72,0,0,1,91.93,0a4.21,4.21,0,0,1,3.16,1.16,4.56,4.56,0,0,1,1.12,3.29,4.68,4.68,0,0,1-1.14,3.36A4.28,4.28,0,0,1,91.86,9Zm0-2.34q1.5,0,1.5-2.16t-1.5-2.16q-1.5,0-1.5,2.16T91.89,6.66Z"/><path class="cls-1" d="M102.72,8.78,100,4.43V8.78H97.41V.22h2.34l2.74,4.33V.22H105V8.78Z"/></svg>