<svg id="SVG" xmlns="http://www.w3.org/2000/svg" viewBox="0 0 57.42 9"><defs><style>.cls-1{fill:#231f20;}</style></defs><path class="cls-1" d="M4.28,9A4.21,4.21,0,0,1,1.12,7.84,4.57,4.57,0,0,1,0,4.54,5.52,5.52,0,0,1,.5,2.11,3.51,3.51,0,0,1,2,.55,4.72,4.72,0,0,1,4.36,0,4.21,4.21,0,0,1,7.52,1.16,4.56,4.56,0,0,1,8.64,4.45,4.64,4.64,0,0,1,7.49,7.81,4.25,4.25,0,0,1,4.28,9Zm0-2.34q1.5,0,1.5-2.16T4.32,2.34q-1.5,0-1.5,2.16T4.32,6.66Z"/><path class="cls-1" d="M9.84,8.78V.22h3.32A4,4,0,0,1,15.82,1a2.79,2.79,0,0,1,.87,2.24q0,3-3.51,3h-.72V8.78ZM13.19,4.1A1.27,1.27,0,0,0,14,3.9a.85.85,0,0,0,.24-.68A.87.87,0,0,0,14,2.53a1.34,1.34,0,0,0-.81-.2h-.73V4.1Z"/><path class="cls-1" d="M17.83,8.78V.22h3.33A4,4,0,0,1,23.81,1a2.79,2.79,0,0,1,.87,2.24q0,3-3.51,3h-.72V8.78ZM21.18,4.1A1.23,1.23,0,0,0,22,3.9a.85.85,0,0,0,.25-.68A.88.88,0,0,0,22,2.53a1.3,1.3,0,0,0-.81-.2h-.73V4.1Z"/><path class="cls-1" d="M30.71,8.78,29.34,6h-1V8.78H25.82V.22H29.5a4.06,4.06,0,0,1,2.59.7A2.55,2.55,0,0,1,33,3,2.76,2.76,0,0,1,31.72,5.5l1.77,3.28ZM29.29,4.06a1.41,1.41,0,0,0,.86-.22.84.84,0,0,0,.27-.7.82.82,0,0,0-.27-.69,1.34,1.34,0,0,0-.86-.22h-.91V4.06Z"/><path class="cls-1" d="M34.27,8.78V.22h6.37v2.1H37V3.41H40.4v2.1H37V6.68h3.93l-.2,2.1Z"/><path class="cls-1" d="M44.53,5.44a4.44,4.44,0,0,1-2.16-.93,2.16,2.16,0,0,1-.69-1.7,2.46,2.46,0,0,1,1-2.07A4.31,4.31,0,0,1,45.33,0,4.24,4.24,0,0,1,47.9.69a2.6,2.6,0,0,1,1.06,2l-2.65.24A1.17,1.17,0,0,0,46,2.26a1.19,1.19,0,0,0-.72-.18,1.32,1.32,0,0,0-.69.14.47.47,0,0,0-.23.41.42.42,0,0,0,.18.35,1.63,1.63,0,0,0,.6.21l1.15.24a4.82,4.82,0,0,1,2.2.94,2.26,2.26,0,0,1,.67,1.71,2.57,2.57,0,0,1-1,2.17A4.57,4.57,0,0,1,45.32,9a4.33,4.33,0,0,1-2.75-.77A3,3,0,0,1,41.5,5.94h2.68a1.07,1.07,0,0,0,.39.74,1.53,1.53,0,0,0,.92.24c.65,0,1-.21,1-.63a.51.51,0,0,0-.17-.4,1.53,1.53,0,0,0-.59-.23Z"/><path class="cls-1" d="M52.82,5.44a4.44,4.44,0,0,1-2.16-.93A2.19,2.19,0,0,1,50,2.81a2.46,2.46,0,0,1,1-2.07A4.36,4.36,0,0,1,53.63,0,4.28,4.28,0,0,1,56.2.69a2.62,2.62,0,0,1,1,2l-2.65.24a1.11,1.11,0,0,0-.34-.63,1.19,1.19,0,0,0-.72-.18,1.32,1.32,0,0,0-.69.14.47.47,0,0,0-.23.41A.42.42,0,0,0,52.8,3a1.63,1.63,0,0,0,.6.21l1.15.24a4.77,4.77,0,0,1,2.2.94,2.26,2.26,0,0,1,.67,1.71,2.57,2.57,0,0,1-1,2.17A4.56,4.56,0,0,1,53.62,9a4.34,4.34,0,0,1-2.76-.77,3,3,0,0,1-1.07-2.29h2.69a1,1,0,0,0,.39.74,1.47,1.47,0,0,0,.91.24c.65,0,1-.21,1-.63a.48.48,0,0,0-.17-.4A1.53,1.53,0,0,0,54,5.66Z"/></svg>