<svg id="SVG" xmlns="http://www.w3.org/2000/svg" viewBox="0 0 92.19 9"><defs><style>.cls-1{fill:#231f20;}</style></defs><path class="cls-1" d="M0,8.78V.22H4A3.76,3.76,0,0,1,6.25.77,1.89,1.89,0,0,1,7,2.41,2,2,0,0,1,5.93,4.23a2.07,2.07,0,0,1,1.31,2,2.21,2.21,0,0,1-.87,1.87,4,4,0,0,1-2.47.65ZM3.55,3.47a1.11,1.11,0,0,0,.66-.15.58.58,0,0,0,.21-.5.58.58,0,0,0-.21-.5,1.11,1.11,0,0,0-.66-.15H2.48v1.3Zm.06,3.36a1.29,1.29,0,0,0,.8-.19.7.7,0,0,0,.25-.59.71.71,0,0,0-.25-.61,1.37,1.37,0,0,0-.8-.18H2.48V6.83Z"/><path class="cls-1" d="M12.36,9A4.21,4.21,0,0,1,9.2,7.84a4.57,4.57,0,0,1-1.12-3.3,5.38,5.38,0,0,1,.5-2.43A3.55,3.55,0,0,1,10.06.55,4.72,4.72,0,0,1,12.43,0a4.19,4.19,0,0,1,3.16,1.16,4.56,4.56,0,0,1,1.13,3.29,4.69,4.69,0,0,1-1.15,3.36A4.25,4.25,0,0,1,12.36,9Zm0-2.34q1.5,0,1.5-2.16T12.4,2.34q-1.5,0-1.5,2.16T12.4,6.66Z"/><path class="cls-1" d="M22.67.22h2.72v5a3.85,3.85,0,0,1-1,2.83,3.82,3.82,0,0,1-2.84,1q-3.73,0-3.73-3.8v-5h2.72v5.1a1.63,1.63,0,0,0,.25,1,1.15,1.15,0,0,0,1.59,0,1.63,1.63,0,0,0,.25-1Z"/><path class="cls-1" d="M31.66,8.78,30.29,6h-1V8.78H26.77V.22h3.67a4.09,4.09,0,0,1,2.6.7A2.55,2.55,0,0,1,33.92,3,2.76,2.76,0,0,1,32.66,5.5l1.78,3.28ZM30.24,4.06a1.41,1.41,0,0,0,.86-.22.84.84,0,0,0,.27-.7.82.82,0,0,0-.27-.69,1.34,1.34,0,0,0-.86-.22h-.91V4.06Z"/><path class="cls-1" d="M40.51,5.84H39.36V3.77H43V7.85a5.48,5.48,0,0,1-1.71.85,6.92,6.92,0,0,1-2.05.3A4.38,4.38,0,0,1,36,7.85a4.5,4.5,0,0,1-1.14-3.3A4.72,4.72,0,0,1,36,1.2,4.15,4.15,0,0,1,39.16,0a4.15,4.15,0,0,1,2.59.76A3.19,3.19,0,0,1,43,2.9l-2.74.23a1.1,1.1,0,0,0-.36-.65,1.16,1.16,0,0,0-.72-.2A1.26,1.26,0,0,0,38,2.8a3.07,3.07,0,0,0-.34,1.66,2.9,2.9,0,0,0,.4,1.74,1.63,1.63,0,0,0,1.36.52,2.6,2.6,0,0,0,1.09-.19Z"/><path class="cls-1" d="M44.34,8.78V.22h6.37v2.1H47V3.41h3.45v2.1H47V6.68H51l-.2,2.1Z"/><path class="cls-1" d="M56,9a4.21,4.21,0,0,1-3.17-1.16,4.57,4.57,0,0,1-1.12-3.3,5.52,5.52,0,0,1,.5-2.43A3.51,3.51,0,0,1,53.72.55,4.72,4.72,0,0,1,56.09,0a4.21,4.21,0,0,1,3.16,1.16,4.56,4.56,0,0,1,1.12,3.29,4.68,4.68,0,0,1-1.14,3.36A4.28,4.28,0,0,1,56,9Zm0-2.34q1.5,0,1.5-2.16t-1.5-2.16q-1.5,0-1.5,2.16T56.05,6.66Z"/><path class="cls-1" d="M61.57,8.78V.22h2.72V8.78Z"/><path class="cls-1" d="M68.36,5.44a4.44,4.44,0,0,1-2.16-.93,2.19,2.19,0,0,1-.69-1.7,2.46,2.46,0,0,1,1-2.07A4.36,4.36,0,0,1,69.17,0a4.23,4.23,0,0,1,2.56.69,2.6,2.6,0,0,1,1.06,2l-2.65.24a1.11,1.11,0,0,0-.34-.63,1.19,1.19,0,0,0-.72-.18,1.32,1.32,0,0,0-.69.14.47.47,0,0,0-.23.41.42.42,0,0,0,.18.35,1.63,1.63,0,0,0,.6.21l1.15.24a4.77,4.77,0,0,1,2.2.94A2.26,2.26,0,0,1,73,6.08a2.57,2.57,0,0,1-1,2.17A4.57,4.57,0,0,1,69.15,9a4.33,4.33,0,0,1-2.75-.77,3,3,0,0,1-1.07-2.29H68a1.07,1.07,0,0,0,.39.74,1.53,1.53,0,0,0,.92.24c.65,0,1-.21,1-.63a.48.48,0,0,0-.17-.4,1.53,1.53,0,0,0-.59-.23Z"/><path class="cls-1" d="M74,8.78V.22H80.4v2.1H76.7V3.41h3.46v2.1H76.7V6.68h3.94l-.21,2.1Z"/><path class="cls-1" d="M81.66,8.78V.22h2.72V8.78Z"/><path class="cls-1" d="M85.82,8.78V.22h6.37v2.1H88.5V3.41H92v2.1H88.5V6.68h3.93l-.2,2.1Z"/></svg>