<svg id="SVG" xmlns="http://www.w3.org/2000/svg" viewBox="0 0 81.44 9"><defs><style>.cls-1{fill:#231f20;}</style></defs><path class="cls-1" d="M3,5.44A4.43,4.43,0,0,1,.87,4.51a2.19,2.19,0,0,1-.69-1.7,2.46,2.46,0,0,1,1-2.07A4.36,4.36,0,0,1,3.84,0,4.26,4.26,0,0,1,6.41.69a2.62,2.62,0,0,1,1,2l-2.65.24a1.05,1.05,0,0,0-.34-.63,1.16,1.16,0,0,0-.71-.18,1.27,1.27,0,0,0-.69.14.45.45,0,0,0-.24.41A.42.42,0,0,0,3,3a1.63,1.63,0,0,0,.6.21l1.15.24A4.77,4.77,0,0,1,7,4.37a2.22,2.22,0,0,1,.67,1.71,2.55,2.55,0,0,1-1,2.17A4.56,4.56,0,0,1,3.83,9a4.38,4.38,0,0,1-2.76-.77A3,3,0,0,1,0,5.94H2.69a1.07,1.07,0,0,0,.39.74A1.51,1.51,0,0,0,4,6.92c.64,0,1-.21,1-.63a.49.49,0,0,0-.18-.4,1.46,1.46,0,0,0-.59-.23Z"/><path class="cls-1" d="M10.67,8.78V2.56H8.28V.22h7.5V2.56H13.39V8.78Z"/><path class="cls-1" d="M21.22,8.78,20.83,7.4H18.12l-.37,1.38H15.06L17.84.22H21.2L24,8.78ZM19.48,2.44,18.7,5.28h1.56Z"/><path class="cls-1" d="M25.6,8.78V5.6L22.79.22h2.89L27,3.34,28.31.22h2.83L28.33,5.6V8.78Z"/><path class="cls-1" d="M40.18,8.78,39.79,7.4H37.08l-.37,1.38H34L36.8.22h3.36l2.76,8.56ZM38.44,2.44l-.78,2.84h1.56Z"/><path class="cls-1" d="M46.27,5.44a4.44,4.44,0,0,1-2.16-.93,2.19,2.19,0,0,1-.69-1.7,2.46,2.46,0,0,1,1-2.07A4.36,4.36,0,0,1,47.08,0a4.23,4.23,0,0,1,2.56.69,2.6,2.6,0,0,1,1.06,2l-2.65.24a1.11,1.11,0,0,0-.34-.63A1.19,1.19,0,0,0,47,2.08a1.32,1.32,0,0,0-.69.14.47.47,0,0,0-.23.41.42.42,0,0,0,.18.35,1.63,1.63,0,0,0,.6.21L48,3.43a4.77,4.77,0,0,1,2.2.94,2.26,2.26,0,0,1,.67,1.71,2.57,2.57,0,0,1-1,2.17A4.57,4.57,0,0,1,47.06,9a4.33,4.33,0,0,1-2.75-.77,3,3,0,0,1-1.07-2.29h2.68a1.07,1.07,0,0,0,.39.74,1.53,1.53,0,0,0,.92.24c.65,0,1-.21,1-.63a.48.48,0,0,0-.17-.4,1.53,1.53,0,0,0-.59-.23Z"/><path class="cls-1" d="M51.94,8.78V.22h2.72V6.44h3.59L58,8.78Z"/><path class="cls-1" d="M59.21,8.78V.22h6.37v2.1h-3.7V3.41h3.46v2.1H61.88V6.68h3.94l-.2,2.1Z"/><path class="cls-1" d="M66.84,8.78V.22h6.37v2.1H69.52V3.41H73v2.1H69.52V6.68h3.93l-.2,2.1Z"/><path class="cls-1" d="M74.47,8.78V.22H77.8A4,4,0,0,1,80.45,1a2.79,2.79,0,0,1,.87,2.24q0,3-3.51,3h-.72V8.78ZM77.82,4.1a1.23,1.23,0,0,0,.81-.2.85.85,0,0,0,.25-.68.88.88,0,0,0-.25-.69,1.3,1.3,0,0,0-.81-.2h-.73V4.1Z"/></svg>