<svg id="SVG" xmlns="http://www.w3.org/2000/svg" viewBox="0 0 51.81 9"><defs><style>.cls-1{fill:#231f20;}</style></defs><path class="cls-1" d="M2.66,5.92V8.78H0V.22H6.07V2.36H2.66V3.77H5.88V5.92Z"/><path class="cls-1" d="M11.26,9A4.23,4.23,0,0,1,8.09,7.84,4.61,4.61,0,0,1,7,4.54a5.38,5.38,0,0,1,.51-2.43A3.49,3.49,0,0,1,9,.55,4.72,4.72,0,0,1,11.33,0a4.21,4.21,0,0,1,3.16,1.16,4.56,4.56,0,0,1,1.12,3.29,4.68,4.68,0,0,1-1.14,3.36A4.28,4.28,0,0,1,11.26,9Zm0-2.34q1.5,0,1.5-2.16t-1.5-2.16q-1.5,0-1.5,2.16T11.29,6.66Z"/><path class="cls-1" d="M16.81,8.78V.22h2.73V6.44h3.58L22.9,8.78Z"/><path class="cls-1" d="M24.08,8.78V.22h2.73V6.44H30.4l-.23,2.34Z"/><path class="cls-1" d="M35.28,9a4.21,4.21,0,0,1-3.16-1.16A4.57,4.57,0,0,1,31,4.54a5.38,5.38,0,0,1,.5-2.43A3.49,3.49,0,0,1,33,.55,4.72,4.72,0,0,1,35.35,0a4.19,4.19,0,0,1,3.16,1.16,4.56,4.56,0,0,1,1.13,3.29,4.69,4.69,0,0,1-1.15,3.36A4.26,4.26,0,0,1,35.28,9Zm0-2.34q1.5,0,1.5-2.16t-1.5-2.16q-1.5,0-1.5,2.16T35.31,6.66Z"/><path class="cls-1" d="M46.75,8.78,45.8,4l-.93,4.8H42L39.88.22h2.85l.88,5.3,1-5.24H47l1,5.24L49,.22h2.79L49.6,8.78Z"/></svg>