<svg id="SVG" xmlns="http://www.w3.org/2000/svg" viewBox="0 0 114.14 10.01"><defs><style>.cls-1{fill:#231f20;}</style></defs><path class="cls-1" d="M0,8.78V.22H3.52A4.63,4.63,0,0,1,6.85,1.29,4.17,4.17,0,0,1,8,4.44,4.37,4.37,0,0,1,6.83,7.67,4.57,4.57,0,0,1,3.52,8.78ZM3.61,6.5A1.42,1.42,0,0,0,4.82,6a2.4,2.4,0,0,0,.4-1.52A2.37,2.37,0,0,0,4.83,3,1.49,1.49,0,0,0,3.61,2.5H2.66v4Z"/><path class="cls-1" d="M13.22,9a4.21,4.21,0,0,1-3.16-1.16,4.57,4.57,0,0,1-1.12-3.3,5.52,5.52,0,0,1,.5-2.43A3.51,3.51,0,0,1,10.93.55,4.72,4.72,0,0,1,13.3,0a4.21,4.21,0,0,1,3.16,1.16,4.56,4.56,0,0,1,1.12,3.29,4.64,4.64,0,0,1-1.15,3.36A4.25,4.25,0,0,1,13.22,9Zm0-2.34q1.5,0,1.5-2.16t-1.5-2.16q-1.5,0-1.5,2.16T13.26,6.66Z"/><path class="cls-1" d="M26.6,8.78,23.84,4.43V8.78H21.3V.22h2.34l2.74,4.33V.22h2.54V8.78Z"/><path class="cls-1" d="M34.4,9a4.21,4.21,0,0,1-3.16-1.16,4.57,4.57,0,0,1-1.12-3.3,5.52,5.52,0,0,1,.5-2.43A3.55,3.55,0,0,1,32.1.55,4.79,4.79,0,0,1,34.48,0a4.22,4.22,0,0,1,3.16,1.16,4.56,4.56,0,0,1,1.12,3.29,4.64,4.64,0,0,1-1.15,3.36A4.25,4.25,0,0,1,34.4,9Zm0-2.34q1.5,0,1.5-2.16t-1.5-2.16q-1.5,0-1.5,2.16T34.44,6.66Z"/><path class="cls-1" d="M41.63,8.78V2.56H39.24V.22h7.5V2.56H44.35V8.78Z"/><path class="cls-1" d="M57.13,10l-1-1.31a5.24,5.24,0,0,1-1.83.3,4.06,4.06,0,0,1-3.11-1.18A4.55,4.55,0,0,1,50,4.54a4.66,4.66,0,0,1,1.14-3.35,4.9,4.9,0,0,1,6.37,0,4.49,4.49,0,0,1,1.13,3.26,4.75,4.75,0,0,1-1.09,3.27l1,1.2ZM53.66,5.57,55,4.5l.83,1a5.85,5.85,0,0,0,.09-1c0-1.47-.52-2.2-1.54-2.2s-1.54.73-1.54,2.2.51,2.18,1.54,2.18h.23Z"/><path class="cls-1" d="M64.63.22h2.72v5a3.85,3.85,0,0,1-1,2.83,3.8,3.8,0,0,1-2.84,1q-3.73,0-3.73-3.8v-5h2.72v5.1a1.63,1.63,0,0,0,.25,1,1.15,1.15,0,0,0,1.59,0,1.63,1.63,0,0,0,.25-1Z"/><path class="cls-1" d="M68.73,8.78V.22h6.38v2.1h-3.7V3.41h3.46v2.1H71.41V6.68h3.94l-.21,2.1Z"/><path class="cls-1" d="M79,5.44a4.44,4.44,0,0,1-2.16-.93,2.19,2.19,0,0,1-.69-1.7,2.46,2.46,0,0,1,1-2.07A4.36,4.36,0,0,1,79.8,0a4.26,4.26,0,0,1,2.57.69,2.62,2.62,0,0,1,1,2l-2.65.24a1.11,1.11,0,0,0-.34-.63,1.19,1.19,0,0,0-.72-.18,1.32,1.32,0,0,0-.69.14.47.47,0,0,0-.23.41A.42.42,0,0,0,79,3a1.63,1.63,0,0,0,.6.21l1.15.24a4.77,4.77,0,0,1,2.2.94,2.22,2.22,0,0,1,.67,1.71,2.57,2.57,0,0,1-1,2.17A4.56,4.56,0,0,1,79.79,9,4.36,4.36,0,0,1,77,8.23,3,3,0,0,1,76,5.94h2.69a1,1,0,0,0,.39.74,1.47,1.47,0,0,0,.91.24c.65,0,1-.21,1-.63a.49.49,0,0,0-.18-.4,1.46,1.46,0,0,0-.59-.23Z"/><path class="cls-1" d="M86.63,8.78V2.56H84.24V.22h7.5V2.56H89.35V8.78Z"/><path class="cls-1" d="M92.76,8.78V.22h2.72V8.78Z"/><path class="cls-1" d="M101,9A4.23,4.23,0,0,1,97.8,7.84a4.61,4.61,0,0,1-1.12-3.3,5.38,5.38,0,0,1,.51-2.43A3.49,3.49,0,0,1,98.67.55,4.72,4.72,0,0,1,101,0a4.21,4.21,0,0,1,3.16,1.16,4.56,4.56,0,0,1,1.12,3.29,4.68,4.68,0,0,1-1.14,3.36A4.28,4.28,0,0,1,101,9Zm0-2.34q1.5,0,1.5-2.16T101,2.34q-1.5,0-1.5,2.16T101,6.66Z"/><path class="cls-1" d="M111.83,8.78l-2.76-4.35V8.78h-2.55V.22h2.34l2.74,4.33V.22h2.54V8.78Z"/></svg>