<svg id="SVG" xmlns="http://www.w3.org/2000/svg" viewBox="0 0 154.07 9"><defs><style>.cls-1{fill:#231f20;}</style></defs><path class="cls-1" d="M6.9,8.78V4.54L5.63,8.78H3.71L2.44,4.54V8.78H0V.22H3.12L4.7,5.42,6.29.22H9.4V8.78Z"/><path class="cls-1" d="M16.51,8.78,16.13,7.4H13.42L13,8.78H10.36L13.14.22H16.5l2.76,8.56ZM14.77,2.44,14,5.28h1.56Z"/><path class="cls-1" d="M20.89,8.78V5.6L18.08.22H21l1.3,3.12L23.6.22h2.84L23.63,5.6V8.78Z"/><path class="cls-1" d="M29.8,8.78V.22h2.72V8.78Z"/><path class="cls-1" d="M41.78,8.78,39,4.43V8.78H36.48V.22h2.34l2.74,4.33V.22H44.1V8.78Z"/><path class="cls-1" d="M45.54,8.78V.22h6.37v2.1H48.22V3.41h3.45v2.1H48.22V6.68h3.93L52,8.78Z"/><path class="cls-1" d="M55.27,8.78,52.69.22h2.93L57,5.89,58.43.22h2.88L58.7,8.78Z"/><path class="cls-1" d="M62.27,8.78V.22h6.37v2.1h-3.7V3.41H68.4v2.1H64.94V6.68h3.94l-.21,2.1Z"/><path class="cls-1" d="M74.78,8.78,73.41,6h-1V8.78H69.9V.22h3.67a4.11,4.11,0,0,1,2.6.7A2.55,2.55,0,0,1,77.05,3,2.76,2.76,0,0,1,75.79,5.5l1.78,3.28ZM73.37,4.06a1.37,1.37,0,0,0,.85-.22.84.84,0,0,0,.27-.7.82.82,0,0,0-.27-.69,1.31,1.31,0,0,0-.85-.22h-.92V4.06Z"/><path class="cls-1" d="M80.87,8.78V.22h4a3.74,3.74,0,0,1,2.24.55,1.89,1.89,0,0,1,.75,1.64,1.93,1.93,0,0,1-1.07,1.82,2.05,2.05,0,0,1,1.31,2,2.22,2.22,0,0,1-.86,1.87,4,4,0,0,1-2.47.65Zm3.55-5.31a1.15,1.15,0,0,0,.66-.15.6.6,0,0,0,.2-.5.6.6,0,0,0-.2-.5,1.15,1.15,0,0,0-.66-.15H83.35v1.3Zm.06,3.36a1.31,1.31,0,0,0,.8-.19.69.69,0,0,0,.24-.59.71.71,0,0,0-.24-.61,1.39,1.39,0,0,0-.8-.18H83.35V6.83Z"/><path class="cls-1" d="M89.18,8.78V.22h6.37v2.1H91.86V3.41h3.45v2.1H91.86V6.68h3.93l-.2,2.1Z"/><path class="cls-1" d="M99.33,8.78V.22h3.33a4,4,0,0,1,2.65.74,2.79,2.79,0,0,1,.88,2.24c0,2-1.18,3-3.52,3H102V8.78Zm3.35-4.68a1.23,1.23,0,0,0,.81-.2.82.82,0,0,0,.25-.68.84.84,0,0,0-.25-.69,1.3,1.3,0,0,0-.81-.2H102V4.1Z"/><path class="cls-1" d="M107.33,8.78V.22h6.37v2.1H110V3.41h3.46v2.1H110V6.68h3.94l-.21,2.1Z"/><path class="cls-1" d="M119.84,8.78,118.47,6h-1V8.78H115V.22h3.67a4.11,4.11,0,0,1,2.6.7,2.55,2.55,0,0,1,.88,2.1,2.76,2.76,0,0,1-1.26,2.48l1.78,3.28Zm-1.41-4.72a1.37,1.37,0,0,0,.85-.22.84.84,0,0,0,.27-.7.82.82,0,0,0-.27-.69,1.31,1.31,0,0,0-.85-.22h-.92V4.06Z"/><path class="cls-1" d="M126.07,5.92V8.78h-2.66V.22h6.07V2.36h-3.41V3.77h3.22V5.92Z"/><path class="cls-1" d="M130.62,8.78V.22H137v2.1h-3.7V3.41h3.46v2.1h-3.46V6.68h3.94l-.2,2.1Z"/><path class="cls-1" d="M146.15,5.51A3.49,3.49,0,0,1,145,8.08,4.11,4.11,0,0,1,142.2,9a4.06,4.06,0,0,1-3.1-1.14A4.52,4.52,0,0,1,138,4.6a4.78,4.78,0,0,1,1.12-3.4A4.12,4.12,0,0,1,142.29,0a3.86,3.86,0,0,1,2.55.77A3.59,3.59,0,0,1,146,3.1l-2.71.3a1.61,1.61,0,0,0-.38-.81,1,1,0,0,0-.73-.25,1.06,1.06,0,0,0-1,.52,3.23,3.23,0,0,0-.32,1.62,3.08,3.08,0,0,0,.34,1.65,1.15,1.15,0,0,0,1,.53c.68,0,1.07-.38,1.16-1.15Z"/><path class="cls-1" d="M149,8.78V2.56h-2.38V.22h7.5V2.56h-2.39V8.78Z"/></svg>