<svg id="SVG" xmlns="http://www.w3.org/2000/svg" viewBox="0 0 63.06 9"><defs><style>.cls-1{fill:#231f20;}</style></defs><path class="cls-1" d="M8.14,5.51A3.49,3.49,0,0,1,7,8.08,4.11,4.11,0,0,1,4.19,9a4.06,4.06,0,0,1-3.1-1.14A4.52,4.52,0,0,1,0,4.6,4.78,4.78,0,0,1,1.12,1.2,4.12,4.12,0,0,1,4.28,0,3.86,3.86,0,0,1,6.83.77,3.59,3.59,0,0,1,8,3.1l-2.71.3a1.61,1.61,0,0,0-.38-.81,1,1,0,0,0-.73-.25,1.06,1.06,0,0,0-1,.52,3.23,3.23,0,0,0-.32,1.62,3.08,3.08,0,0,0,.34,1.65,1.15,1.15,0,0,0,1,.53c.68,0,1.07-.38,1.16-1.15Z"/><path class="cls-1" d="M13.14,9A4.21,4.21,0,0,1,10,7.84a4.57,4.57,0,0,1-1.12-3.3,5.38,5.38,0,0,1,.5-2.43A3.55,3.55,0,0,1,10.84.55,4.72,4.72,0,0,1,13.21,0a4.19,4.19,0,0,1,3.16,1.16A4.56,4.56,0,0,1,17.5,4.45a4.69,4.69,0,0,1-1.15,3.36A4.25,4.25,0,0,1,13.14,9Zm0-2.34q1.5,0,1.5-2.16t-1.5-2.16q-1.5,0-1.5,2.16T13.18,6.66Z"/><path class="cls-1" d="M24,8.78,21.24,4.43V8.78H18.7V.22H21l2.73,4.33V.22h2.55V8.78Z"/><path class="cls-1" d="M27.76,8.78V.22h3.51a4.66,4.66,0,0,1,3.34,1.07,4.17,4.17,0,0,1,1.13,3.15,4.38,4.38,0,0,1-1.16,3.23,4.55,4.55,0,0,1-3.31,1.11ZM31.37,6.5A1.43,1.43,0,0,0,32.58,6,2.46,2.46,0,0,0,33,4.48,2.37,2.37,0,0,0,32.59,3a1.49,1.49,0,0,0-1.22-.49h-.95v4Z"/><path class="cls-1" d="M36.94,8.78V.22h6.37v2.1h-3.7V3.41h3.46v2.1H39.61V6.68h3.94l-.21,2.1Z"/><path class="cls-1" d="M51.47,8.78V4.54L50.2,8.78H48.28L47,4.54V8.78H44.57V.22h3.12l1.58,5.2L50.86.22H54V8.78Z"/><path class="cls-1" d="M60.71,8.78,58,4.43V8.78H55.4V.22h2.34l2.74,4.33V.22H63V8.78Z"/></svg>