<svg id="SVG" xmlns="http://www.w3.org/2000/svg" viewBox="0 0 52.26 9"><defs><style>.cls-1{fill:#231f20;}</style></defs><path class="cls-1" d="M2.66,5.92V8.78H0V.22H6.07V2.36H2.66V3.77H5.88V5.92Z"/><path class="cls-1" d="M12.11,8.78,11.72,7.4H9L8.64,8.78H6L8.74.22H12.1l2.76,8.56ZM10.37,2.44,9.59,5.28h1.56Z"/><path class="cls-1" d="M18.2,5.44A4.44,4.44,0,0,1,16,4.51a2.19,2.19,0,0,1-.69-1.7,2.46,2.46,0,0,1,1-2.07A4.36,4.36,0,0,1,19,0a4.26,4.26,0,0,1,2.57.69,2.62,2.62,0,0,1,1.05,2L20,2.89a1.11,1.11,0,0,0-.34-.63,1.19,1.19,0,0,0-.72-.18,1.32,1.32,0,0,0-.69.14.47.47,0,0,0-.23.41.42.42,0,0,0,.18.35,1.63,1.63,0,0,0,.6.21l1.15.24a4.77,4.77,0,0,1,2.2.94,2.22,2.22,0,0,1,.67,1.71,2.57,2.57,0,0,1-1,2.17A4.56,4.56,0,0,1,19,9a4.36,4.36,0,0,1-2.76-.77,3,3,0,0,1-1.07-2.29h2.69a1,1,0,0,0,.39.74,1.47,1.47,0,0,0,.91.24c.65,0,1-.21,1-.63a.49.49,0,0,0-.18-.4,1.46,1.46,0,0,0-.59-.23Z"/><path class="cls-1" d="M31.76,5.51a3.49,3.49,0,0,1-1.12,2.57A4.11,4.11,0,0,1,27.82,9a4.1,4.1,0,0,1-3.11-1.14A4.56,4.56,0,0,1,23.63,4.6a4.78,4.78,0,0,1,1.12-3.4A4.12,4.12,0,0,1,27.91,0a3.86,3.86,0,0,1,2.55.77A3.69,3.69,0,0,1,31.63,3.1l-2.71.3a1.61,1.61,0,0,0-.38-.81,1,1,0,0,0-.74-.25,1,1,0,0,0-1,.52,3.13,3.13,0,0,0-.32,1.62,3.19,3.19,0,0,0,.33,1.65,1.17,1.17,0,0,0,1.05.53c.68,0,1.07-.38,1.16-1.15Z"/><path class="cls-1" d="M32.72,8.78V.22h2.73V8.78Z"/><path class="cls-1" d="M39.52,5.44a4.43,4.43,0,0,1-2.17-.93,2.19,2.19,0,0,1-.69-1.7,2.46,2.46,0,0,1,1-2.07A4.36,4.36,0,0,1,40.32,0a4.26,4.26,0,0,1,2.57.69,2.62,2.62,0,0,1,1,2l-2.65.24A1.05,1.05,0,0,0,41,2.26a1.16,1.16,0,0,0-.71-.18,1.27,1.27,0,0,0-.69.14.45.45,0,0,0-.24.41.42.42,0,0,0,.18.35,1.63,1.63,0,0,0,.6.21l1.15.24a4.77,4.77,0,0,1,2.2.94,2.22,2.22,0,0,1,.67,1.71,2.55,2.55,0,0,1-1,2.17A4.56,4.56,0,0,1,40.31,9a4.38,4.38,0,0,1-2.76-.77,3,3,0,0,1-1.07-2.29h2.69a1.07,1.07,0,0,0,.39.74,1.51,1.51,0,0,0,.92.24c.64,0,1-.21,1-.63a.49.49,0,0,0-.18-.4,1.46,1.46,0,0,0-.59-.23Z"/><path class="cls-1" d="M47.15,8.78V2.56H44.76V.22h7.5V2.56H49.87V8.78Z"/></svg>