<svg id="SVG" xmlns="http://www.w3.org/2000/svg" viewBox="0 0 65.13 9"><defs><style>.cls-1{fill:#231f20;}</style></defs><path class="cls-1" d="M3,5.44A4.43,4.43,0,0,1,.87,4.51a2.19,2.19,0,0,1-.69-1.7,2.46,2.46,0,0,1,1-2.07A4.36,4.36,0,0,1,3.84,0,4.26,4.26,0,0,1,6.41.69a2.62,2.62,0,0,1,1,2l-2.65.24a1.05,1.05,0,0,0-.34-.63,1.16,1.16,0,0,0-.71-.18,1.27,1.27,0,0,0-.69.14.45.45,0,0,0-.24.41A.42.42,0,0,0,3,3a1.63,1.63,0,0,0,.6.21l1.15.24A4.77,4.77,0,0,1,7,4.37a2.22,2.22,0,0,1,.67,1.71,2.55,2.55,0,0,1-1,2.17A4.56,4.56,0,0,1,3.83,9a4.38,4.38,0,0,1-2.76-.77A3,3,0,0,1,0,5.94H2.69a1.07,1.07,0,0,0,.39.74A1.51,1.51,0,0,0,4,6.92c.64,0,1-.21,1-.63a.49.49,0,0,0-.18-.4,1.46,1.46,0,0,0-.59-.23Z"/><path class="cls-1" d="M13.45.22h2.73v5a3.85,3.85,0,0,1-1,2.83,3.83,3.83,0,0,1-2.85,1Q8.64,9,8.64,5.2v-5h2.72v5.1a1.69,1.69,0,0,0,.25,1,1,1,0,0,0,.8.32,1,1,0,0,0,.8-.32,1.7,1.7,0,0,0,.24-1Z"/><path class="cls-1" d="M17.56,8.78V.22h3.32A4,4,0,0,1,23.53,1a2.76,2.76,0,0,1,.88,2.24q0,3-3.52,3h-.72V8.78ZM20.9,4.1a1.23,1.23,0,0,0,.81-.2A.82.82,0,0,0,22,3.22a.84.84,0,0,0-.25-.69,1.3,1.3,0,0,0-.81-.2h-.73V4.1Z"/><path class="cls-1" d="M25.55,8.78V.22h3.32A4,4,0,0,1,31.52,1,2.76,2.76,0,0,1,32.4,3.2q0,3-3.52,3h-.72V8.78ZM28.9,4.1a1.27,1.27,0,0,0,.81-.2A.85.85,0,0,0,30,3.22a.87.87,0,0,0-.24-.69,1.34,1.34,0,0,0-.81-.2h-.74V4.1Z"/><path class="cls-1" d="M38.42,8.78,37.06,6h-1V8.78H33.54V.22h3.67a4.09,4.09,0,0,1,2.6.7A2.55,2.55,0,0,1,40.69,3,2.76,2.76,0,0,1,39.43,5.5l1.78,3.28ZM37,4.06a1.41,1.41,0,0,0,.86-.22.84.84,0,0,0,.27-.7.82.82,0,0,0-.27-.69A1.34,1.34,0,0,0,37,2.23H36.1V4.06Z"/><path class="cls-1" d="M42,8.78V.22h6.37v2.1h-3.7V3.41h3.46v2.1H44.66V6.68H48.6l-.2,2.1Z"/><path class="cls-1" d="M52.25,5.44a4.43,4.43,0,0,1-2.17-.93,2.19,2.19,0,0,1-.69-1.7,2.46,2.46,0,0,1,1-2.07A4.36,4.36,0,0,1,53.05,0a4.24,4.24,0,0,1,2.57.69,2.63,2.63,0,0,1,1.06,2L54,2.89a1.05,1.05,0,0,0-.34-.63A1.14,1.14,0,0,0,53,2.08a1.27,1.27,0,0,0-.69.14.45.45,0,0,0-.24.41.42.42,0,0,0,.18.35,1.63,1.63,0,0,0,.6.21L54,3.43a4.77,4.77,0,0,1,2.19.94,2.22,2.22,0,0,1,.67,1.71,2.56,2.56,0,0,1-1,2.17A4.61,4.61,0,0,1,53,9a4.33,4.33,0,0,1-2.75-.77,3,3,0,0,1-1.08-2.29H51.9a1.07,1.07,0,0,0,.39.74,1.51,1.51,0,0,0,.92.24c.65,0,1-.21,1-.63a.51.51,0,0,0-.17-.4,1.59,1.59,0,0,0-.6-.23Z"/><path class="cls-1" d="M60.54,5.44a4.43,4.43,0,0,1-2.17-.93,2.19,2.19,0,0,1-.69-1.7,2.46,2.46,0,0,1,1-2.07A4.36,4.36,0,0,1,61.34,0a4.24,4.24,0,0,1,2.57.69,2.6,2.6,0,0,1,1.06,2l-2.66.24A1.05,1.05,0,0,0,62,2.26a1.14,1.14,0,0,0-.71-.18,1.29,1.29,0,0,0-.69.14.45.45,0,0,0-.24.41.43.43,0,0,0,.19.35,1.5,1.5,0,0,0,.59.21l1.16.24a4.77,4.77,0,0,1,2.19.94,2.22,2.22,0,0,1,.67,1.71,2.56,2.56,0,0,1-1,2.17A4.61,4.61,0,0,1,61.33,9a4.33,4.33,0,0,1-2.75-.77A3,3,0,0,1,57.5,5.94h2.69a1.07,1.07,0,0,0,.39.74,1.51,1.51,0,0,0,.92.24c.65,0,1-.21,1-.63a.51.51,0,0,0-.17-.4,1.59,1.59,0,0,0-.6-.23Z"/></svg>