<svg id="SVG" xmlns="http://www.w3.org/2000/svg" viewBox="0 0 146.11 9"><defs><style>.cls-1{fill:#231f20;}</style></defs><path class="cls-1" d="M4.88,8.78,3.52,6h-1V8.78H0V.22H3.67a4.09,4.09,0,0,1,2.6.7A2.55,2.55,0,0,1,7.15,3,2.76,2.76,0,0,1,5.89,5.5L7.67,8.78ZM3.47,4.06a1.41,1.41,0,0,0,.86-.22.84.84,0,0,0,.27-.7.82.82,0,0,0-.27-.69,1.34,1.34,0,0,0-.86-.22H2.56V4.06Z"/><path class="cls-1" d="M8.45,8.78V.22h6.37v2.1h-3.7V3.41h3.46v2.1H11.12V6.68h3.94l-.2,2.1Z"/><path class="cls-1" d="M22.48,8.78,21.53,4l-.94,4.8H17.75L15.6.22h2.86l.87,5.3,1-5.24h2.4l1,5.24.89-5.3h2.8L25.32,8.78Z"/><path class="cls-1" d="M33,8.78,32.64,7.4H29.93l-.37,1.38H26.87L29.65.22H33l2.76,8.56ZM31.28,2.44,30.5,5.28h1.56Z"/><path class="cls-1" d="M41.62,8.78,40.25,6h-1V8.78H36.73V.22H40.4a4.09,4.09,0,0,1,2.6.7A2.55,2.55,0,0,1,43.88,3,2.76,2.76,0,0,1,42.62,5.5L44.4,8.78ZM40.2,4.06a1.41,1.41,0,0,0,.86-.22.84.84,0,0,0,.27-.7.82.82,0,0,0-.27-.69,1.34,1.34,0,0,0-.86-.22h-.91V4.06Z"/><path class="cls-1" d="M45.18,8.78V.22H48.7A4.63,4.63,0,0,1,52,1.29a4.17,4.17,0,0,1,1.13,3.15A4.37,4.37,0,0,1,52,7.67,4.57,4.57,0,0,1,48.7,8.78ZM48.79,6.5A1.42,1.42,0,0,0,50,6a2.4,2.4,0,0,0,.4-1.52A2.37,2.37,0,0,0,50,3a1.49,1.49,0,0,0-1.22-.49h-.95v4Z"/><path class="cls-1" d="M56.88,8.78V.22H59.6V8.78Z"/><path class="cls-1" d="M66.35,8.78,63.59,4.43V8.78H61V.22h2.34l2.74,4.33V.22h2.54V8.78Z"/><path class="cls-1" d="M70.1,8.78V.22h3.52A4.63,4.63,0,0,1,77,1.29a4.13,4.13,0,0,1,1.13,3.15,4.37,4.37,0,0,1-1.15,3.23,4.55,4.55,0,0,1-3.31,1.11ZM73.71,6.5A1.45,1.45,0,0,0,74.93,6a2.47,2.47,0,0,0,.39-1.52A2.37,2.37,0,0,0,74.93,3a1.48,1.48,0,0,0-1.22-.49h-.94v4Z"/><path class="cls-1" d="M79.28,8.78V.22H82V8.78Z"/><path class="cls-1" d="M86.11,5.92V8.78H83.45V.22h6.07V2.36H86.11V3.77h3.22V5.92Z"/><path class="cls-1" d="M93.32,5.92V8.78H90.66V.22h6.07V2.36H93.32V3.77h3.22V5.92Z"/><path class="cls-1" d="M97.87,8.78V.22h6.37v2.1h-3.69V3.41H104v2.1h-3.45V6.68h3.93l-.2,2.1Z"/><path class="cls-1" d="M110.39,8.78,109,6h-1V8.78H105.5V.22h3.67a4.09,4.09,0,0,1,2.6.7,2.55,2.55,0,0,1,.88,2.1,2.76,2.76,0,0,1-1.26,2.48l1.78,3.28ZM109,4.06a1.41,1.41,0,0,0,.86-.22.84.84,0,0,0,.27-.7.82.82,0,0,0-.27-.69,1.34,1.34,0,0,0-.86-.22h-.91V4.06Z"/><path class="cls-1" d="M114,8.78V.22h6.37v2.1h-3.69V3.41h3.45v2.1h-3.45V6.68h3.93l-.2,2.1Z"/><path class="cls-1" d="M126.89,8.78l-2.76-4.35V8.78h-2.55V.22h2.34l2.74,4.33V.22h2.54V8.78Z"/><path class="cls-1" d="M138.54,5.51a3.52,3.52,0,0,1-1.12,2.57,4.15,4.15,0,0,1-2.83.92,4.08,4.08,0,0,1-3.1-1.14A4.52,4.52,0,0,1,130.4,4.6a4.82,4.82,0,0,1,1.12-3.4A4.14,4.14,0,0,1,134.69,0a3.9,3.9,0,0,1,2.55.77,3.69,3.69,0,0,1,1.17,2.33l-2.72.3a1.53,1.53,0,0,0-.38-.81,1,1,0,0,0-.73-.25,1.06,1.06,0,0,0-1,.52,3.23,3.23,0,0,0-.32,1.62,3.08,3.08,0,0,0,.34,1.65,1.15,1.15,0,0,0,1,.53c.68,0,1.07-.38,1.17-1.15Z"/><path class="cls-1" d="M139.5,8.78V.22h6.37v2.1h-3.7V3.41h3.46v2.1h-3.46V6.68h3.94l-.2,2.1Z"/></svg>