<svg id="SVG" xmlns="http://www.w3.org/2000/svg" viewBox="0 0 33.54 9"><defs><style>.cls-1{fill:#231f20;}</style></defs><path class="cls-1" d="M4.28,9A4.21,4.21,0,0,1,1.12,7.84,4.57,4.57,0,0,1,0,4.54,5.52,5.52,0,0,1,.5,2.11,3.51,3.51,0,0,1,2,.55,4.72,4.72,0,0,1,4.36,0,4.21,4.21,0,0,1,7.52,1.16,4.56,4.56,0,0,1,8.64,4.45,4.64,4.64,0,0,1,7.49,7.81,4.25,4.25,0,0,1,4.28,9Zm0-2.34q1.5,0,1.5-2.16T4.32,2.34q-1.5,0-1.5,2.16T4.32,6.66Z"/><path class="cls-1" d="M9.84,8.78V.22h4a3.76,3.76,0,0,1,2.24.55,1.89,1.89,0,0,1,.75,1.64,2,2,0,0,1-1.07,1.82,2.07,2.07,0,0,1,1.31,2,2.21,2.21,0,0,1-.87,1.87,4,4,0,0,1-2.47.65Zm3.55-5.31a1.11,1.11,0,0,0,.66-.15.58.58,0,0,0,.21-.5.58.58,0,0,0-.21-.5,1.11,1.11,0,0,0-.66-.15H12.32v1.3Zm.06,3.36a1.29,1.29,0,0,0,.8-.19.7.7,0,0,0,.25-.59.71.71,0,0,0-.25-.61,1.37,1.37,0,0,0-.8-.18H12.32V6.83Z"/><path class="cls-1" d="M18.16,8.78V.22h6.37v2.1h-3.7V3.41h3.46v2.1H20.83V6.68h3.94l-.21,2.1Z"/><path class="cls-1" d="M28,8.78V5.6L25.19.22h2.89l1.31,3.12L30.71.22h2.83L30.73,5.6V8.78Z"/></svg>