<svg id="SVG" xmlns="http://www.w3.org/2000/svg" viewBox="0 0 113.54 9"><defs><style>.cls-1{fill:#231f20;}</style></defs><path class="cls-1" d="M4.88,8.78,3.52,6h-1V8.78H0V.22H3.67a4.09,4.09,0,0,1,2.6.7A2.55,2.55,0,0,1,7.15,3,2.76,2.76,0,0,1,5.89,5.5L7.67,8.78ZM3.47,4.06a1.41,1.41,0,0,0,.86-.22.84.84,0,0,0,.27-.7.82.82,0,0,0-.27-.69,1.34,1.34,0,0,0-.86-.22H2.56V4.06Z"/><path class="cls-1" d="M8.45,8.78V.22h6.37v2.1h-3.7V3.41h3.46v2.1H11.12V6.68h3.94l-.2,2.1Z"/><path class="cls-1" d="M20.22.22h2.72V5.46A3.47,3.47,0,0,1,22,8.08,3.69,3.69,0,0,1,19.32,9a3.67,3.67,0,0,1-2.69-.91,3.8,3.8,0,0,1-1-2.69h2.71c0,.84.35,1.26.95,1.26s.9-.36.9-1.08Z"/><path class="cls-1" d="M24.32,8.78V.22H30.7v2.1H27V3.41h3.46v2.1H27V6.68h3.94l-.21,2.1Z"/><path class="cls-1" d="M39.85,5.51a3.49,3.49,0,0,1-1.12,2.57A4.12,4.12,0,0,1,35.9,9a4.09,4.09,0,0,1-3.1-1.14A4.56,4.56,0,0,1,31.72,4.6a4.78,4.78,0,0,1,1.12-3.4A4.12,4.12,0,0,1,36,0a3.86,3.86,0,0,1,2.55.77A3.69,3.69,0,0,1,39.72,3.1L37,3.4a1.54,1.54,0,0,0-.39-.81,1,1,0,0,0-.73-.25,1.06,1.06,0,0,0-1,.52,3.25,3.25,0,0,0-.31,1.62,3.19,3.19,0,0,0,.33,1.65,1.16,1.16,0,0,0,1,.53c.68,0,1.06-.38,1.16-1.15Z"/><path class="cls-1" d="M42.66,8.78V2.56H40.27V.22h7.5V2.56H45.38V8.78Z"/><path class="cls-1" d="M51.31,8.78V.22h6.37v2.1H54V3.41h3.45v2.1H54V6.68h3.93l-.2,2.1Z"/><path class="cls-1" d="M61,8.78,58.46.22h2.93l1.4,5.67L64.2.22h2.88l-2.6,8.56Z"/><path class="cls-1" d="M68,8.78V.22h2.72V8.78Z"/><path class="cls-1" d="M72.2,8.78V.22h3.52a4.63,4.63,0,0,1,3.33,1.07,4.13,4.13,0,0,1,1.13,3.15A4.37,4.37,0,0,1,79,7.67a4.55,4.55,0,0,1-3.31,1.11ZM75.81,6.5A1.45,1.45,0,0,0,77,6a2.47,2.47,0,0,0,.39-1.52A2.37,2.37,0,0,0,77,3a1.48,1.48,0,0,0-1.22-.49h-.94v4Z"/><path class="cls-1" d="M81.38,8.78V.22h6.37v2.1H84.06V3.41h3.45v2.1H84.06V6.68H88l-.2,2.1Z"/><path class="cls-1" d="M94.32,8.78,91.56,4.43V8.78H89V.22h2.34l2.74,4.33V.22h2.54V8.78Z"/><path class="cls-1" d="M106,5.51a3.52,3.52,0,0,1-1.12,2.57A4.14,4.14,0,0,1,102,9a4.08,4.08,0,0,1-3.1-1.14A4.57,4.57,0,0,1,97.83,4.6,4.78,4.78,0,0,1,99,1.2,4.1,4.1,0,0,1,102.12,0a3.86,3.86,0,0,1,2.55.77,3.69,3.69,0,0,1,1.17,2.33l-2.71.3a1.54,1.54,0,0,0-.39-.81,1,1,0,0,0-.73-.25,1.06,1.06,0,0,0-1,.52,3.23,3.23,0,0,0-.32,1.62,3.18,3.18,0,0,0,.34,1.65,1.15,1.15,0,0,0,1,.53c.68,0,1.07-.38,1.17-1.15Z"/><path class="cls-1" d="M106.93,8.78V.22h6.37v2.1h-3.69V3.41h3.45v2.1h-3.45V6.68h3.93l-.2,2.1Z"/></svg>