<svg id="SVG" xmlns="http://www.w3.org/2000/svg" viewBox="0 0 166.35 9"><defs><style>.cls-1{fill:#231f20;}</style></defs><path class="cls-1" d="M6.9,8.78V4.54L5.63,8.78H3.71L2.44,4.54V8.78H0V.22H3.12L4.7,5.42,6.29.22H9.4V8.78Z"/><path class="cls-1" d="M16.51,8.78,16.13,7.4H13.42L13,8.78H10.36L13.14.22H16.5l2.76,8.56ZM14.77,2.44,14,5.28h1.56Z"/><path class="cls-1" d="M20.89,8.78V5.6L18.08.22H21l1.3,3.12L23.6.22h2.84L23.63,5.6V8.78Z"/><path class="cls-1" d="M29.8,8.78V.22h2.72V8.78Z"/><path class="cls-1" d="M41.78,8.78,39,4.43V8.78H36.48V.22h2.34l2.74,4.33V.22H44.1V8.78Z"/><path class="cls-1" d="M45.54,8.78V.22h6.37v2.1H48.22V3.41h3.45v2.1H48.22V6.68h3.93L52,8.78Z"/><path class="cls-1" d="M55.27,8.78,52.69.22h2.93L57,5.89,58.43.22h2.88L58.7,8.78Z"/><path class="cls-1" d="M62.27,8.78V.22h6.37v2.1h-3.7V3.41H68.4v2.1H64.94V6.68h3.94l-.21,2.1Z"/><path class="cls-1" d="M74.78,8.78,73.41,6h-1V8.78H69.9V.22h3.67a4.11,4.11,0,0,1,2.6.7A2.55,2.55,0,0,1,77.05,3,2.76,2.76,0,0,1,75.79,5.5l1.78,3.28ZM73.37,4.06a1.37,1.37,0,0,0,.85-.22.84.84,0,0,0,.27-.7.82.82,0,0,0-.27-.69,1.31,1.31,0,0,0-.85-.22h-.92V4.06Z"/><path class="cls-1" d="M80.87,8.78V.22h4a3.74,3.74,0,0,1,2.24.55,1.89,1.89,0,0,1,.75,1.64,1.93,1.93,0,0,1-1.07,1.82,2.05,2.05,0,0,1,1.31,2,2.22,2.22,0,0,1-.86,1.87,4,4,0,0,1-2.47.65Zm3.55-5.31a1.15,1.15,0,0,0,.66-.15.6.6,0,0,0,.2-.5.6.6,0,0,0-.2-.5,1.15,1.15,0,0,0-.66-.15H83.35v1.3Zm.06,3.36a1.31,1.31,0,0,0,.8-.19.69.69,0,0,0,.24-.59.71.71,0,0,0-.24-.61,1.39,1.39,0,0,0-.8-.18H83.35V6.83Z"/><path class="cls-1" d="M89.18,8.78V.22h6.37v2.1H91.86V3.41h3.45v2.1H91.86V6.68h3.93l-.2,2.1Z"/><path class="cls-1" d="M107.23,5.51a3.52,3.52,0,0,1-1.12,2.57,4.14,4.14,0,0,1-2.83.92,4.08,4.08,0,0,1-3.1-1.14A4.57,4.57,0,0,1,99.09,4.6a4.78,4.78,0,0,1,1.13-3.4A4.1,4.1,0,0,1,103.38,0a3.86,3.86,0,0,1,2.55.77A3.69,3.69,0,0,1,107.1,3.1l-2.71.3a1.54,1.54,0,0,0-.39-.81,1,1,0,0,0-.73-.25,1.06,1.06,0,0,0-1,.52A3.23,3.23,0,0,0,102,4.48a3.18,3.18,0,0,0,.34,1.65,1.15,1.15,0,0,0,1,.53c.68,0,1.07-.38,1.17-1.15Z"/><path class="cls-1" d="M112.23,9a4.21,4.21,0,0,1-3.16-1.16A4.57,4.57,0,0,1,108,4.54a5.52,5.52,0,0,1,.5-2.43A3.51,3.51,0,0,1,109.94.55,4.72,4.72,0,0,1,112.31,0a4.21,4.21,0,0,1,3.16,1.16,4.56,4.56,0,0,1,1.12,3.29,4.64,4.64,0,0,1-1.15,3.36A4.25,4.25,0,0,1,112.23,9Zm0-2.34q1.5,0,1.5-2.16t-1.5-2.16q-1.5,0-1.5,2.16T112.27,6.66Z"/><path class="cls-1" d="M124.69,8.78V4.54l-1.27,4.24H121.5l-1.27-4.24V8.78h-2.44V.22h3.12l1.58,5.2,1.59-5.2h3.11V8.78Z"/><path class="cls-1" d="M128.63,8.78V.22H132A4,4,0,0,1,134.6,1a2.76,2.76,0,0,1,.88,2.24q0,3-3.52,3h-.72V8.78ZM132,4.1a1.23,1.23,0,0,0,.81-.2.82.82,0,0,0,.25-.68.84.84,0,0,0-.25-.69,1.3,1.3,0,0,0-.81-.2h-.73V4.1Z"/><path class="cls-1" d="M136.62,8.78V.22h2.72V6.44h3.59l-.23,2.34Z"/><path class="cls-1" d="M143.89,8.78V.22h6.37v2.1h-3.69V3.41H150v2.1h-3.45V6.68h3.93l-.2,2.1Z"/><path class="cls-1" d="M153.61,8.78V2.56h-2.39V.22h7.5V2.56h-2.39V8.78Z"/><path class="cls-1" d="M159.74,8.78V.22h6.37v2.1h-3.69V3.41h3.45v2.1h-3.45V6.68h3.93l-.2,2.1Z"/></svg>