<svg id="SVG" xmlns="http://www.w3.org/2000/svg" viewBox="0 0 46.7 9"><defs><style>.cls-1{fill:#231f20;}</style></defs><path class="cls-1" d="M0,8.78V.22H6.37v2.1H2.68V3.41H6.13v2.1H2.68V6.68H6.61l-.2,2.1Z"/><path class="cls-1" d="M7.63,8.78V.22h2.73V6.44h3.58l-.22,2.34Z"/><path class="cls-1" d="M14.9,8.78V.22h2.73V8.78Z"/><path class="cls-1" d="M21,8.78V2.56H18.65V.22h7.5V2.56H23.76V8.78Z"/><path class="cls-1" d="M27.17,8.78V.22h2.72V8.78Z"/><path class="cls-1" d="M34,5.44a4.43,4.43,0,0,1-2.17-.93,2.19,2.19,0,0,1-.69-1.7,2.46,2.46,0,0,1,1-2.07A4.36,4.36,0,0,1,34.76,0a4.24,4.24,0,0,1,2.57.69,2.6,2.6,0,0,1,1.06,2l-2.66.24a1.05,1.05,0,0,0-.34-.63,1.14,1.14,0,0,0-.71-.18,1.29,1.29,0,0,0-.69.14.45.45,0,0,0-.24.41.41.41,0,0,0,.19.35,1.5,1.5,0,0,0,.59.21l1.16.24a4.77,4.77,0,0,1,2.19.94,2.22,2.22,0,0,1,.67,1.71,2.56,2.56,0,0,1-1,2.17A4.61,4.61,0,0,1,34.75,9,4.33,4.33,0,0,1,32,8.23a3,3,0,0,1-1.08-2.29h2.69a1.07,1.07,0,0,0,.39.74,1.51,1.51,0,0,0,.92.24c.65,0,1-.21,1-.63a.51.51,0,0,0-.17-.4,1.59,1.59,0,0,0-.6-.23Z"/><path class="cls-1" d="M41.59,8.78V2.56H39.2V.22h7.5V2.56H44.31V8.78Z"/></svg>