<svg id="SVG" xmlns="http://www.w3.org/2000/svg" viewBox="0 0 62.41 9"><defs><style>.cls-1{fill:#231f20;}</style></defs><path class="cls-1" d="M8.14,5.51A3.49,3.49,0,0,1,7,8.08,4.11,4.11,0,0,1,4.19,9a4.06,4.06,0,0,1-3.1-1.14A4.52,4.52,0,0,1,0,4.6,4.78,4.78,0,0,1,1.12,1.2,4.12,4.12,0,0,1,4.28,0,3.86,3.86,0,0,1,6.83.77,3.59,3.59,0,0,1,8,3.1l-2.71.3a1.61,1.61,0,0,0-.38-.81,1,1,0,0,0-.73-.25,1.06,1.06,0,0,0-1,.52,3.23,3.23,0,0,0-.32,1.62,3.08,3.08,0,0,0,.34,1.65,1.15,1.15,0,0,0,1,.53c.68,0,1.07-.38,1.16-1.15Z"/><path class="cls-1" d="M13.14,9A4.21,4.21,0,0,1,10,7.84a4.57,4.57,0,0,1-1.12-3.3,5.38,5.38,0,0,1,.5-2.43A3.55,3.55,0,0,1,10.84.55,4.72,4.72,0,0,1,13.21,0a4.19,4.19,0,0,1,3.16,1.16A4.56,4.56,0,0,1,17.5,4.45a4.69,4.69,0,0,1-1.15,3.36A4.25,4.25,0,0,1,13.14,9Zm0-2.34q1.5,0,1.5-2.16t-1.5-2.16q-1.5,0-1.5,2.16T13.18,6.66Z"/><path class="cls-1" d="M24,8.78,21.24,4.43V8.78H18.7V.22H21l2.73,4.33V.22h2.55V8.78Z"/><path class="cls-1" d="M30.42,5.92V8.78H27.76V.22h6.07V2.36H30.42V3.77h3.22V5.92Z"/><path class="cls-1" d="M39,9a4.21,4.21,0,0,1-3.16-1.16,4.57,4.57,0,0,1-1.12-3.3,5.52,5.52,0,0,1,.5-2.43A3.55,3.55,0,0,1,36.71.55,4.77,4.77,0,0,1,39.08,0a4.23,4.23,0,0,1,3.17,1.16,4.6,4.6,0,0,1,1.12,3.29,4.64,4.64,0,0,1-1.15,3.36A4.25,4.25,0,0,1,39,9Zm0-2.34q1.5,0,1.5-2.16t-1.5-2.16q-1.5,0-1.5,2.16T39.05,6.66Z"/><path class="cls-1" d="M49.45,8.78,48.08,6h-1V8.78H44.57V.22h3.67a4.11,4.11,0,0,1,2.6.7A2.55,2.55,0,0,1,51.72,3,2.76,2.76,0,0,1,50.46,5.5l1.78,3.28ZM48,4.06a1.37,1.37,0,0,0,.85-.22.84.84,0,0,0,.27-.7.82.82,0,0,0-.27-.69A1.31,1.31,0,0,0,48,2.23h-.92V4.06Z"/><path class="cls-1" d="M59.92,8.78V4.54L58.64,8.78H56.72L55.45,4.54V8.78H53V.22h3.12l1.58,5.2L59.3.22h3.11V8.78Z"/></svg>