<svg id="SVG" xmlns="http://www.w3.org/2000/svg" viewBox="0 0 174.75 9"><defs><style>.cls-1{fill:#231f20;}</style></defs><path class="cls-1" d="M5.3,8.78,2.54,4.43V8.78H0V.22H2.34L5.08,4.55V.22H7.62V8.78Z"/><path class="cls-1" d="M13.1,9A4.21,4.21,0,0,1,9.94,7.84a4.57,4.57,0,0,1-1.12-3.3,5.52,5.52,0,0,1,.5-2.43A3.51,3.51,0,0,1,10.81.55,4.72,4.72,0,0,1,13.18,0a4.21,4.21,0,0,1,3.16,1.16,4.56,4.56,0,0,1,1.12,3.29,4.64,4.64,0,0,1-1.15,3.36A4.25,4.25,0,0,1,13.1,9Zm0-2.34q1.5,0,1.5-2.16t-1.5-2.16q-1.5,0-1.5,2.16T13.14,6.66Z"/><path class="cls-1" d="M21.18,8.78V.22H23.9V8.78Z"/><path class="cls-1" d="M30.65,8.78,27.89,4.43V8.78H25.34V.22h2.34l2.74,4.33V.22H33V8.78Z"/><path class="cls-1" d="M34.4,8.78V.22h3.52a4.63,4.63,0,0,1,3.33,1.07,4.13,4.13,0,0,1,1.13,3.15,4.33,4.33,0,0,1-1.15,3.23,4.55,4.55,0,0,1-3.31,1.11ZM38,6.5A1.44,1.44,0,0,0,39.23,6a2.47,2.47,0,0,0,.39-1.52A2.37,2.37,0,0,0,39.23,3,1.47,1.47,0,0,0,38,2.5h-1v4Z"/><path class="cls-1" d="M43.58,8.78V.22H50v2.1h-3.7V3.41h3.46v2.1H46.26V6.68H50.2L50,8.78Z"/><path class="cls-1" d="M51.22,8.78V.22h3.32A4,4,0,0,1,57.19,1a2.79,2.79,0,0,1,.88,2.24q0,3-3.52,3h-.72V8.78ZM54.56,4.1a1.23,1.23,0,0,0,.81-.2.82.82,0,0,0,.25-.68.84.84,0,0,0-.25-.69,1.3,1.3,0,0,0-.81-.2h-.73V4.1Z"/><path class="cls-1" d="M59.21,8.78V.22h6.37v2.1h-3.7V3.41h3.46v2.1H61.88V6.68h3.94l-.21,2.1Z"/><path class="cls-1" d="M72.14,8.78,69.38,4.43V8.78H66.84V.22h2.34l2.73,4.33V.22h2.55V8.78Z"/><path class="cls-1" d="M75.9,8.78V.22h3.51a4.64,4.64,0,0,1,3.34,1.07,4.17,4.17,0,0,1,1.13,3.15,4.37,4.37,0,0,1-1.15,3.23,4.58,4.58,0,0,1-3.32,1.11ZM79.51,6.5A1.43,1.43,0,0,0,80.72,6a2.4,2.4,0,0,0,.4-1.52A2.37,2.37,0,0,0,80.73,3a1.49,1.49,0,0,0-1.22-.49h-1v4Z"/><path class="cls-1" d="M90.15,8.78,89.77,7.4H87.06l-.37,1.38H84L86.78.22h3.36L92.9,8.78ZM88.41,2.44l-.78,2.84h1.56Z"/><path class="cls-1" d="M99.17,8.78,96.41,4.43V8.78H93.86V.22H96.2l2.74,4.33V.22h2.54V8.78Z"/><path class="cls-1" d="M104.89,8.78V2.56H102.5V.22H110V2.56h-2.39V8.78Z"/><path class="cls-1" d="M115.51,8.78V2.56h-2.39V.22h7.5V2.56h-2.39V8.78Z"/><path class="cls-1" d="M126.65,8.78V5.57h-2.28V8.78h-2.73V.22h2.73V3.17h2.28V.22h2.72V8.78Z"/><path class="cls-1" d="M134.85,9a4.21,4.21,0,0,1-3.16-1.16,4.57,4.57,0,0,1-1.12-3.3,5.52,5.52,0,0,1,.5-2.43A3.51,3.51,0,0,1,132.56.55,4.72,4.72,0,0,1,134.93,0a4.21,4.21,0,0,1,3.16,1.16,4.56,4.56,0,0,1,1.12,3.29,4.64,4.64,0,0,1-1.15,3.36A4.25,4.25,0,0,1,134.85,9Zm0-2.34q1.5,0,1.5-2.16t-1.5-2.16q-1.5,0-1.5,2.16T134.89,6.66Z"/><path class="cls-1" d="M145.16.22h2.73v5a3.85,3.85,0,0,1-1,2.83,3.83,3.83,0,0,1-2.85,1q-3.74,0-3.73-3.8v-5h2.72v5.1a1.69,1.69,0,0,0,.25,1,1,1,0,0,0,.8.32,1,1,0,0,0,.8-.32,1.7,1.7,0,0,0,.24-1Z"/><path class="cls-1" d="M154.68,5.84h-1.15V3.77h3.66V7.85a5.48,5.48,0,0,1-1.71.85,7,7,0,0,1-2,.3,4.36,4.36,0,0,1-3.26-1.15A4.5,4.5,0,0,1,149,4.55a4.67,4.67,0,0,1,1.13-3.35,4.77,4.77,0,0,1,5.75-.44,3.11,3.11,0,0,1,1.2,2.14l-2.73.23a1.1,1.1,0,0,0-.36-.65,1.16,1.16,0,0,0-.72-.2,1.25,1.25,0,0,0-1.13.52,3.06,3.06,0,0,0-.35,1.66,2.89,2.89,0,0,0,.41,1.74,1.61,1.61,0,0,0,1.36.52,2.63,2.63,0,0,0,1.09-.19Z"/><path class="cls-1" d="M163.51,8.78V5.57h-2.28V8.78h-2.72V.22h2.72V3.17h2.28V.22h2.72V8.78Z"/><path class="cls-1" d="M169.64,8.78V2.56h-2.39V.22h7.5V2.56h-2.38V8.78Z"/></svg>