<svg id="SVG" xmlns="http://www.w3.org/2000/svg" viewBox="0 0 87.13 9"><defs><style>.cls-1{fill:#231f20;}</style></defs><path class="cls-1" d="M6.88,8.78,5.93,4,5,8.78H2.15L0,.22H2.86l.87,5.3,1-5.24h2.4l1,5.24L9.07.22h2.8L9.72,8.78Z"/><path class="cls-1" d="M17.42,8.78,17,7.4H14.33L14,8.78H11.27L14.05.22h3.36l2.76,8.56ZM15.68,2.44,14.9,5.28h1.56Z"/><path class="cls-1" d="M26,8.78,24.65,6h-1V8.78H21.13V.22H24.8a4.09,4.09,0,0,1,2.6.7A2.55,2.55,0,0,1,28.28,3,2.76,2.76,0,0,1,27,5.5L28.8,8.78ZM24.6,4.06a1.41,1.41,0,0,0,.86-.22.84.84,0,0,0,.27-.7.82.82,0,0,0-.27-.69,1.34,1.34,0,0,0-.86-.22h-.91V4.06Z"/><path class="cls-1" d="M32.1,8.78V.22h2.72V8.78Z"/><path class="cls-1" d="M38.89,5.44a4.44,4.44,0,0,1-2.16-.93A2.19,2.19,0,0,1,36,2.81,2.46,2.46,0,0,1,37,.74,4.36,4.36,0,0,1,39.7,0a4.23,4.23,0,0,1,2.56.69,2.6,2.6,0,0,1,1.06,2l-2.65.24a1.11,1.11,0,0,0-.34-.63,1.19,1.19,0,0,0-.72-.18,1.32,1.32,0,0,0-.69.14.47.47,0,0,0-.23.41.42.42,0,0,0,.18.35,1.63,1.63,0,0,0,.6.21l1.15.24a4.77,4.77,0,0,1,2.2.94,2.26,2.26,0,0,1,.67,1.71,2.57,2.57,0,0,1-1,2.17A4.57,4.57,0,0,1,39.68,9a4.33,4.33,0,0,1-2.75-.77,3,3,0,0,1-1.07-2.29h2.68a1.07,1.07,0,0,0,.39.74,1.53,1.53,0,0,0,.92.24c.65,0,1-.21,1-.63a.48.48,0,0,0-.17-.4,1.53,1.53,0,0,0-.59-.23Z"/><path class="cls-1" d="M47.08,8.78V.22H50.4A4,4,0,0,1,53.05,1a2.79,2.79,0,0,1,.88,2.24c0,2-1.18,3-3.52,3h-.72V8.78ZM50.42,4.1a1.23,1.23,0,0,0,.81-.2.82.82,0,0,0,.25-.68.84.84,0,0,0-.25-.69,1.3,1.3,0,0,0-.81-.2h-.73V4.1Z"/><path class="cls-1" d="M55.07,8.78V.22h6.37v2.1h-3.7V3.41H61.2v2.1H57.74V6.68h3.94l-.2,2.1Z"/><path class="cls-1" d="M68.55,8.78,68.17,7.4H65.46l-.37,1.38H62.4L65.18.22h3.36L71.3,8.78ZM66.81,2.44,66,5.28h1.56Z"/><path class="cls-1" d="M79.56,5.51a3.52,3.52,0,0,1-1.12,2.57A4.15,4.15,0,0,1,75.61,9a4.08,4.08,0,0,1-3.1-1.14A4.52,4.52,0,0,1,71.42,4.6a4.82,4.82,0,0,1,1.12-3.4A4.14,4.14,0,0,1,75.71,0a3.88,3.88,0,0,1,2.55.77A3.69,3.69,0,0,1,79.43,3.1l-2.72.3a1.53,1.53,0,0,0-.38-.81,1,1,0,0,0-.73-.25,1.06,1.06,0,0,0-1,.52,3.23,3.23,0,0,0-.32,1.62,3.18,3.18,0,0,0,.34,1.65,1.15,1.15,0,0,0,1,.53c.68,0,1.07-.38,1.17-1.15Z"/><path class="cls-1" d="M80.52,8.78V.22h6.37v2.1h-3.7V3.41h3.46v2.1H83.19V6.68h3.94l-.2,2.1Z"/></svg>