<?xml version="1.0" encoding="UTF-8"?><svg xmlns="http://www.w3.org/2000/svg" viewBox="0 0 1366 1057.6"><defs><style>.e{fill:#999;}.f{fill:#ccc;}.g{fill:#d82f1f;}.h{fill:gray;}</style></defs><g id="a"/><g id="b"><g id="c"><path class="e" d="M0,232.67s246.5-43.17,360.5-43.17c192.5,0,329,61.8,382.5,61.8,190,0,287.5,21.2,365.5,21.2,28.5,0,143.29-15.3,257.5-15.3v800.4H0V232.67Z"/><path class="h" d="M399.04,201.5s48.46,22,59.46,27,8,6.85,0,7.43-120,26.57-137,42.57c-.56,.69-1.45,1.99-1.55,3.67-.52,9,22.52,17.16,30.05,19.83,45.87,16.26,334,86.38,399,105,51.6,14.78,127.09,44.25,212,110,16.67-24.67,33.33-49.33,50-74-367.89-91.89-556.2-137-600.5-144.5-8.6-1.46-44.82-7.07-45.03-16.12-.09-3.86,7.44-7.08,13.03-9.88,12-6,81-27,97-31s18-9,6-14-71.73-27.48-71.73-27.48l-10.74,1.48Z"/></g><g id="d"><polygon class="e" points="326.79 192.5 326.79 72.86 337.5 62.5 399.5 62.5 405.79 68.86 405.79 192.5 326.79 192.5"/><path class="h" d="M426.79,185.86v-21l2-2-9.59-19h-13.41v19.14l-9.29-15.5h-10l-12,21h4.68v16h-30.68v-6l-21.71-2.5v-23.14l-13,18,4,3v9l-3,6,2,2.44v5.56l28,1c20,4,39,1,39,1l7,3,26-2v-2.67h14v-5.33c0-5-4-6-4-6Z"/><path class="g" d="M362.79,23s-3.89-4.32,0-8.22c0,0-2.5-9.28,3-14.78,5,5,3,15,3,15,0,0,4,4,0,8l15,18h8s2,3,2,11l16,16-4,1s-41.71-10.64-79,4l-4-1,40-49Z"/><polygon class="f" points="348.79 13.86 346.63 10.86 340.79 10.86 337.79 13.86 341.79 16.99 341.79 20.86 338.79 24.86 338.89 26 348.96 25 348.79 23.79 345.79 20.86 345.79 15.86 348.79 13.86"/><polygon class="g" points="338.89 26 341.5 56.5 350.5 46.5 348.96 25 338.89 26"/></g></g></svg>