<?xml version="1.0" encoding="UTF-8"?><svg xmlns="http://www.w3.org/2000/svg" viewBox="0 0 117 201.86"><defs><style>.d{fill:#999;}.e{fill:#ccc;}.f{fill:#d82f1f;}.g{fill:gray;}</style></defs><g id="a"/><g id="b"><g id="c"><polygon class="d" points="13 192.5 13 72.86 23.71 62.5 85.71 62.5 92 68.86 92 192.5 13 192.5"/><path class="g" d="M113,185.86v-21l2-2-9.59-19h-13.41v19.14l-9.29-15.5h-10l-12,21h4.68v16h-30.68v-6l-21.71-2.5v-23.14L0,170.86l4,3v9l-3,6,2,2.44v5.56l28,1c20,4,39,1,39,1l7,3,26-2v-2.67h14v-5.33c0-5-4-6-4-6Z"/><path class="f" d="M49,23s-3.89-4.32,0-8.22c0,0-2.5-9.28,3-14.78,5,5,3,15,3,15,0,0,4,4,0,8l15,18h8s2,3,2,11l16,16-4,1s-41.71-10.64-79,4l-4-1L49,23Z"/><polygon class="e" points="35 13.86 32.84 10.86 27 10.86 24 13.86 28 16.99 28 20.86 25 24.86 25.1 26 35.17 25 35 23.79 32 20.86 32 15.86 35 13.86"/><polygon class="f" points="25.1 26 27.71 56.5 36.71 46.5 35.17 25 25.1 26"/></g></g></svg>