<?xml version="1.0" encoding="UTF-8"?><svg xmlns="http://www.w3.org/2000/svg" viewBox="0 0 691.06 316.98"><defs><style>.d{fill:gray;}</style></defs><g id="a"/><g id="b"><g id="c"><path class="d" d="M79.1,1.48s48.46,22,59.46,27,8,6.85,0,7.43S18.56,62.48,1.56,78.48c-.56,.69-1.45,1.99-1.55,3.67-.52,9,22.52,17.16,30.05,19.83,45.87,16.26,334,86.38,399,105,51.6,14.78,127.09,44.25,212,110,16.67-24.67,33.33-49.33,50-74C323.17,151.09,134.86,105.98,90.56,98.48c-8.6-1.46-44.82-7.07-45.03-16.12-.09-3.86,7.44-7.08,13.03-9.88,12-6,81-27,97-31s18-9,6-14S89.83,0,89.83,0l-10.74,1.48Z"/></g></g></svg>