<?xml version="1.0" encoding="UTF-8"?><svg xmlns="http://www.w3.org/2000/svg" viewBox="0 0 1366 194"><defs><style>.d{fill:#1a1a1a;}</style></defs><g id="a"/><g id="b"><g id="c"><path class="d" d="M0,0V149.02c10.48,5.34,24.08,10.48,41.42,13.96-.6,.34-.92,.52-.92,.52,.63-.11,1.25-.22,1.88-.33,1.88,.37,3.8,.72,5.76,1.05,0,0-1.01-.56-2.75-1.59,74.19-13.74,99.11-50.13,99.11-50.13,0,0,35,49,86,64,0,0-34.3-39-46.65-72.5,0,0,12.92,8.35,34.2,15.86-.36,.42-.55,.64-.55,.64,.42-.12,.84-.26,1.27-.39,18.64,6.51,43.55,12.31,71.73,11.39,0,0-23.16-10.33-45.32-22.93,9.08-5.16,17.32-11.07,24.57-17.03,14.53,1.25,30.27,1.3,45.75-1.04,0,0-13.43-3.56-31.34-11.99,12.32-12.19,19.34-22.01,19.34-22.01,0,0,23.42,34.22,92.47,48.82-10.9,7.03-18.53,11.25-18.53,11.25,104.61-17.43,139.48-68.4,139.48-68.4,0,0,46.94,65.72,115.34,85.83,0,0-46-52.3-62.56-97.23,0,0,18.8,12.14,49.47,22.52-2.43,2.98-3.96,4.71-3.96,4.71,3.02-.89,5.95-1.95,8.81-3.12,24.02,7.65,54.57,13.89,88.71,12.77,0,0-30.36-13.54-59.77-30.18,11.75-9.4,20.23-19.14,24.28-24.16,2.02,.22,4.06,.42,6.11,.61,7.75,8.19,29.48,26.51,73.77,34.12-14.55,8.58-27.61,14.46-27.61,14.46,38,3,79-10,79-10-20,24-58,45-58,45,78-13,104-51,104-51,0,0,35,49,86,64,0,0-33.99-38.65-46.48-72.05,.16-.02,.32-.03,.47-.05,3.72,2.29,23.51,13.9,52.58,21.19-10.5,14.58-19.57,24.9-19.57,24.9,15.44-4.54,29.41-12.2,41.4-20.68,9.91,1.36,20.5,2.04,31.6,1.68,0,0-8.83-3.94-20.81-9.92,13.83-11.36,24.02-22.85,29.42-29.45,2.85-.15,5.71-.36,8.56-.65,6.64,7.12,21.71,20.57,48.76,31.78-22.72,13.7-40.68,22.11-40.68,22.11,49.62,9.39,111.31-5.36,111.31-5.36-24.14,25.48-77.79,49.62-77.79,49.62,50.96,4.02,105.95-13.41,105.95-13.41-26.82,32.19-77.78,60.35-77.78,60.35,104.61-17.43,139.48-68.4,139.48-68.4,0,0,46.94,65.72,115.34,85.83,0,0-21.3-24.22-40.13-53.85,25.41,.82,47.27-5.62,61.72-11.53,.71,.14,1.44,.27,2.16,.41V0H0Z"/></g></g></svg>