<?xml version="1.0" encoding="UTF-8"?><svg xmlns="http://www.w3.org/2000/svg" viewBox="0 0 1366.35 567.36"><defs><style>.d{fill:#333;}</style></defs><g id="a"/><g id="b"><g id="c"><path class="d" d="M1366.35,212.84c-36.91-23.29-49.86-52.83-49.86-52.83,22,19.93,47.13,13.59,49.86,12.82v-.23c-45.53-27.68-65.24-64.46-65.24-64.46,11.87,8.35,31.21,8.79,31.21,8.79-44.84-30.33-47.04-61.98-47.04-61.98,12.31,7.91,20.22,1.76,20.22,1.76-25.5-11.87-26.37-56.71-26.37-56.71,0,0-1.32,44.4-21.54,63.3,0,0,10.55-3.52,16.7-11.43,0,0-9.52,51.75-45.44,84.13-8.56-17.01-11.32-31.96-11.32-31.96,4.51,5.8,12.25,8.38,12.25,8.38-14.83-13.86-15.8-46.42-15.8-46.42,0,0-.64,32.88-19.34,41.59,0,0,5.8,4.51,14.83-1.29,0,0-1.61,23.21-34.5,45.46,0,0,14.18-.32,22.89-6.45,0,0-10.07,18.77-32.79,36.78-12.45-14.22-18.21-24.95-18.21-24.95,11.87,8.35,31.21,8.79,31.21,8.79-44.84-30.33-47.04-61.98-47.04-61.98,12.31,7.91,20.22,1.76,20.22,1.76-25.5-11.87-26.37-56.71-26.37-56.71,0,0-1.32,44.4-21.54,63.3,0,0,10.55-3.52,16.7-11.43,0,0-7.73,42.03-35.55,74.04-29.5-24.45-31.11-47.4-31.11-47.4,11.09,7.13,18.22,1.58,18.22,1.58-22.97-10.69-23.76-51.08-23.76-51.08,0,0-1.19,40-19.4,57.03,0,0,9.5-3.17,15.05-10.3,0,0-8.84,48.05-42.43,77.11-17.74-26.25-26.35-50.01-26.35-50.01,11.31,11.31,43.78,18.2,43.78,18.2-43.29-35.91-54.61-97.41-54.61-97.41,6.89,8.86,18.69,12.79,18.69,12.79-22.63-21.15-24.11-70.84-24.11-70.84,0,0-.98,50.18-29.52,63.46,0,0,8.86,6.89,22.63-1.97,0,0-2.46,35.42-52.64,69.36,0,0,21.65-.49,34.93-9.84,0,0-16.38,30.57-53.51,58.84-15.55-24.42-20.22-49.76-20.22-49.76,5.3,6.82,14.39,9.84,14.39,9.84-17.42-16.28-18.55-54.52-18.55-54.52,0,0-.76,38.62-22.72,48.84,0,0,6.82,5.3,17.42-1.51,0,0-1.89,27.26-40.51,53.39,0,0,16.66-.38,26.88-7.57,0,0-5.79,10.79-18.39,24.51-42.37-32.07-44.56-63.58-44.56-63.58,13.77,8.86,22.63,1.97,22.63,1.97-28.53-13.28-29.52-63.46-29.52-63.46,0,0-1.48,49.69-24.11,70.84,0,0,11.81-3.94,18.69-12.79,0,0-11.31,61.49-54.61,97.41,0,0,32.47-6.89,43.78-18.2,0,0-8.61,23.77-26.35,50.01-33.59-29.07-42.43-77.11-42.43-77.11,5.54,7.13,15.05,10.3,15.05,10.3-18.22-17.03-19.4-57.03-19.4-57.03,0,0-.79,40.39-23.76,51.08,0,0,7.13,5.54,18.22-1.58,0,0-1.61,22.95-31.11,47.4-27.82-32.01-35.55-74.04-35.55-74.04,6.15,7.91,16.7,11.43,16.7,11.43-20.22-18.9-21.54-63.3-21.54-63.3,0,0-.88,44.84-26.37,56.71,0,0,7.91,6.15,20.22-1.76,0,0-2.2,31.65-47.04,61.98,0,0,19.34-.44,31.21-8.79,0,0-5.76,10.73-18.21,24.95-22.72-18.01-32.79-36.78-32.79-36.78,8.7,6.13,22.89,6.45,22.89,6.45-32.88-22.24-34.5-45.46-34.5-45.46,9.03,5.8,14.83,1.29,14.83,1.29-18.7-8.7-19.34-41.59-19.34-41.59,0,0-.97,32.56-15.8,46.42,0,0,7.74-2.58,12.25-8.38,0,0-2.75,14.95-11.32,31.96-35.92-32.39-45.44-84.13-45.44-84.13,6.15,7.91,16.7,11.43,16.7,11.43-20.22-18.9-21.54-63.3-21.54-63.3,0,0-.88,44.84-26.37,56.71,0,0,7.91,6.15,20.22-1.76,0,0-1.57,22.62-29.15,47.94-16.43-18.48-17.49-33.56-17.49-33.56,10.6,6.82,17.42,1.51,17.42,1.51-21.96-10.22-22.72-48.84-22.72-48.84,0,0-1.14,38.24-18.55,54.52,0,0,9.09-3.03,14.39-9.84,0,0-4.66,25.34-20.22,49.76-37.14-28.27-53.51-58.84-53.51-58.84,13.28,9.35,34.93,9.84,34.93,9.84-50.18-33.94-52.64-69.36-52.64-69.36,13.77,8.86,22.63,1.97,22.63,1.97-28.53-13.28-29.52-63.46-29.52-63.46,0,0-1.48,49.69-24.11,70.84,0,0,11.81-3.94,18.69-12.79,0,0-11.31,61.49-54.61,97.41,0,0,32.47-6.89,43.78-18.2,0,0-8.61,23.77-26.35,50.01-33.59-29.07-42.43-77.11-42.43-77.11,5.54,7.13,15.05,10.3,15.05,10.3-18.22-17.03-19.4-57.03-19.4-57.03,0,0-.79,40.39-23.76,51.08,0,0,7.13,5.54,18.22-1.58,0,0-1.61,22.95-31.11,47.4-27.82-32.01-35.55-74.04-35.55-74.04,6.15,7.91,16.7,11.43,16.7,11.43-20.22-18.9-21.54-63.3-21.54-63.3,0,0-.88,44.84-26.37,56.71,0,0,7.91,6.15,20.22-1.76,0,0-2.2,31.65-47.04,61.98,0,0,19.34-.44,31.21-8.79,0,0-19.78,36.92-65.5,64.62,0,0,26.81,8.35,50.11-12.75,0,0-20.22,46.16-82.2,68.57v289.77H1366.35V212.84ZM150.03,241.77c-1.9-3.84-3.31-7.04-4.26-9.36,.58-.2,1.16-.41,1.75-.64,1.96,1.82,4.09,3.54,6.33,5.13-1.15,1.55-2.42,3.18-3.82,4.87Zm12.42-18.58c-.09-.13-.19-.25-.28-.38,.26-.22,.52-.44,.77-.67,0,0-.16,.37-.5,1.04Zm-10.73-16.06c-11.87-19.53-17.65-35.49-17.65-35.49,3.89,3.89,10.59,7.2,17.35,9.79-.9,.64-1.79,1.27-2.73,1.91,0,0,2.6-.06,6.4-.57,5.51,1.92,10.72,3.34,14.12,4.19-4.08,5.54-9.87,12.6-17.49,20.17Zm18.61-21.7c-1.74-1.55-3.41-3.14-5.03-4.77,4-1.17,8.1-2.84,11.51-5.24,0,0-2.09,3.9-6.48,10.02Zm72.51,17.23c-4.61,6.77-9.83,13.68-15.67,20.38-11.77-18.75-17.49-34.56-17.49-34.56,7.55,7.55,26.8,12.65,33.16,14.17Zm-11.96,61.43c-8.42-13.89-12.09-24.52-12.09-24.52,5.1,5.85,12.41,10.56,19.53,14.16-2.27,3.38-4.74,6.85-7.43,10.36Zm12.72-18.67c-3.53-4.08-6.77-8.25-9.74-12.39,8.94-4.49,18.16-10.39,24.56-17.74,0,0-4.51,13.03-14.83,30.13Zm84.19-51.78c8.78,7.95,18,12.15,26.37,14.25-3.09,3.61-6.48,7.08-10.18,10.3-11.54-13.94-16.19-24.55-16.19-24.55Zm33.22,42.16c-6.48-5.77-11.87-11.47-16.29-16.73,5.15-1.25,17.34-4.54,25.69-9.36,1.43-.03,2.78-.1,4.02-.2-2.16,5.18-6.61,15.02-13.42,26.29Zm52.44-33.29c-4.1-5.73-6.06-9.38-6.06-9.38,2.88,2.02,6.26,3.51,9.64,4.6-1.07,1.49-2.27,3.09-3.59,4.78Zm8.16-11.46c-.76-.65-1.48-1.3-2.19-1.95,1.81-.86,3.56-1.84,5.16-2.97,0,0-.97,1.81-2.97,4.92Zm74.26,24.82c-3.99,7.6-9.13,15.5-15.71,22.6-12.84-20.58-19.09-37.84-19.09-37.84,7.7,7.7,26.34,13.1,34.8,15.24Zm-17.25,58.03c-5.13-9.88-7.44-16.57-7.44-16.57,3.34,3.84,7.55,7.23,12.06,10.19-1.45,2.11-2.99,4.25-4.62,6.37Zm8.82,15.19c-1.23-1.9-2.38-3.76-3.46-5.57,3.62-2.29,7.01-4.96,9.66-8,0,0-1.92,5.55-6.2,13.57Zm3.81-34.5c-2.96-3.9-5.69-7.8-8.21-11.62,6.44-2.06,14.13-5.15,18.02-9.03,0,0-3.23,8.9-9.81,20.66Zm55.82,19.5c-5.63-7.43-7.97-12.75-7.97-12.75,4.25,3.85,8.67,6.36,12.9,7.97-1.57,1.58-3.21,3.17-4.93,4.78Zm14.9,15.84c-.33-.28-.65-.57-.97-.85,.81-.66,1.63-1.35,2.43-2.08,0,0-.47,1.06-1.46,2.93Zm69.29,29.84c-1.9-3.84-3.31-7.04-4.26-9.36,.58-.2,1.16-.41,1.75-.64,1.96,1.82,4.09,3.54,6.33,5.13-1.15,1.55-2.42,3.18-3.82,4.87Zm12.42-18.58c-.09-.13-.19-.25-.28-.38,.26-.22,.52-.44,.77-.67,0,0-.16,.37-.5,1.04Zm-10.73-16.06c-11.87-19.53-17.65-35.49-17.65-35.49,3.89,3.89,10.59,7.2,17.35,9.79-.9,.64-1.79,1.27-2.73,1.91,0,0,2.6-.06,6.4-.57,5.51,1.92,10.72,3.34,14.12,4.19-4.08,5.54-9.87,12.6-17.49,20.17Zm18.61-21.7c-1.74-1.55-3.41-3.14-5.03-4.77,4-1.17,8.1-2.84,11.51-5.24,0,0-2.09,3.9-6.48,10.02Zm72.51,17.23c-4.61,6.77-9.83,13.68-15.67,20.38-11.77-18.75-17.49-34.56-17.49-34.56,7.55,7.55,26.8,12.65,33.16,14.17Zm-11.96,61.43c-8.42-13.89-12.09-24.52-12.09-24.52,5.1,5.85,12.41,10.56,19.53,14.16-2.27,3.38-4.74,6.85-7.43,10.36Zm12.72-18.67c-3.53-4.08-6.77-8.25-9.74-12.39,8.94-4.49,18.16-10.39,24.56-17.74,0,0-4.51,13.03-14.83,30.13Zm79.28-91.68c-8.37-10.81-12.3-18.14-12.3-18.14,6.71,4.72,15.55,7.18,22.66,8.46-3.11,3.15-6.55,6.41-10.35,9.68Zm13.85,16.14c-1.13-1.19-2.21-2.36-3.26-3.52,3.04-1.69,6.1-3.82,9.09-6.53,0,0-1.75,3.99-5.83,10.05Zm65.47-12.07c-6.81-11.27-11.26-21.11-13.42-26.29,1.24,.1,2.59,.17,4.02,.2,8.34,4.82,20.53,8.11,25.69,9.36-4.42,5.26-9.81,10.96-16.29,16.73Zm17.03-17.61c-3.7-3.23-7.09-6.7-10.18-10.3,8.37-2.09,17.59-6.3,26.37-14.25,0,0-4.65,10.61-16.19,24.55Zm85.56-2.9c6.41,7.35,15.63,13.25,24.56,17.74-2.97,4.14-6.21,8.31-9.74,12.39-10.32-17.1-14.83-30.13-14.83-30.13Zm27.55,48.8c-2.69-3.51-5.17-6.98-7.43-10.36,7.12-3.6,14.43-8.31,19.53-14.16,0,0-3.68,10.63-12.09,24.52Zm3.71-41.05c-5.83-6.7-11.05-13.62-15.67-20.38,6.36-1.52,25.61-6.62,33.16-14.17,0,0-5.73,15.81-17.49,34.56Zm50.36-47.62c3.41,2.4,7.51,4.07,11.51,5.24-1.62,1.63-3.29,3.22-5.03,4.77-4.39-6.12-6.48-10.02-6.48-10.02Zm14.36,47.77c-.34-.68-.5-1.04-.5-1.04,.26,.23,.52,.44,.77,.67-.09,.13-.19,.25-.28,.38Zm12.42,18.58c-1.4-1.69-2.67-3.32-3.82-4.87,2.24-1.6,4.37-3.31,6.33-5.13,.59,.23,1.17,.44,1.75,.64-.96,2.31-2.37,5.52-4.26,9.36Zm-1.69-34.64c-7.63-7.56-13.41-14.63-17.49-20.17,3.41-.85,8.61-2.28,14.12-4.19,3.8,.5,6.4,.57,6.4,.57-.94-.63-1.83-1.27-2.73-1.91,6.76-2.59,13.46-5.9,17.35-9.79,0,0-5.78,15.96-17.65,35.49Zm70.98,4.8c-1-1.87-1.46-2.93-1.46-2.93,.81,.73,1.62,1.42,2.43,2.08-.32,.28-.64,.57-.97,.85Zm14.9-15.84c-1.71-1.61-3.36-3.21-4.93-4.78,4.23-1.6,8.64-4.12,12.9-7.97,0,0-2.34,5.32-7.97,12.75Zm64.03-31.12c-2.51,3.83-5.25,7.73-8.21,11.62-6.58-11.76-9.81-20.66-9.81-20.66,3.89,3.89,11.58,6.97,18.02,9.03Zm-4.4,46.12c-4.28-8.02-6.2-13.57-6.2-13.57,2.65,3.04,6.05,5.71,9.66,8-1.08,1.81-2.23,3.67-3.46,5.57Zm8.82-15.19c-1.63-2.13-3.17-4.26-4.62-6.37,4.51-2.96,8.72-6.35,12.06-10.19,0,0-2.31,6.69-7.44,16.57Zm-1.54-35.44c-6.58-7.1-11.73-15-15.71-22.6,8.47-2.14,27.11-7.54,34.8-15.24,0,0-6.25,17.26-19.09,37.84Z"/></g></g></svg>