<?xml version="1.0" encoding="UTF-8"?><svg xmlns="http://www.w3.org/2000/svg" viewBox="0 0 311.56 304.19"><defs><style>.d{fill:#fff;}.e{fill:#d82f1f;}</style></defs><g id="a"/><g id="b"><g id="c"><g><circle class="e" cx="149.99" cy="153.11" r="147"/><path class="d" d="M254.57,257.69c-14.15,13.51-31.49,23.02-49.26,30.96-36.5,16.11-78.95,21.95-116.95,6.57C30.32,271.66-2.63,211.07,.16,149.92,1.93,96.87,30.75,43.55,78.43,18.4c59.39-31.75,140.89-22.54,186.8,28.63,17.31,18.36,32.29,39.64,40.44,63.75,19.15,57.62-11.12,107.44-51.1,146.91h0Zm-1.27-1.27c62.88-62.9,59.68-133.98-1.98-196.12-12.31-13.15-27.17-23.89-43.72-31.11C148.18,3.03,68.89,19.12,30.72,73.66-9.12,129.04,.8,203.57,49.57,249.86c33.18,33.18,79.89,47.77,126.37,40.9,27.3-3.86,57.18-15.13,77.36-34.34h0Z"/></g></g></g></svg>